<?xml version="1.0" encoding="UTF-8" standalone="no"?>
<!-- Created with Inkscape (http://www.inkscape.org/) -->

<svg
   xmlns:dc="http://purl.org/dc/elements/1.1/"
   xmlns:cc="http://creativecommons.org/ns#"
   xmlns:rdf="http://www.w3.org/1999/02/22-rdf-syntax-ns#"
   xmlns:svg="http://www.w3.org/2000/svg"
   xmlns="http://www.w3.org/2000/svg"
   xmlns:sodipodi="http://sodipodi.sourceforge.net/DTD/sodipodi-0.dtd"
   xmlns:inkscape="http://www.inkscape.org/namespaces/inkscape"
   width="64"
   height="64"
   viewBox="0 0 16.933333 16.933334"
   id="svg2"
   version="1.1"
   inkscape:version="0.91+devel+osxmenu r12898"
   sodipodi:docname="designed.svg">
  <defs
     id="defs4">
    <inkscape:path-effect
       effect="spiro"
       id="path-effect14077"
       is_visible="true" />
    <inkscape:path-effect
       is_visible="true"
       id="path-effect14073"
       effect="spiro" />
    <inkscape:path-effect
       is_visible="true"
       id="path-effect14069"
       effect="spiro" />
    <inkscape:path-effect
       effect="spiro"
       id="path-effect14056"
       is_visible="true" />
    <inkscape:path-effect
       effect="spiro"
       id="path-effect14053"
       is_visible="true" />
    <inkscape:path-effect
       is_visible="true"
       id="path-effect14050"
       effect="spiro" />
    <inkscape:path-effect
       effect="spiro"
       id="path-effect14013"
       is_visible="true" />
    <inkscape:path-effect
       is_visible="true"
       id="path-effect14009"
       effect="spiro" />
    <inkscape:path-effect
       is_visible="true"
       id="path-effect14005"
       effect="spiro" />
    <inkscape:path-effect
       effect="bspline"
       id="path-effect13997"
       is_visible="true"
       weight="0.3334"
       steps="2"
       ignoreCusp="true"
       onlySelected="false"
       showHelper="false" />
    <inkscape:path-effect
       is_visible="true"
       id="path-effect13993"
       effect="spiro" />
    <inkscape:path-effect
       effect="spiro"
       id="path-effect13989"
       is_visible="true" />
    <inkscape:path-effect
       effect="spiro"
       id="path-effect13985"
       is_visible="true" />
    <inkscape:path-effect
       effect="spiro"
       id="path-effect9065"
       is_visible="true" />
    <inkscape:path-effect
       is_visible="true"
       id="path-effect9491"
       effect="spiro" />
    <inkscape:path-effect
       effect="spiro"
       id="path-effect9487"
       is_visible="true" />
    <inkscape:path-effect
       effect="spiro"
       id="path-effect9483"
       is_visible="true" />
    <inkscape:path-effect
       effect="spiro"
       id="path-effect9479"
       is_visible="true" />
    <inkscape:path-effect
       is_visible="true"
       id="path-effect9473"
       effect="spiro" />
    <inkscape:path-effect
       effect="spiro"
       id="path-effect9463"
       is_visible="true" />
    <inkscape:path-effect
       effect="spiro"
       id="path-effect9411"
       is_visible="true" />
    <inkscape:path-effect
       effect="spiro"
       id="path-effect9407"
       is_visible="true" />
    <inkscape:path-effect
       is_visible="true"
       id="path-effect9403"
       effect="spiro" />
    <inkscape:path-effect
       effect="spiro"
       id="path-effect9399"
       is_visible="true" />
    <inkscape:path-effect
       effect="spiro"
       id="path-effect9395"
       is_visible="true" />
    <inkscape:path-effect
       effect="spiro"
       id="path-effect9391"
       is_visible="true" />
    <inkscape:path-effect
       effect="spiro"
       id="path-effect9387"
       is_visible="true" />
    <inkscape:path-effect
       effect="spiro"
       id="path-effect9359"
       is_visible="true" />
    <inkscape:path-effect
       effect="spiro"
       id="path-effect9031"
       is_visible="true" />
  </defs>
  <sodipodi:namedview
     id="base"
     pagecolor="#ffffff"
     bordercolor="#666666"
     borderopacity="1.0"
     inkscape:pageopacity="0.0"
     inkscape:pageshadow="2"
     inkscape:zoom="1.36"
     inkscape:cx="12.590072"
     inkscape:cy="14.470833"
     inkscape:document-units="mm"
     inkscape:current-layer="layer1"
     showgrid="true"
     units="px"
     inkscape:window-width="1440"
     inkscape:window-height="851"
     inkscape:window-x="0"
     inkscape:window-y="23"
     inkscape:window-maximized="0"
     inkscape:snap-global="false">
    <inkscape:grid
       type="xygrid"
       id="grid8871" />
  </sodipodi:namedview>
  <metadata
     id="metadata7">
    <rdf:RDF>
      <cc:Work
         rdf:about="">
        <dc:format>image/svg+xml</dc:format>
        <dc:type
           rdf:resource="http://purl.org/dc/dcmitype/StillImage" />
        <dc:title />
      </cc:Work>
    </rdf:RDF>
  </metadata>
  <g
     inkscape:label="Layer 1"
     inkscape:groupmode="layer"
     id="layer1"
     transform="translate(0,-280.06665)">
    <path
       style="opacity:1;fill:#5b5b5b;fill-opacity:1;stroke:#5b5b5b;stroke-width:0.77601826;stroke-miterlimit:4;stroke-dasharray:none;stroke-dashoffset:0;stroke-opacity:1"
       id="path9057"
       sodipodi:type="arc"
       sodipodi:cx="-303.16864"
       sodipodi:cy="54.228573"
       sodipodi:rx="1.1010408"
       sodipodi:ry="1.1217237"
       sodipodi:start="0"
       sodipodi:end="6.2567583"
       d="m -302.0676,54.228573 a 1.1010408,1.1217237 0 0 1 -1.09377,1.121699 1.1010408,1.1217237 0 0 1 -1.10821,-1.106878 1.1010408,1.1217237 0 0 1 1.07912,-1.136324 1.1010408,1.1217237 0 0 1 1.12248,1.091862 l -1.10066,0.02964 z"
       transform="matrix(0.25338156,-0.96736642,0.96553078,-0.2602889,0,0)" />
    <g
       id="g9170"
       transform="translate(-28.48425,-3.8820899)">
      <g
         style="fill:#5b5b5b;fill-opacity:1"
         transform="matrix(0.35615595,-0.26700283,0.29300008,0.26570565,-94.435452,242.57487)"
         id="g9025">
        <path
           style="opacity:1;fill:#5b5b5b;fill-opacity:1;stroke:none;stroke-width:0.26458332;stroke-linecap:butt;stroke-linejoin:miter;stroke-miterlimit:4;stroke-dasharray:none;stroke-dashoffset:0;stroke-opacity:1"
           id="path9017"
           d="m 73.693609,240.75079 c 0.72358,-0.3669 1.465543,-1.50182 2.170742,-1.10071 0.606031,0.34469 -0.991571,0.98294 -1.441646,1.51541 -0.548131,0.64848 -1.098301,1.30265 -1.548741,2.02243 -1.039436,1.66097 -2.318358,4.43268 -2.900412,6.28106 -0.36453,1.1576 -0.55557,2.36284 -0.833356,3.54426 -0.09412,1.13338 -0.277154,2.26286 -0.282353,3.40013 -0.01773,3.8779 0.990275,7.08254 3.050633,10.29538 0.529862,0.57177 1.022585,1.57131 1.853179,1.79986 1.35202,-0.26826 -2.791492,2.90033 -3.156392,1.67206 6.456222,-3.55371 2.121101,-1.08091 0.0069,0.0457 -0.01847,0.01 -5.29e-4,-0.0418 -7.94e-4,-0.0627 0,0 3.235587,-1.86807 3.235587,-1.86807 l 0,0 c -0.0076,0.0254 -1.98e-4,0.0623 -0.02275,0.0763 -5.864484,3.64274 -2.749629,1.56373 0.0204,-0.0614 -0.08555,1.31613 -2.04479,1.991 -3.298412,2.05463 -0.747009,-0.35889 -1.065874,-1.38673 -1.53048,-1.98618 -0.55672,-1.09539 -0.825381,-1.54762 -1.256728,-2.77745 -1.272855,-3.62908 -1.483048,-7.48591 -0.893633,-11.27481 0.26928,-1.17651 0.457856,-2.37445 0.807837,-3.52953 0.442129,-1.4592 1.81824,-4.7383 2.618557,-6.11833 0.401889,-0.693 0.916776,-1.31513 1.412986,-1.94405 0.379611,-0.48114 0.719119,-1.01821 1.211794,-1.38271 1.237248,-0.91537 2.620579,-1.6147 3.93087,-2.42205 0,0 -3.153812,1.82085 -3.153812,1.82085 z"
           inkscape:connector-curvature="0" />
      </g>
      <path
         style="opacity:1;fill:#5b5b5b;fill-opacity:1;stroke:none;stroke-width:0.26458332;stroke-linecap:butt;stroke-linejoin:miter;stroke-miterlimit:4;stroke-dasharray:none;stroke-dashoffset:0;stroke-opacity:1"
         id="path9158"
         d="m 9.5531608,292.5486 c 0.422461,0.70608 1.0217442,1.28082 1.6574032,1.79387 0.155883,0.10457 0.297456,0.24473 0.472132,0.32034 0.396935,0.0598 -0.467905,0.94391 -0.833054,0.80556 0.0018,-0.004 0.0027,-0.006 0.0045,-0.009 0,0 0.825182,-0.81994 0.825182,-0.81994 l 0,0 c -2.37e-4,0.002 -6.92e-4,0.003 -6.83e-4,0.005 0.118017,0.37414 -0.684779,1.21137 -0.814848,0.8319 -0.09199,-0.16526 -0.222111,-0.30721 -0.330631,-0.46096 -0.323264,-0.40719 -0.661036,-0.79832 -1.0209942,-1.17382 -0.1090691,-0.11376 -0.2156702,-0.2302 -0.3309803,-0.33762 -0.1018023,-0.0948 -0.213026,-0.17893 -0.319544,-0.26839 0,0 0.6917649,-0.68739 0.6917649,-0.68739 z"
         inkscape:connector-curvature="0" />
      <path
         inkscape:connector-curvature="0"
         d="m 12.513446,295.64848 c -0.304229,-0.19946 -0.689993,-0.16786 -1.035453,-0.14818 -0.596596,0.0652 -1.153123,0.30851 -1.6391461,0.65567 -0.073464,0.0525 -0.1421272,0.11155 -0.2131959,0.16733 -0.1532818,0.14249 -0.3276433,0.27875 -0.4364246,0.46162 -0.1149242,0.4051 -0.8950179,-0.66119 -0.6276487,-0.95626 1.4003576,2.17703 0.2671558,0.4363 0.00139,0.007 -0.00226,-0.004 0.00867,-0.006 0.012811,-0.009 0,0 0.636129,0.96682 0.636129,0.96682 l 0,0 c -0.00487,0.002 -0.00974,0.005 -0.01412,0.007 -1.42555,-2.09813 -0.3151577,-0.47592 0.0052,0.003 -0.3975339,0.0141 -1.0011328,-0.77788 -0.644907,-0.97785 0.1780031,-0.10478 0.3588122,-0.20474 0.5387462,-0.30613 0.2808277,-0.15572 0.560129,-0.30807 0.8502474,-0.44621 0.1146917,-0.0546 0.2273937,-0.11393 0.3452267,-0.1614 0.168166,-0.0677 0.483915,-0.1574 0.660475,-0.20989 0.210634,-0.0268 0.304124,-0.0416 0.511018,-0.0576 0.142041,-0.011 0.289342,-0.0172 0.420618,0.048 0,0 0.62894,0.95591 0.62894,0.95591 z"
         id="path9162"
         style="opacity:1;fill:#5b5b5b;fill-opacity:1;stroke:none;stroke-width:0.26458332;stroke-linecap:butt;stroke-linejoin:miter;stroke-miterlimit:4;stroke-dasharray:none;stroke-dashoffset:0;stroke-opacity:1" />
    </g>
    <g
       transform="rotate(-180,-4.5422385,287.05852)"
       id="g9176">
      <g
         id="g9178"
         transform="matrix(0.35615595,-0.26700283,0.29300008,0.26570565,-94.435452,242.57487)"
         style="fill:#5b5b5b;fill-opacity:1">
        <path
           inkscape:connector-curvature="0"
           d="m 73.693609,240.75079 c 0.72358,-0.3669 1.465543,-1.50182 2.170742,-1.10071 0.606031,0.34469 -0.991571,0.98294 -1.441646,1.51541 -0.548131,0.64848 -1.098301,1.30265 -1.548741,2.02243 -1.039436,1.66097 -2.318358,4.43268 -2.900412,6.28106 -0.36453,1.1576 -0.55557,2.36284 -0.833356,3.54426 -0.09412,1.13338 -0.277154,2.26286 -0.282353,3.40013 -0.01773,3.8779 0.990275,7.08254 3.050633,10.29538 0.529862,0.57177 1.022585,1.57131 1.853179,1.79986 1.35202,-0.26826 -2.791492,2.90033 -3.156392,1.67206 6.456222,-3.55371 2.121101,-1.08091 0.0069,0.0457 -0.01847,0.01 -5.29e-4,-0.0418 -7.94e-4,-0.0627 0,0 3.235587,-1.86807 3.235587,-1.86807 l 0,0 c -0.0076,0.0254 -1.98e-4,0.0623 -0.02275,0.0763 -5.864484,3.64274 -2.749629,1.56373 0.0204,-0.0614 -0.08555,1.31613 -2.04479,1.991 -3.298412,2.05463 -0.747009,-0.35889 -1.065874,-1.38673 -1.53048,-1.98618 -0.55672,-1.09539 -0.825381,-1.54762 -1.256728,-2.77745 -1.272855,-3.62908 -1.483048,-7.48591 -0.893633,-11.27481 0.26928,-1.17651 0.457856,-2.37445 0.807837,-3.52953 0.442129,-1.4592 1.81824,-4.7383 2.618557,-6.11833 0.401889,-0.693 0.916776,-1.31513 1.412986,-1.94405 0.379611,-0.48114 0.719119,-1.01821 1.211794,-1.38271 1.237248,-0.91537 2.620579,-1.6147 3.93087,-2.42205 0,0 -3.153812,1.82085 -3.153812,1.82085 z"
           id="path9180"
           style="opacity:1;fill:#5b5b5b;fill-opacity:1;stroke:none;stroke-width:0.26458332;stroke-linecap:butt;stroke-linejoin:miter;stroke-miterlimit:4;stroke-dasharray:none;stroke-dashoffset:0;stroke-opacity:1" />
      </g>
      <path
         inkscape:connector-curvature="0"
         d="m 9.5531608,292.5486 c 0.422461,0.70608 1.0217442,1.28082 1.6574032,1.79387 0.155883,0.10457 0.297456,0.24473 0.472132,0.32034 0.396935,0.0598 -0.467905,0.94391 -0.833054,0.80556 0.0018,-0.004 0.0027,-0.006 0.0045,-0.009 0,0 0.825182,-0.81994 0.825182,-0.81994 l 0,0 c -2.37e-4,0.002 -6.92e-4,0.003 -6.83e-4,0.005 0.118017,0.37414 -0.684779,1.21137 -0.814848,0.8319 -0.09199,-0.16526 -0.222111,-0.30721 -0.330631,-0.46096 -0.323264,-0.40719 -0.661036,-0.79832 -1.0209942,-1.17382 -0.1090691,-0.11376 -0.2156702,-0.2302 -0.3309803,-0.33762 -0.1018023,-0.0948 -0.213026,-0.17893 -0.319544,-0.26839 0,0 0.6917649,-0.68739 0.6917649,-0.68739 z"
         id="path9182"
         style="opacity:1;fill:#5b5b5b;fill-opacity:1;stroke:none;stroke-width:0.26458332;stroke-linecap:butt;stroke-linejoin:miter;stroke-miterlimit:4;stroke-dasharray:none;stroke-dashoffset:0;stroke-opacity:1" />
      <path
         style="opacity:1;fill:#5b5b5b;fill-opacity:1;stroke:none;stroke-width:0.26458332;stroke-linecap:butt;stroke-linejoin:miter;stroke-miterlimit:4;stroke-dasharray:none;stroke-dashoffset:0;stroke-opacity:1"
         id="path9184"
         d="m 12.513446,295.64848 c -0.304229,-0.19946 -0.689993,-0.16786 -1.035453,-0.14818 -0.596596,0.0652 -1.153123,0.30851 -1.6391461,0.65567 -0.073464,0.0525 -0.1421272,0.11155 -0.2131959,0.16733 -0.1532818,0.14249 -0.3276433,0.27875 -0.4364246,0.46162 -0.1149242,0.4051 -0.8950179,-0.66119 -0.6276487,-0.95626 1.4003576,2.17703 0.2671558,0.4363 0.00139,0.007 -0.00226,-0.004 0.00867,-0.006 0.012811,-0.009 0,0 0.636129,0.96682 0.636129,0.96682 l 0,0 c -0.00487,0.002 -0.00974,0.005 -0.01412,0.007 -1.42555,-2.09813 -0.3151577,-0.47592 0.0052,0.003 -0.3975339,0.0141 -1.0011328,-0.77788 -0.644907,-0.97785 0.1780031,-0.10478 0.3588122,-0.20474 0.5387462,-0.30613 0.2808277,-0.15572 0.560129,-0.30807 0.8502474,-0.44621 0.1146917,-0.0546 0.2273937,-0.11393 0.3452267,-0.1614 0.168166,-0.0677 0.483915,-0.1574 0.660475,-0.20989 0.210634,-0.0268 0.304124,-0.0416 0.511018,-0.0576 0.142041,-0.011 0.289342,-0.0172 0.420618,0.048 0,0 0.62894,0.95591 0.62894,0.95591 z"
         inkscape:connector-curvature="0" />
    </g>
    <path
       transform="matrix(0.19313749,-0.9811717,0.94760702,-0.31943847,0,0)"
       d="m -311.48218,49.894802 a 1.1010408,1.1217237 0 0 1 -1.09377,1.121699 1.1010408,1.1217237 0 0 1 -1.10822,-1.106877 1.1010408,1.1217237 0 0 1 1.07913,-1.136325 1.1010408,1.1217237 0 0 1 1.12247,1.091863 l -1.10065,0.02964 z"
       sodipodi:end="6.2567583"
       sodipodi:start="0"
       sodipodi:ry="1.1217237"
       sodipodi:rx="1.1010408"
       sodipodi:cy="49.894802"
       sodipodi:cx="-312.58322"
       sodipodi:type="arc"
       id="path9186"
       style="opacity:1;fill:#5b5b5b;fill-opacity:1;stroke:#5b5b5b;stroke-width:0.77601826;stroke-miterlimit:4;stroke-dasharray:none;stroke-dashoffset:0;stroke-opacity:1" />
    <path
       inkscape:connector-curvature="0"
       d="m 7.0470929,233.74674 c -0.011348,0.004 -0.022696,0.009 -0.034043,0.0128 0,0 1.1819938,-0.68242 1.1819938,-0.68242 l 0,0 c 0.014396,-0.006 0.028791,-0.0121 0.043186,-0.0181 0,0 -1.1911374,0.6877 -1.1911374,0.6877 z"
       id="path9271"
       style="opacity:1;fill:#cccccc;fill-opacity:1;stroke:none;stroke-width:0.26458332;stroke-linecap:butt;stroke-linejoin:miter;stroke-miterlimit:4;stroke-dasharray:none;stroke-dashoffset:0;stroke-opacity:1" />
    <g
       transform="matrix(0.01587707,1.0881736,-1.0341488,0.01670651,302.8094,245.78319)"
       id="g9273">
      <g
         id="g9275"
         transform="matrix(0.35615595,-0.26700283,0.29300008,0.26570565,-94.435452,242.57487)"
         style="fill:#5b5b5b;fill-opacity:1">
        <path
           inkscape:connector-curvature="0"
           d="m 73.693609,240.75079 c 0.72358,-0.3669 1.465543,-1.50182 2.170742,-1.10071 0.606031,0.34469 -0.991571,0.98294 -1.441646,1.51541 -0.548131,0.64848 -1.098301,1.30265 -1.548741,2.02243 -1.039436,1.66097 -2.318358,4.43268 -2.900412,6.28106 -0.36453,1.1576 -0.55557,2.36284 -0.833356,3.54426 -0.09412,1.13338 -0.277154,2.26286 -0.282353,3.40013 -0.01773,3.8779 0.990275,7.08254 3.050633,10.29538 0.529862,0.57177 1.022585,1.57131 1.853179,1.79986 1.35202,-0.26826 -2.791492,2.90033 -3.156392,1.67206 6.456222,-3.55371 2.121101,-1.08091 0.0069,0.0457 -0.01847,0.01 -5.29e-4,-0.0418 -7.94e-4,-0.0627 0,0 3.235587,-1.86807 3.235587,-1.86807 l 0,0 c -0.0076,0.0254 -1.98e-4,0.0623 -0.02275,0.0763 -5.864484,3.64274 -2.749629,1.56373 0.0204,-0.0614 -0.08555,1.31613 -2.04479,1.991 -3.298412,2.05463 -0.747009,-0.35889 -1.065874,-1.38673 -1.53048,-1.98618 -0.55672,-1.09539 -0.825381,-1.54762 -1.256728,-2.77745 -1.272855,-3.62908 -1.483048,-7.48591 -0.893633,-11.27481 0.26928,-1.17651 0.457856,-2.37445 0.807837,-3.52953 0.442129,-1.4592 1.81824,-4.7383 2.618557,-6.11833 0.401889,-0.693 0.916776,-1.31513 1.412986,-1.94405 0.379611,-0.48114 0.719119,-1.01821 1.211794,-1.38271 1.237248,-0.91537 2.620579,-1.6147 3.93087,-2.42205 0,0 -3.153812,1.82085 -3.153812,1.82085 z"
           id="path9277"
           style="opacity:1;fill:#5b5b5b;fill-opacity:1;stroke:none;stroke-width:0.26458332;stroke-linecap:butt;stroke-linejoin:miter;stroke-miterlimit:4;stroke-dasharray:none;stroke-dashoffset:0;stroke-opacity:1" />
      </g>
      <path
         inkscape:connector-curvature="0"
         d="m 9.5531608,292.5486 c 0.422461,0.70608 1.0217442,1.28082 1.6574032,1.79387 0.155883,0.10457 0.297456,0.24473 0.472132,0.32034 0.396935,0.0598 -0.467905,0.94391 -0.833054,0.80556 0.0018,-0.004 0.0027,-0.006 0.0045,-0.009 0,0 0.825182,-0.81994 0.825182,-0.81994 l 0,0 c -2.37e-4,0.002 -6.92e-4,0.003 -6.83e-4,0.005 0.118017,0.37414 -0.684779,1.21137 -0.814848,0.8319 -0.09199,-0.16526 -0.222111,-0.30721 -0.330631,-0.46096 -0.323264,-0.40719 -0.661036,-0.79832 -1.0209942,-1.17382 -0.1090691,-0.11376 -0.2156702,-0.2302 -0.3309803,-0.33762 -0.1018023,-0.0948 -0.213026,-0.17893 -0.319544,-0.26839 0,0 0.6917649,-0.68739 0.6917649,-0.68739 z"
         id="path9279"
         style="opacity:1;fill:#5b5b5b;fill-opacity:1;stroke:none;stroke-width:0.26458332;stroke-linecap:butt;stroke-linejoin:miter;stroke-miterlimit:4;stroke-dasharray:none;stroke-dashoffset:0;stroke-opacity:1" />
      <path
         style="opacity:1;fill:#5b5b5b;fill-opacity:1;stroke:none;stroke-width:0.26458332;stroke-linecap:butt;stroke-linejoin:miter;stroke-miterlimit:4;stroke-dasharray:none;stroke-dashoffset:0;stroke-opacity:1"
         id="path9281"
         d="m 12.513446,295.64848 c -0.304229,-0.19946 -0.689993,-0.16786 -1.035453,-0.14818 -0.596596,0.0652 -1.153123,0.30851 -1.6391461,0.65567 -0.073464,0.0525 -0.1421272,0.11155 -0.2131959,0.16733 -0.1532818,0.14249 -0.3276433,0.27875 -0.4364246,0.46162 -0.1149242,0.4051 -0.8950179,-0.66119 -0.6276487,-0.95626 1.4003576,2.17703 0.2671558,0.4363 0.00139,0.007 -0.00226,-0.004 0.00867,-0.006 0.012811,-0.009 0,0 0.636129,0.96682 0.636129,0.96682 l 0,0 c -0.00487,0.002 -0.00974,0.005 -0.01412,0.007 -1.42555,-2.09813 -0.3151577,-0.47592 0.0052,0.003 -0.3975339,0.0141 -1.0011328,-0.77788 -0.644907,-0.97785 0.1780031,-0.10478 0.3588122,-0.20474 0.5387462,-0.30613 0.2808277,-0.15572 0.560129,-0.30807 0.8502474,-0.44621 0.1146917,-0.0546 0.2273937,-0.11393 0.3452267,-0.1614 0.168166,-0.0677 0.483915,-0.1574 0.660475,-0.20989 0.210634,-0.0268 0.304124,-0.0416 0.511018,-0.0576 0.142041,-0.011 0.289342,-0.0172 0.420618,0.048 0,0 0.62894,0.95591 0.62894,0.95591 z"
         inkscape:connector-curvature="0" />
    </g>
    <path
       transform="matrix(0.42009258,0.90748125,-0.8823504,0.470593,0,0)"
       d="m 235.12885,114.54421 a 0.68892872,1.0636147 0 0 1 -0.68437,1.06359 0.68892872,1.0636147 0 0 1 -0.69342,-1.04953 0.68892872,1.0636147 0 0 1 0.67521,-1.07746 0.68892872,1.0636147 0 0 1 0.70234,1.0353 l -0.68868,0.0281 z"
       sodipodi:end="6.2567583"
       sodipodi:start="0"
       sodipodi:ry="1.0636147"
       sodipodi:rx="0.68892872"
       sodipodi:cy="114.54421"
       sodipodi:cx="234.43993"
       sodipodi:type="arc"
       id="path9299"
       style="opacity:1;fill:#5b5b5b;fill-opacity:1;stroke:#5b5b5b;stroke-width:0.59773219;stroke-miterlimit:4;stroke-dasharray:none;stroke-dashoffset:0;stroke-opacity:1" />
    <path
       inkscape:connector-curvature="0"
       d="m 9.0093675,260.43393 c 0.00406,-0.0125 0.00892,-0.0247 0.012844,-0.0372 0,0 -0.692324,1.29446 -0.692324,1.29446 l 0,0 c -0.00595,0.016 -0.012168,0.0315 -0.018225,0.0472 0,0 0.6976819,-1.30446 0.6976819,-1.30446 z"
       id="path9301"
       style="opacity:1;fill:#cccccc;fill-opacity:1;stroke:none;stroke-width:0.28070766;stroke-linecap:butt;stroke-linejoin:miter;stroke-miterlimit:4;stroke-dasharray:none;stroke-dashoffset:0;stroke-opacity:1" />
    <g
       id="g9303"
       transform="matrix(-0.67682565,0.82291887,0.78206319,0.71218362,-210.46047,48.549594)">
      <g
         style="fill:#5b5b5b;fill-opacity:1"
         transform="matrix(0.35615595,-0.26700283,0.29300008,0.26570565,-94.435452,242.57487)"
         id="g9305">
        <path
           style="opacity:1;fill:#5b5b5b;fill-opacity:1;stroke:none;stroke-width:0.26458332;stroke-linecap:butt;stroke-linejoin:miter;stroke-miterlimit:4;stroke-dasharray:none;stroke-dashoffset:0;stroke-opacity:1"
           id="path9307"
           d="m 73.693609,240.75079 c 0.72358,-0.3669 1.465543,-1.50182 2.170742,-1.10071 0.606031,0.34469 -0.991571,0.98294 -1.441646,1.51541 -0.548131,0.64848 -1.098301,1.30265 -1.548741,2.02243 -1.039436,1.66097 -2.318358,4.43268 -2.900412,6.28106 -0.36453,1.1576 -0.55557,2.36284 -0.833356,3.54426 -0.09412,1.13338 -0.277154,2.26286 -0.282353,3.40013 -0.01773,3.8779 0.990275,7.08254 3.050633,10.29538 0.529862,0.57177 1.022585,1.57131 1.853179,1.79986 1.35202,-0.26826 -2.791492,2.90033 -3.156392,1.67206 6.456222,-3.55371 2.121101,-1.08091 0.0069,0.0457 -0.01847,0.01 -5.29e-4,-0.0418 -7.94e-4,-0.0627 0,0 3.235587,-1.86807 3.235587,-1.86807 l 0,0 c -0.0076,0.0254 -1.98e-4,0.0623 -0.02275,0.0763 -5.864484,3.64274 -2.749629,1.56373 0.0204,-0.0614 -0.08555,1.31613 -2.04479,1.991 -3.298412,2.05463 -0.747009,-0.35889 -1.065874,-1.38673 -1.53048,-1.98618 -0.55672,-1.09539 -0.825381,-1.54762 -1.256728,-2.77745 -1.272855,-3.62908 -1.483048,-7.48591 -0.893633,-11.27481 0.26928,-1.17651 0.457856,-2.37445 0.807837,-3.52953 0.442129,-1.4592 1.81824,-4.7383 2.618557,-6.11833 0.401889,-0.693 0.916776,-1.31513 1.412986,-1.94405 0.379611,-0.48114 0.719119,-1.01821 1.211794,-1.38271 1.237248,-0.91537 2.620579,-1.6147 3.93087,-2.42205 0,0 -3.153812,1.82085 -3.153812,1.82085 z"
           inkscape:connector-curvature="0" />
      </g>
      <path
         style="opacity:1;fill:#5b5b5b;fill-opacity:1;stroke:none;stroke-width:0.26458332;stroke-linecap:butt;stroke-linejoin:miter;stroke-miterlimit:4;stroke-dasharray:none;stroke-dashoffset:0;stroke-opacity:1"
         id="path9309"
         d="m 9.5531608,292.5486 c 0.422461,0.70608 1.0217442,1.28082 1.6574032,1.79387 0.155883,0.10457 0.297456,0.24473 0.472132,0.32034 0.396935,0.0598 -0.467905,0.94391 -0.833054,0.80556 0.0018,-0.004 0.0027,-0.006 0.0045,-0.009 0,0 0.825182,-0.81994 0.825182,-0.81994 l 0,0 c -2.37e-4,0.002 -6.92e-4,0.003 -6.83e-4,0.005 0.118017,0.37414 -0.684779,1.21137 -0.814848,0.8319 -0.09199,-0.16526 -0.222111,-0.30721 -0.330631,-0.46096 -0.323264,-0.40719 -0.661036,-0.79832 -1.0209942,-1.17382 -0.1090691,-0.11376 -0.2156702,-0.2302 -0.3309803,-0.33762 -0.1018023,-0.0948 -0.213026,-0.17893 -0.319544,-0.26839 0,0 0.6917649,-0.68739 0.6917649,-0.68739 z"
         inkscape:connector-curvature="0" />
      <path
         inkscape:connector-curvature="0"
         d="m 12.513446,295.64848 c -0.304229,-0.19946 -0.689993,-0.16786 -1.035453,-0.14818 -0.596596,0.0652 -1.153123,0.30851 -1.6391461,0.65567 -0.073464,0.0525 -0.1421272,0.11155 -0.2131959,0.16733 -0.1532818,0.14249 -0.3276433,0.27875 -0.4364246,0.46162 -0.1149242,0.4051 -0.8950179,-0.66119 -0.6276487,-0.95626 1.4003576,2.17703 0.2671558,0.4363 0.00139,0.007 -0.00226,-0.004 0.00867,-0.006 0.012811,-0.009 0,0 0.636129,0.96682 0.636129,0.96682 l 0,0 c -0.00487,0.002 -0.00974,0.005 -0.01412,0.007 -1.42555,-2.09813 -0.3151577,-0.47592 0.0052,0.003 -0.3975339,0.0141 -1.0011328,-0.77788 -0.644907,-0.97785 0.1780031,-0.10478 0.3588122,-0.20474 0.5387462,-0.30613 0.2808277,-0.15572 0.560129,-0.30807 0.8502474,-0.44621 0.1146917,-0.0546 0.2273937,-0.11393 0.3452267,-0.1614 0.168166,-0.0677 0.483915,-0.1574 0.660475,-0.20989 0.210634,-0.0268 0.304124,-0.0416 0.511018,-0.0576 0.142041,-0.011 0.289342,-0.0172 0.420618,0.048 0,0 0.62894,0.95591 0.62894,0.95591 z"
         id="path9311"
         style="opacity:1;fill:#5b5b5b;fill-opacity:1;stroke:none;stroke-width:0.26458332;stroke-linecap:butt;stroke-linejoin:miter;stroke-miterlimit:4;stroke-dasharray:none;stroke-dashoffset:0;stroke-opacity:1" />
    </g>
    <path
       transform="matrix(-0.4006932,0.91621229,0.89278735,0.45047835,0,0)"
       d="m 222.62679,110.42478 a 0.68950659,1.0626411 0 0 1 -0.68495,1.06262 0.68950659,1.0626411 0 0 1 -0.694,-1.04858 0.68950659,1.0626411 0 0 1 0.67578,-1.07647 0.68950659,1.0626411 0 0 1 0.70293,1.03435 l -0.68926,0.0281 z"
       sodipodi:end="6.2567583"
       sodipodi:start="0"
       sodipodi:ry="1.0626411"
       sodipodi:rx="0.68950659"
       sodipodi:cy="110.42478"
       sodipodi:cx="221.93729"
       sodipodi:type="arc"
       id="path9313"
       style="opacity:1;fill:#5b5b5b;fill-opacity:1;stroke:#5b5b5b;stroke-width:0.597709;stroke-miterlimit:4;stroke-dasharray:none;stroke-dashoffset:0;stroke-opacity:1" />
    <path
       style="opacity:1;fill:#5b5b5b;fill-opacity:1;stroke:#5b5b5b;stroke-width:0.597709;stroke-miterlimit:4;stroke-dasharray:none;stroke-dashoffset:0;stroke-opacity:1"
       id="path9315"
       sodipodi:type="arc"
       sodipodi:cx="237.27827"
       sodipodi:cy="118.82156"
       sodipodi:rx="0.68950659"
       sodipodi:ry="1.0626411"
       sodipodi:start="0"
       sodipodi:end="6.2567583"
       d="m 237.96778,118.82156 a 0.68950659,1.0626411 0 0 1 -0.68495,1.06262 0.68950659,1.0626411 0 0 1 -0.694,-1.04858 0.68950659,1.0626411 0 0 1 0.67578,-1.07647 0.68950659,1.0626411 0 0 1 0.70293,1.03435 l -0.68927,0.0281 z"
       transform="matrix(-0.4006932,0.91621229,0.89278735,0.45047835,0,0)" />
    <g
       id="g9419"
       transform="matrix(-0.01587707,-1.0881736,1.0341488,-0.01670651,-295.943,273.48128)">
      <g
         style="fill:#5b5b5b;fill-opacity:1"
         transform="matrix(0.35615595,-0.26700283,0.29300008,0.26570565,-94.435452,242.57487)"
         id="g9421">
        <path
           style="opacity:1;fill:#5b5b5b;fill-opacity:1;stroke:none;stroke-width:0.26458332;stroke-linecap:butt;stroke-linejoin:miter;stroke-miterlimit:4;stroke-dasharray:none;stroke-dashoffset:0;stroke-opacity:1"
           id="path9423"
           d="m 73.693609,240.75079 c 0.72358,-0.3669 1.465543,-1.50182 2.170742,-1.10071 0.606031,0.34469 -0.991571,0.98294 -1.441646,1.51541 -0.548131,0.64848 -1.098301,1.30265 -1.548741,2.02243 -1.039436,1.66097 -2.318358,4.43268 -2.900412,6.28106 -0.36453,1.1576 -0.55557,2.36284 -0.833356,3.54426 -0.09412,1.13338 -0.277154,2.26286 -0.282353,3.40013 -0.01773,3.8779 0.990275,7.08254 3.050633,10.29538 0.529862,0.57177 1.022585,1.57131 1.853179,1.79986 1.35202,-0.26826 -2.791492,2.90033 -3.156392,1.67206 6.456222,-3.55371 2.121101,-1.08091 0.0069,0.0457 -0.01847,0.01 -5.29e-4,-0.0418 -7.94e-4,-0.0627 0,0 3.235587,-1.86807 3.235587,-1.86807 l 0,0 c -0.0076,0.0254 -1.98e-4,0.0623 -0.02275,0.0763 -5.864484,3.64274 -2.749629,1.56373 0.0204,-0.0614 -0.08555,1.31613 -2.04479,1.991 -3.298412,2.05463 -0.747009,-0.35889 -1.065874,-1.38673 -1.53048,-1.98618 -0.55672,-1.09539 -0.825381,-1.54762 -1.256728,-2.77745 -1.272855,-3.62908 -1.483048,-7.48591 -0.893633,-11.27481 0.26928,-1.17651 0.457856,-2.37445 0.807837,-3.52953 0.442129,-1.4592 1.81824,-4.7383 2.618557,-6.11833 0.401889,-0.693 0.916776,-1.31513 1.412986,-1.94405 0.379611,-0.48114 0.719119,-1.01821 1.211794,-1.38271 1.237248,-0.91537 2.620579,-1.6147 3.93087,-2.42205 0,0 -3.153812,1.82085 -3.153812,1.82085 z"
           inkscape:connector-curvature="0" />
      </g>
      <path
         style="opacity:1;fill:#5b5b5b;fill-opacity:1;stroke:none;stroke-width:0.26458332;stroke-linecap:butt;stroke-linejoin:miter;stroke-miterlimit:4;stroke-dasharray:none;stroke-dashoffset:0;stroke-opacity:1"
         id="path9425"
         d="m 9.5531608,292.5486 c 0.422461,0.70608 1.0217442,1.28082 1.6574032,1.79387 0.155883,0.10457 0.297456,0.24473 0.472132,0.32034 0.396935,0.0598 -0.467905,0.94391 -0.833054,0.80556 0.0018,-0.004 0.0027,-0.006 0.0045,-0.009 0,0 0.825182,-0.81994 0.825182,-0.81994 l 0,0 c -2.37e-4,0.002 -6.92e-4,0.003 -6.83e-4,0.005 0.118017,0.37414 -0.684779,1.21137 -0.814848,0.8319 -0.09199,-0.16526 -0.222111,-0.30721 -0.330631,-0.46096 -0.323264,-0.40719 -0.661036,-0.79832 -1.0209942,-1.17382 -0.1090691,-0.11376 -0.2156702,-0.2302 -0.3309803,-0.33762 -0.1018023,-0.0948 -0.213026,-0.17893 -0.319544,-0.26839 0,0 0.6917649,-0.68739 0.6917649,-0.68739 z"
         inkscape:connector-curvature="0" />
      <path
         inkscape:connector-curvature="0"
         d="m 12.513446,295.64848 c -0.304229,-0.19946 -0.689993,-0.16786 -1.035453,-0.14818 -0.596596,0.0652 -1.153123,0.30851 -1.6391461,0.65567 -0.073464,0.0525 -0.1421272,0.11155 -0.2131959,0.16733 -0.1532818,0.14249 -0.3276433,0.27875 -0.4364246,0.46162 -0.1149242,0.4051 -0.8950179,-0.66119 -0.6276487,-0.95626 1.4003576,2.17703 0.2671558,0.4363 0.00139,0.007 -0.00226,-0.004 0.00867,-0.006 0.012811,-0.009 0,0 0.636129,0.96682 0.636129,0.96682 l 0,0 c -0.00487,0.002 -0.00974,0.005 -0.01412,0.007 -1.42555,-2.09813 -0.3151577,-0.47592 0.0052,0.003 -0.3975339,0.0141 -1.0011328,-0.77788 -0.644907,-0.97785 0.1780031,-0.10478 0.3588122,-0.20474 0.5387462,-0.30613 0.2808277,-0.15572 0.560129,-0.30807 0.8502474,-0.44621 0.1146917,-0.0546 0.2273937,-0.11393 0.3452267,-0.1614 0.168166,-0.0677 0.483915,-0.1574 0.660475,-0.20989 0.210634,-0.0268 0.304124,-0.0416 0.511018,-0.0576 0.142041,-0.011 0.289342,-0.0172 0.420618,0.048 0,0 0.62894,0.95591 0.62894,0.95591 z"
         id="path9427"
         style="opacity:1;fill:#5b5b5b;fill-opacity:1;stroke:none;stroke-width:0.26458332;stroke-linecap:butt;stroke-linejoin:miter;stroke-miterlimit:4;stroke-dasharray:none;stroke-dashoffset:0;stroke-opacity:1" />
    </g>
    <g
       id="g9053"
       transform="translate(24.695705,-20.860387)">
      <path
         sodipodi:nodetypes="cssc"
         inkscape:connector-curvature="0"
         inkscape:original-d="m 13.498021,291.31444 c 0.614874,0.45089 1.226301,3.01652 1.854377,3.6319 0.628075,0.61539 -2.088299,0.42535 -3.339184,0.44239 -1.250883,0.017 -0.805117,-1.10409 -0.817357,-1.72762"
         inkscape:path-effect="#path-effect9463"
         id="path9461"
         d="m 13.498021,291.31444 c 0.417208,0.005 0.832428,0.12604 1.186962,0.34603 0.354534,0.21998 0.647366,0.53828 0.837099,0.90988 0.189734,0.3716 0.275824,0.79545 0.246103,1.21163 -0.02972,0.41618 -0.175172,0.82349 -0.415787,1.16436 -0.363723,0.51527 -0.94779,0.86962 -1.572981,0.9529 -0.625192,0.0833 -1.282167,-0.10615 -1.766203,-0.51051 -0.50453,-0.42148 -0.81146,-1.07023 -0.817357,-1.72762"
         style="opacity:1;fill:none;fill-opacity:1;fill-rule:evenodd;stroke:#5b5b5b;stroke-width:1.5;stroke-linecap:butt;stroke-linejoin:miter;stroke-miterlimit:4;stroke-dasharray:none;stroke-dashoffset:0;stroke-opacity:1" />
      <circle
         transform="rotate(44.219679)"
         r="1.3229166"
         cy="200.93994"
         cx="211.71758"
         id="path9469"
         style="opacity:1;fill:#5b5b5b;fill-opacity:1;stroke:none;stroke-width:0.60000002;stroke-miterlimit:4;stroke-dasharray:none;stroke-dashoffset:0;stroke-opacity:1" />
      <path
         style="opacity:1;fill:none;fill-opacity:1;fill-rule:evenodd;stroke:#5b5b5b;stroke-width:1.5;stroke-linecap:butt;stroke-linejoin:miter;stroke-miterlimit:4;stroke-dasharray:none;stroke-dashoffset:0;stroke-opacity:1"
         d="m 5.6089632,283.50687 c -0.016359,-0.41692 -0.1486706,-0.82869 -0.3782301,-1.1771 -0.2295595,-0.34841 -0.5557093,-0.63246 -0.9323426,-0.81201 -0.3766332,-0.17954 -0.8026709,-0.25405 -1.2178854,-0.21301 -0.4152146,0.041 -0.8184163,0.19754 -1.1526058,0.44735 -0.5051728,0.37762 -0.8434866,0.97112 -0.9097027,1.59835 -0.0662161,0.62723 0.1410277,1.2788 0.5584211,1.75164 0.4350659,0.49286 1.0919322,0.78201 1.7492392,0.77"
         id="path9471"
         inkscape:path-effect="#path-effect9473"
         inkscape:original-d="m 5.6089632,283.50687 c -0.4674689,-0.60236 -3.0488039,-1.14369 -3.6810639,-1.75477 -0.6322591,-0.61108 -0.3683182,2.0991 -0.3512816,3.34999 0.017038,1.25089 1.1256208,0.77475 1.7492392,0.77"
         inkscape:connector-curvature="0"
         sodipodi:nodetypes="cssc" />
      <circle
         transform="matrix(-0.71667111,-0.6974113,-0.6974113,0.71667111,0,0)"
         style="opacity:1;fill:#5b5b5b;fill-opacity:1;stroke:none;stroke-width:0.60000002;stroke-miterlimit:4;stroke-dasharray:none;stroke-dashoffset:0;stroke-opacity:1"
         id="circle9475"
         cx="-202.86273"
         cy="200.93994"
         r="1.3229166" />
      <path
         sodipodi:nodetypes="csc"
         inkscape:connector-curvature="0"
         inkscape:original-d="m 7.1529656,284.50647 c 0.9520854,0.92231 3.5963894,0.10188 4.5404974,1.0248 0.944109,0.92293 0.203972,3.58798 1.14808,4.5109"
         inkscape:path-effect="#path-effect9483"
         id="path9481"
         d="m 7.1529656,284.50647 c 0.7728235,-0.26282 1.6185025,-0.30762 2.4147654,-0.1279 0.796263,0.17972 1.540719,0.58341 2.125732,1.1527 0.585013,0.56929 1.008826,1.30248 1.210164,2.09355 0.201338,0.79107 0.179595,1.63766 -0.06208,2.41735"
         style="opacity:1;fill:none;fill-opacity:1;fill-rule:evenodd;stroke:#5b5b5b;stroke-width:1.5;stroke-linecap:butt;stroke-linejoin:miter;stroke-miterlimit:4;stroke-dasharray:none;stroke-dashoffset:0;stroke-opacity:1" />
      <path
         style="opacity:1;fill:none;fill-opacity:1;fill-rule:evenodd;stroke:#5b5b5b;stroke-width:1.5;stroke-linecap:butt;stroke-linejoin:miter;stroke-miterlimit:4;stroke-dasharray:none;stroke-dashoffset:0;stroke-opacity:1"
         d="m 4.3936934,287.34195 c -0.2416793,0.77969 -0.2634221,1.62628 -0.062085,2.41735 0.2013375,0.79107 0.6251508,1.52426 1.2101634,2.09355 0.585013,0.56929 1.3294693,0.97298 2.1257322,1.1527 0.7962629,0.17972 1.641942,0.13493 2.4147656,-0.1279"
         id="path9489"
         inkscape:path-effect="#path-effect9491"
         inkscape:original-d="m 4.3936934,287.34195 c 0.9479002,0.9266 0.1997869,3.59228 1.1480788,4.5109 0.9482929,0.91862 3.5922056,0.10617 4.5404978,1.0248"
         inkscape:connector-curvature="0"
         sodipodi:nodetypes="csc" />
    </g>
    <path
       style="opacity:1;fill:none;fill-opacity:1;fill-rule:evenodd;stroke:#5b5b5b;stroke-width:1.05833328;stroke-linecap:butt;stroke-linejoin:miter;stroke-miterlimit:4;stroke-dasharray:none;stroke-dashoffset:0;stroke-opacity:1"
       d="m 8.1030316,282.13655 0,5.29167"
       id="path9067"
       inkscape:connector-curvature="0" />
    <path
       style="opacity:1;fill:none;fill-opacity:1;fill-rule:evenodd;stroke:#5b5b5b;stroke-width:0.66145831;stroke-linecap:butt;stroke-linejoin:miter;stroke-miterlimit:4;stroke-dasharray:none;stroke-dashoffset:0;stroke-opacity:1"
       d="m 9.8537823,288.08303 c -0.3463383,-0.44778 -0.874878,-0.75023 -1.4364038,-0.82196 -0.5615259,-0.0717 -1.1491223,0.0881 -1.5969014,0.43448 -0.447779,0.34634 -0.7502261,0.87488 -0.8219556,1.43641 -0.071729,0.56152 0.088142,1.14912 0.4344805,1.5969 0.3463383,0.44778 0.874878,0.75023 1.4364038,0.82196 0.5615259,0.0717 1.1491223,-0.0881 1.5969014,-0.43448 0.447779,-0.34634 0.7502258,-0.87488 0.8219558,-1.43641 0.07173,-0.56152 -0.08814,-1.14912 -0.4344807,-1.5969 z"
       id="path13983"
       inkscape:path-effect="#path-effect13985"
       inkscape:original-d="m 9.8537823,288.08303 c 1.7612437,-0.8793 -1.6542456,1.76124 -3.4207803,2.64583 -1.7665348,0.88459 1.6595367,-1.76653 3.4207803,-2.64583 z"
       inkscape:connector-curvature="0"
       sodipodi:nodetypes="sss" />
    <path
       style="opacity:1;fill:none;fill-opacity:1;fill-rule:evenodd;stroke:#5b5b5b;stroke-width:1.05833328;stroke-linecap:butt;stroke-linejoin:miter;stroke-miterlimit:4;stroke-dasharray:none;stroke-dashoffset:0;stroke-opacity:1"
       d="m 6.3660495,290.36798 c -1.2962915,0.48916 -2.4172779,1.42965 -3.1242805,2.6212 -0.6421315,1.08222 -0.9413366,2.36455 -0.8444694,3.6192"
       id="path13987"
       inkscape:path-effect="#path-effect13989"
       inkscape:original-d="m 6.3660495,290.36798 c 1.444711,-0.25368 -1.1773265,0.67206 -3.1242805,2.6212 -1.744748,1.74671 -1.6023285,3.18989 -0.8444694,3.6192"
       inkscape:connector-curvature="0"
       sodipodi:nodetypes="csc" />
    <path
       sodipodi:nodetypes="csc"
       inkscape:connector-curvature="0"
       inkscape:original-d="m 9.9744903,290.36798 c -1.4447112,-0.25368 1.1773267,0.67206 3.1242817,2.6212 1.744748,1.74671 1.602328,3.18989 0.844469,3.6192"
       inkscape:path-effect="#path-effect13993"
       id="path13991"
       d="m 9.9744903,290.36798 c 1.2962917,0.48916 2.4172787,1.42965 3.1242817,2.6212 0.642132,1.08222 0.941336,2.36455 0.844469,3.6192"
       style="opacity:1;fill:none;fill-opacity:1;fill-rule:evenodd;stroke:#5b5b5b;stroke-width:1.05833328;stroke-linecap:butt;stroke-linejoin:miter;stroke-miterlimit:4;stroke-dasharray:none;stroke-dashoffset:0;stroke-opacity:1" />
    <rect
       style="opacity:1;fill:none;fill-opacity:1;fill-rule:evenodd;stroke:#5b5b5b;stroke-width:1.05833328;stroke-linecap:butt;stroke-linejoin:miter;stroke-miterlimit:4;stroke-dasharray:none;stroke-dashoffset:0;stroke-opacity:1"
       id="rect13999"
       width="15.875"
       height="14.552079"
       x="0.52916664"
       y="282.18332"
       ry="2.6458471" />
    <path
       style="opacity:1;fill:none;fill-opacity:1;fill-rule:evenodd;stroke:#5b5b5b;stroke-width:1.32291663;stroke-linecap:butt;stroke-linejoin:miter;stroke-miterlimit:4;stroke-dasharray:none;stroke-dashoffset:0;stroke-opacity:1"
       d="m -23.312349,307.53656 0,5.29167"
       id="path14065"
       inkscape:connector-curvature="0" />
    <path
       style="opacity:1;fill:none;fill-opacity:1;fill-rule:evenodd;stroke:#5b5b5b;stroke-width:0.79374999;stroke-linecap:butt;stroke-linejoin:miter;stroke-miterlimit:4;stroke-dasharray:none;stroke-dashoffset:0;stroke-opacity:1"
       d="m -21.561599,313.48304 c -0.346338,-0.44778 -0.874878,-0.75023 -1.436404,-0.82196 -0.561526,-0.0717 -1.149122,0.0881 -1.596901,0.43449 -0.447779,0.34633 -0.750226,0.87487 -0.821956,1.4364 -0.07173,0.56152 0.08814,1.14912 0.434481,1.5969 0.346338,0.44778 0.874878,0.75023 1.436404,0.82196 0.561526,0.0717 1.149122,-0.0881 1.596901,-0.43449 0.447779,-0.34633 0.750226,-0.87487 0.821956,-1.4364 0.07173,-0.56152 -0.08814,-1.14912 -0.434481,-1.5969 z"
       id="path14067"
       inkscape:path-effect="#path-effect14069"
       inkscape:original-d="m -21.561599,313.48304 c 1.761245,-0.8793 -1.654245,1.76124 -3.42078,2.64583 -1.766535,0.88459 1.659537,-1.76653 3.42078,-2.64583 z"
       inkscape:connector-curvature="0"
       sodipodi:nodetypes="sss" />
    <path
       style="opacity:1;fill:none;fill-opacity:1;fill-rule:evenodd;stroke:#5b5b5b;stroke-width:1.32291663;stroke-linecap:butt;stroke-linejoin:miter;stroke-miterlimit:4;stroke-dasharray:none;stroke-dashoffset:0;stroke-opacity:1"
       d="m -25.049331,315.76799 c -1.296292,0.48916 -2.417278,1.42965 -3.124281,2.6212 -0.642131,1.08222 -0.941336,2.36455 -0.844469,3.6192"
       id="path14071"
       inkscape:path-effect="#path-effect14073"
       inkscape:original-d="m -25.049331,315.76799 c 1.444711,-0.25368 -1.177327,0.67206 -3.124281,2.6212 -1.744748,1.74671 -1.602328,3.18989 -0.844469,3.6192"
       inkscape:connector-curvature="0"
       sodipodi:nodetypes="csc" />
    <path
       sodipodi:nodetypes="csc"
       inkscape:connector-curvature="0"
       inkscape:original-d="m -21.440891,315.76799 c -1.444711,-0.25368 1.177328,0.67206 3.124283,2.6212 1.744748,1.74671 1.602328,3.18989 0.844469,3.6192"
       inkscape:path-effect="#path-effect14077"
       id="path14075"
       d="m -21.440891,315.76799 c 1.296293,0.48916 2.41728,1.42965 3.124283,2.6212 0.642132,1.08222 0.941337,2.36455 0.844469,3.6192"
       style="opacity:1;fill:none;fill-opacity:1;fill-rule:evenodd;stroke:#5b5b5b;stroke-width:1.32291663;stroke-linecap:butt;stroke-linejoin:miter;stroke-miterlimit:4;stroke-dasharray:none;stroke-dashoffset:0;stroke-opacity:1" />
    <rect
       ry="2.6458471"
       y="307.58325"
       x="0.52916664"
       height="14.552079"
       width="15.875"
       id="rect14015"
       style="opacity:1;fill:#5b5b5b;fill-opacity:1;fill-rule:evenodd;stroke:#5b5b5b;stroke-width:1.05833328;stroke-linecap:butt;stroke-linejoin:miter;stroke-miterlimit:4;stroke-dasharray:none;stroke-dashoffset:0;stroke-opacity:1" />
    <g
       id="g14024"
       transform="matrix(1,0,0,-1,31.750001,629.71858)">
      <path
         inkscape:connector-curvature="0"
         id="path14026"
         d="m 8.1030316,307.53656 0,5.29167"
         style="opacity:1;fill:none;fill-opacity:1;fill-rule:evenodd;stroke:#5b5b5b;stroke-width:1.05833328;stroke-linecap:butt;stroke-linejoin:miter;stroke-miterlimit:4;stroke-dasharray:none;stroke-dashoffset:0;stroke-opacity:1" />
      <path
         sodipodi:nodetypes="sss"
         inkscape:connector-curvature="0"
         inkscape:original-d="m 9.8537823,313.48304 c 1.7612437,-0.8793 -1.6542456,1.76124 -3.4207803,2.64583 -1.7665348,0.88459 1.6595367,-1.76653 3.4207803,-2.64583 z"
         inkscape:path-effect="#path-effect14005"
         id="path14028"
         d="m 9.8537823,313.48304 c -0.3463383,-0.44778 -0.874878,-0.75023 -1.4364038,-0.82196 -0.5615259,-0.0717 -1.1491223,0.0881 -1.5969014,0.43448 -0.447779,0.34634 -0.7502261,0.87488 -0.8219556,1.43641 -0.071729,0.56152 0.088142,1.14912 0.4344805,1.5969 0.3463383,0.44778 0.874878,0.75023 1.4364038,0.82196 0.5615259,0.0717 1.1491223,-0.0881 1.5969014,-0.43448 0.447779,-0.34634 0.7502258,-0.87488 0.8219558,-1.43641 0.07173,-0.56152 -0.08814,-1.14912 -0.4344807,-1.5969 z"
         style="opacity:1;fill:none;fill-opacity:1;fill-rule:evenodd;stroke:#5b5b5b;stroke-width:0.66145831;stroke-linecap:butt;stroke-linejoin:miter;stroke-miterlimit:4;stroke-dasharray:none;stroke-dashoffset:0;stroke-opacity:1" />
      <path
         sodipodi:nodetypes="csc"
         inkscape:connector-curvature="0"
         inkscape:original-d="m 6.3660495,315.76799 c 1.444711,-0.25368 -1.1773265,0.67206 -3.1242805,2.6212 -1.744748,1.74671 -1.6023285,3.18989 -0.8444694,3.6192"
         inkscape:path-effect="#path-effect14009"
         id="path14030"
         d="m 6.3660495,315.76799 c -1.2962915,0.48916 -2.4172779,1.42965 -3.1242805,2.6212 -0.6421315,1.08222 -0.9413366,2.36455 -0.8444694,3.6192"
         style="opacity:1;fill:none;fill-opacity:1;fill-rule:evenodd;stroke:#5b5b5b;stroke-width:1.05833328;stroke-linecap:butt;stroke-linejoin:miter;stroke-miterlimit:4;stroke-dasharray:none;stroke-dashoffset:0;stroke-opacity:1" />
      <path
         style="opacity:1;fill:none;fill-opacity:1;fill-rule:evenodd;stroke:#5b5b5b;stroke-width:1.05833328;stroke-linecap:butt;stroke-linejoin:miter;stroke-miterlimit:4;stroke-dasharray:none;stroke-dashoffset:0;stroke-opacity:1"
         d="m 9.9744903,315.76799 c 1.2962917,0.48916 2.4172787,1.42965 3.1242817,2.6212 0.642132,1.08222 0.941336,2.36455 0.844469,3.6192"
         id="path14032"
         inkscape:path-effect="#path-effect14013"
         inkscape:original-d="m 9.9744903,315.76799 c -1.4447112,-0.25368 1.1773267,0.67206 3.1242817,2.6212 1.744748,1.74671 1.602328,3.18989 0.844469,3.6192"
         inkscape:connector-curvature="0"
         sodipodi:nodetypes="csc" />
      <rect
         ry="2.6458471"
         y="307.58325"
         x="0.52916664"
         height="14.552079"
         width="15.875"
         id="rect14034"
         style="opacity:1;fill:none;fill-opacity:1;fill-rule:evenodd;stroke:#5b5b5b;stroke-width:1.05833328;stroke-linecap:butt;stroke-linejoin:miter;stroke-miterlimit:4;stroke-dasharray:none;stroke-dashoffset:0;stroke-opacity:1" />
    </g>
    <g
       transform="rotate(90,42.862503,349.25513)"
       id="g14036">
      <path
         style="opacity:1;fill:none;fill-opacity:1;fill-rule:evenodd;stroke:#5b5b5b;stroke-width:1.05833328;stroke-linecap:butt;stroke-linejoin:miter;stroke-miterlimit:4;stroke-dasharray:none;stroke-dashoffset:0;stroke-opacity:1"
         d="m 8.1030316,307.53656 0,5.29167"
         id="path14038"
         inkscape:connector-curvature="0" />
      <path
         style="opacity:1;fill:none;fill-opacity:1;fill-rule:evenodd;stroke:#5b5b5b;stroke-width:0.66145831;stroke-linecap:butt;stroke-linejoin:miter;stroke-miterlimit:4;stroke-dasharray:none;stroke-dashoffset:0;stroke-opacity:1"
         d="m 9.8537823,313.48304 c -0.3463383,-0.44778 -0.874878,-0.75023 -1.4364038,-0.82196 -0.5615259,-0.0717 -1.1491223,0.0881 -1.5969014,0.43448 -0.447779,0.34634 -0.7502261,0.87488 -0.8219556,1.43641 -0.071729,0.56152 0.088142,1.14912 0.4344805,1.5969 0.3463383,0.44778 0.874878,0.75023 1.4364038,0.82196 0.5615259,0.0717 1.1491223,-0.0881 1.5969014,-0.43448 0.447779,-0.34634 0.7502258,-0.87488 0.8219558,-1.43641 0.07173,-0.56152 -0.08814,-1.14912 -0.4344807,-1.5969 z"
         id="path14040"
         inkscape:path-effect="#path-effect14005"
         inkscape:original-d="m 9.8537823,313.48304 c 1.7612437,-0.8793 -1.6542456,1.76124 -3.4207803,2.64583 -1.7665348,0.88459 1.6595367,-1.76653 3.4207803,-2.64583 z"
         inkscape:connector-curvature="0"
         sodipodi:nodetypes="sss" />
      <path
         style="opacity:1;fill:none;fill-opacity:1;fill-rule:evenodd;stroke:#5b5b5b;stroke-width:1.05833328;stroke-linecap:butt;stroke-linejoin:miter;stroke-miterlimit:4;stroke-dasharray:none;stroke-dashoffset:0;stroke-opacity:1"
         d="m 6.3660495,315.76799 c -1.2962915,0.48916 -2.4172779,1.42965 -3.1242805,2.6212 -0.6421315,1.08222 -0.9413366,2.36455 -0.8444694,3.6192"
         id="path14042"
         inkscape:path-effect="#path-effect14009"
         inkscape:original-d="m 6.3660495,315.76799 c 1.444711,-0.25368 -1.1773265,0.67206 -3.1242805,2.6212 -1.744748,1.74671 -1.6023285,3.18989 -0.8444694,3.6192"
         inkscape:connector-curvature="0"
         sodipodi:nodetypes="csc" />
      <path
         sodipodi:nodetypes="csc"
         inkscape:connector-curvature="0"
         inkscape:original-d="m 9.9744903,315.76799 c -1.4447112,-0.25368 1.1773267,0.67206 3.1242817,2.6212 1.744748,1.74671 1.602328,3.18989 0.844469,3.6192"
         inkscape:path-effect="#path-effect14013"
         id="path14044"
         d="m 9.9744903,315.76799 c 1.2962917,0.48916 2.4172787,1.42965 3.1242817,2.6212 0.642132,1.08222 0.941336,2.36455 0.844469,3.6192"
         style="opacity:1;fill:none;fill-opacity:1;fill-rule:evenodd;stroke:#5b5b5b;stroke-width:1.05833328;stroke-linecap:butt;stroke-linejoin:miter;stroke-miterlimit:4;stroke-dasharray:none;stroke-dashoffset:0;stroke-opacity:1" />
      <rect
         style="opacity:1;fill:none;fill-opacity:1;fill-rule:evenodd;stroke:#5b5b5b;stroke-width:1.05833328;stroke-linecap:butt;stroke-linejoin:miter;stroke-miterlimit:4;stroke-dasharray:none;stroke-dashoffset:0;stroke-opacity:1"
         id="rect14046"
         width="15.875"
         height="14.552079"
         x="0.52916664"
         y="307.58325"
         ry="2.6458471" />
    </g>
    <rect
       style="opacity:1;fill:none;fill-opacity:1;fill-rule:evenodd;stroke:#5b5b5b;stroke-width:1.05833328;stroke-linecap:butt;stroke-linejoin:miter;stroke-miterlimit:4;stroke-dasharray:none;stroke-dashoffset:0;stroke-opacity:1"
       id="rect14079"
       width="15.875"
       height="14.552079"
       x="-31.220833"
       y="307.58325"
       ry="2.6458471" />
    <g
       id="g14089"
       style="stroke:#f5f3f2">
      <path
         style="opacity:1;fill:none;fill-opacity:1;fill-rule:evenodd;stroke:#f5f3f2;stroke-width:1.32291663;stroke-linecap:butt;stroke-linejoin:miter;stroke-miterlimit:4;stroke-dasharray:none;stroke-dashoffset:0;stroke-opacity:1"
         d="m 8.4376517,307.53656 0,5.29167"
         id="path14001"
         inkscape:connector-curvature="0" />
      <path
         style="opacity:1;fill:none;fill-opacity:1;fill-rule:evenodd;stroke:#f5f3f2;stroke-width:0.79374999;stroke-linecap:butt;stroke-linejoin:miter;stroke-miterlimit:4;stroke-dasharray:none;stroke-dashoffset:0;stroke-opacity:1"
         d="m 10.188402,313.48304 c -0.3463383,-0.44778 -0.874878,-0.75023 -1.4364038,-0.82196 -0.5615258,-0.0717 -1.1491221,0.0881 -1.5969012,0.43449 -0.447779,0.34633 -0.750226,0.87487 -0.8219554,1.4364 -0.07173,0.56152 0.088142,1.14912 0.4344805,1.5969 0.3463383,0.44778 0.874878,0.75023 1.4364038,0.82196 0.5615258,0.0717 1.1491221,-0.0881 1.5969012,-0.43449 0.4477789,-0.34633 0.7502259,-0.87487 0.8219559,-1.4364 0.07173,-0.56152 -0.08814,-1.14912 -0.434481,-1.5969 z"
         id="path14003"
         inkscape:path-effect="#path-effect14056"
         inkscape:original-d="m 10.188402,313.48304 c 1.761244,-0.8793 -1.6542452,1.76124 -3.4207799,2.64583 -1.7665348,0.88459 1.6595367,-1.76653 3.4207799,-2.64583 z"
         inkscape:connector-curvature="0"
         sodipodi:nodetypes="sss" />
      <path
         style="opacity:1;fill:none;fill-opacity:1;fill-rule:evenodd;stroke:#f5f3f2;stroke-width:1.32291663;stroke-linecap:butt;stroke-linejoin:miter;stroke-miterlimit:4;stroke-dasharray:none;stroke-dashoffset:0;stroke-opacity:1"
         d="m 6.7006696,315.76799 c -1.2962915,0.48916 -2.4172779,1.42965 -3.1242805,2.6212 -0.6421315,1.08222 -0.9413366,2.36455 -0.8444694,3.6192"
         id="path14007"
         inkscape:path-effect="#path-effect14053"
         inkscape:original-d="m 6.7006696,315.76799 c 1.444711,-0.25368 -1.1773265,0.67206 -3.1242805,2.6212 -1.744748,1.74671 -1.6023285,3.18989 -0.8444694,3.6192"
         inkscape:connector-curvature="0"
         sodipodi:nodetypes="csc" />
      <path
         sodipodi:nodetypes="csc"
         inkscape:connector-curvature="0"
         inkscape:original-d="m 10.30911,315.76799 c -1.4447108,-0.25368 1.177327,0.67206 3.124282,2.6212 1.744748,1.74671 1.602328,3.18989 0.844469,3.6192"
         inkscape:path-effect="#path-effect14050"
         id="path14011"
         d="m 10.30911,315.76799 c 1.296292,0.48916 2.417279,1.42965 3.124282,2.6212 0.642132,1.08222 0.941336,2.36455 0.844469,3.6192"
         style="opacity:1;fill:none;fill-opacity:1;fill-rule:evenodd;stroke:#f5f3f2;stroke-width:1.32291663;stroke-linecap:butt;stroke-linejoin:miter;stroke-miterlimit:4;stroke-dasharray:none;stroke-dashoffset:0;stroke-opacity:1" />
    </g>
  </g>
</svg>
