<?xml version="1.0" encoding="UTF-8" standalone="no"?>
<svg xmlns="http://www.w3.org/2000/svg"
   viewBox="0 0 64 64"
   version="1.1">
    <path
       style="opacity:1;fill:none;fill-opacity:1;fill-rule:evenodd;stroke:#5b5b5b;stroke-width:1.05833328;stroke-linecap:butt;stroke-linejoin:miter;stroke-miterlimit:4;stroke-dasharray:none;stroke-dashoffset:0;stroke-opacity:1"
       d="m 8.1030316,282.13655 0,5.29167"
       id="path9067"
        />
    <path
       style="opacity:1;fill:none;fill-opacity:1;fill-rule:evenodd;stroke:#5b5b5b;stroke-width:0.66145831;stroke-linecap:butt;stroke-linejoin:miter;stroke-miterlimit:4;stroke-dasharray:none;stroke-dashoffset:0;stroke-opacity:1"
       d="m 9.8537823,288.08303 c -0.3463383,-0.44778 -0.874878,-0.75023 -1.4364038,-0.82196 -0.5615259,-0.0717 -1.1491223,0.0881 -1.5969014,0.43448 -0.447779,0.34634 -0.7502261,0.87488 -0.8219556,1.43641 -0.071729,0.56152 0.088142,1.14912 0.4344805,1.5969 0.3463383,0.44778 0.874878,0.75023 1.4364038,0.82196 0.5615259,0.0717 1.1491223,-0.0881 1.5969014,-0.43448 0.447779,-0.34634 0.7502258,-0.87488 0.8219558,-1.43641 0.07173,-0.56152 -0.08814,-1.14912 -0.4344807,-1.5969 z"
       id="path13983"
        />
    <path
       style="opacity:1;fill:none;fill-opacity:1;fill-rule:evenodd;stroke:#5b5b5b;stroke-width:1.05833328;stroke-linecap:butt;stroke-linejoin:miter;stroke-miterlimit:4;stroke-dasharray:none;stroke-dashoffset:0;stroke-opacity:1"
       d="m 6.3660495,290.36798 c -1.2962915,0.48916 -2.4172779,1.42965 -3.1242805,2.6212 -0.6421315,1.08222 -0.9413366,2.36455 -0.8444694,3.6192"
       id="path13987"
        />
    <path
       id="path13991"
       d="m 9.9744903,290.36798 c 1.2962917,0.48916 2.4172787,1.42965 3.1242817,2.6212 0.642132,1.08222 0.941336,2.36455 0.844469,3.6192"
       style="opacity:1;fill:none;fill-opacity:1;fill-rule:evenodd;stroke:#5b5b5b;stroke-width:1.05833328;stroke-linecap:butt;stroke-linejoin:miter;stroke-miterlimit:4;stroke-dasharray:none;stroke-dashoffset:0;stroke-opacity:1" />
    <rect
       style="opacity:1;fill:none;fill-opacity:1;fill-rule:evenodd;stroke:#5b5b5b;stroke-width:1.05833328;stroke-linecap:butt;stroke-linejoin:miter;stroke-miterlimit:4;stroke-dasharray:none;stroke-dashoffset:0;stroke-opacity:1"
       width="64"
       height="64"
       x="0"
       y="0"
       ry="2.6458471" />
</svg>
