<?xml version="1.0" encoding="UTF-8"?>
<svg xmlns:dc="http://purl.org/dc/elements/1.1/" xmlns:cc="http://creativecommons.org/ns#" xmlns:rdf="http://www.w3.org/1999/02/22-rdf-syntax-ns#" xmlns:svg="http://www.w3.org/2000/svg" xmlns="http://www.w3.org/2000/svg" xmlns:xlink="http://www.w3.org/1999/xlink" xmlns:sodipodi="http://sodipodi.sourceforge.net/DTD/sodipodi-0.dtd" xmlns:inkscape="http://www.inkscape.org/namespaces/inkscape" width="500" height="500" viewBox="0 0 500 500" id="svg2" version="1.1" inkscape:version="0.91 r13725" sodipodi:docname="avatar-slides.svg">
  <defs id="defs4">
    <symbol id="i">
      <path style="stroke-width:0.26458332" inkscape:connector-curvature="0" d="m 144.3525,85.074726 c -0.7402,1.094335 -1.51863,2.161161 -2.2157,3.284471 -0.22231,0.358235 -0.4655,0.706303 -0.64678,1.086943 -0.14617,0.306898 -0.22026,0.643189 -0.33039,0.964784 -0.004,0.264152 -0.10193,0.543587 -0.0133,0.792456 0.0723,0.203028 0.2695,0.352002 0.45813,0.456277 0.92319,0.510365 2.43636,-0.06419 3.34673,-0.357658 0.26033,-0.09247 0.52066,-0.184947 0.78099,-0.277421 0,0 -2.07694,1.19912 -2.07694,1.19912 l 0,0 c -0.25433,0.08901 -0.50867,0.178025 -0.76301,0.267036 -0.74723,0.23789 -3.49359,1.193721 -3.82473,-0.08714 -0.0694,-0.268261 0.0497,-0.551924 0.0746,-0.827887 0.12975,-0.332922 0.22934,-0.679241 0.38926,-0.99877 0.19035,-0.380339 0.43622,-0.730269 0.65779,-1.093306 0.64073,-1.049806 1.3266,-2.070995 1.95014,-3.131146 0,0 2.21315,-1.277762 2.21315,-1.277762 z" id="path9660"/>
      <path style="stroke-width:0.26458332" inkscape:connector-curvature="0" d="m 139.68744,86.961829 c 0.11173,0.01879 0.22288,0.04131 0.33517,0.05633 0.66528,0.08902 1.21441,0.118787 1.86128,-0.118248 0.25279,-0.09263 0.95959,-0.485121 0.73211,-0.341133 -0.44765,0.283348 -0.93024,0.507299 -1.39535,0.760947 0.77192,-0.635021 0.41345,-0.315309 1.08105,-0.952788 0,0 2.11353,-1.22025 2.11353,-1.22025 l 0,0 c -0.69881,0.653139 -0.32818,0.327326 -1.11586,0.972888 -0.82715,0.490929 -2.90471,1.994935 -4.26262,2.199738 -0.52,0.07843 -1.06942,-0.05956 -1.59024,-0.06368 0,0 2.24093,-1.293805 2.24093,-1.293805 z" id="path9668"/>
      <path style="stroke-width:0.26458332" inkscape:connector-curvature="0" d="m 145.44674,82.028673 c 0.24135,0.291994 0.52427,0.536675 0.82247,0.767702 0,0 -2.21838,1.280784 -2.21838,1.280784 l 0,0 c -0.29214,-0.240922 -0.57773,-0.487698 -0.84855,-0.752644 0,0 2.24446,-1.295842 2.24446,-1.295842 z" id="path9684"/>
    </symbol>
    <symbol id="j">
      <path style="stroke-width:0.26458332" inkscape:connector-curvature="0" d="m 141.30249,84.519648 c 1.03914,-0.09529 4.59741,-2.188773 0.73933,-0.07052 0.35238,-0.27759 0.71601,-0.557922 0.99556,-0.91295 0.032,-0.01426 0.0292,-0.06426 0.0306,-0.07207 -0.86428,0.0881 -0.21681,0.0618 2.16047,-1.241922 0.0379,-0.0208 -0.0621,0.06031 -0.0923,0.09125 -0.12446,0.127262 -0.0784,0.07994 -0.19953,0.27019 -0.54602,0.851773 -0.80015,1.839698 -1.06644,2.803995 -0.41555,1.832478 -0.81539,3.668306 -1.28935,5.486792 -0.0633,0.245221 -0.27136,1.101341 -0.38712,1.376593 -0.5412,1.286798 -2.2807,2.098953 -3.55098,2.277975 -0.78938,-0.03239 -1.56503,-0.202748 -2.33473,-0.370464 -0.13855,-0.03297 -0.2788,-0.06023 -0.41552,-0.100465 -0.0149,7.93e-4 -0.002,-0.0016 -0.003,-0.0021 0,0 2.29101,-1.322718 2.29101,-1.322718 l 0,0 c 1.3e-4,0.0013 -0.006,0.0011 5.3e-4,0.0036 0.11187,0.06225 0.24088,0.08879 0.36017,0.132424 0.74016,0.218485 1.50204,0.396055 2.27719,0.403685 1.01638,-0.149561 1.11403,-0.222199 -1.3544,1.024144 -0.13976,0.07057 0.22629,-0.218458 0.31958,-0.344193 0.4148,-0.559091 0.55418,-1.243021 0.74968,-1.896229 0.48474,-1.810184 0.87546,-3.641564 1.26695,-5.473859 0.22097,-0.926598 0.38878,-1.88423 0.89825,-2.706894 0.51031,-0.914085 1.88153,-1.456386 2.6599,-1.734045 -0.003,0.0072 -0.0207,0.07447 -0.0502,0.08337 -0.32868,0.370898 -0.72054,0.680886 -1.11291,0.980702 -1.60335,0.955831 -3.26365,2.158926 -5.12554,2.602896 0,0 2.23274,-1.289073 2.23274,-1.289073 z" id="path9743"/>
      <path style="stroke-width:0.26458332" inkscape:connector-curvature="0" d="m 144.97945,79.257067 c 0.55181,0.02233 1.10443,0.01154 1.65633,-0.0024 0.15433,-0.0046 0.0789,-0.0034 0.22625,-0.0039 0,0 -2.26328,1.306708 -2.26328,1.306708 l 0,0 c -0.14194,-5.29e-4 -0.071,7.94e-4 -0.21271,-0.0039 -0.54919,-0.01511 -1.09906,-0.02357 -1.64821,-0.0024 0,0 2.24162,-1.294198 2.24162,-1.294198 z" id="path9745"/>
    </symbol>
    <symbol id="k">
      <path style="stroke-width:0.26458332" inkscape:connector-curvature="0" d="m 141.18729,78.624123 c -1.58456,1.979097 -2.10664,4.506039 -2.57174,6.936475 -0.28394,1.916214 -0.16301,3.824783 0.12135,5.727542 0,0 -1.98913,1.148429 -1.98913,1.148429 l 0,0 c -0.17254,-1.930366 -0.24899,-3.862176 -0.007,-5.793457 0.45361,-2.319038 0.86418,-4.735446 2.21397,-6.729915 0,0 2.23274,-1.289074 2.23274,-1.289074 z" id="path11076"/>
      <path style="stroke-width:0.26458332" inkscape:connector-curvature="0" d="m 139.4232,84.813317 c 0.83819,-0.0031 1.64076,-0.218882 2.41917,-0.511511 -0.5758,0.320167 -1.12487,0.694047 -1.72741,0.960501 -0.187,0.08269 0.32038,-0.25572 0.4636,-0.401629 0.73635,-0.750131 1.30072,-1.671844 1.87147,-2.547917 0.29448,-0.475892 0.60124,-0.946494 0.85946,-1.443709 0.0134,-0.02103 0.0208,-0.04424 0.0291,-0.06717 0,0 2.28891,-1.321507 2.28891,-1.321507 l 0,0 c -0.0161,0.02646 -0.032,0.0531 -0.0493,0.07885 -0.33403,0.517424 -0.67945,1.027414 -1.02331,1.538316 -0.58025,0.852017 -1.12873,1.782054 -1.84278,2.531354 -0.75547,0.792755 -2.5758,1.651153 -3.05605,1.935194 -0.79897,0.297831 -1.62099,0.490344 -2.47446,0.543433 0,0 2.24162,-1.294199 2.24162,-1.294199 z" id="path11078"/>
      <path style="stroke-width:0.26458332" inkscape:connector-curvature="0" d="m 137.6784,86.277558 c 0.35316,-0.108759 2.78148,-2.124075 3.8814,-1.578546 0.12487,0.06194 0.22181,0.168889 0.33271,0.253333 0.76948,0.831641 0.84734,2.028357 0.93825,3.105933 0.0941,0.603893 0.13025,1.523418 0.75792,1.869276 0.37295,0.2055 0.81576,0.138269 1.21196,0.130871 0.22384,-0.05206 0.44768,-0.104121 0.67152,-0.156181 0,0 -2.10993,1.218168 -2.10993,1.218168 l 0,0 c -0.22577,0.05318 -0.45154,0.10635 -0.67731,0.159526 -0.39036,0.01476 -0.88296,0.0918 -1.25843,-0.104045 -0.63522,-0.331335 -0.64663,-1.295665 -0.7243,-1.888683 -0.10212,-1.080048 -0.1955,-2.258079 -0.99064,-3.075686 -0.32343,-0.228301 -0.31619,-0.286261 -0.70299,-0.332981 -0.97071,-0.11725 -3.12905,1.541632 0.91286,-0.895993 0,0 -2.24302,1.295008 -2.24302,1.295008 z" id="path11092"/>
    </symbol>
    <symbol id="zero">
      <path style="stroke-width:0.26458332" id="path12217" d="m 84.415818,79.555353 c -0.09279,0.03671 -0.186299,0.07166 -0.278374,0.110133 -0.260643,0.108897 -1.004133,0.517946 -0.755538,0.383805 0.579183,-0.312526 1.125754,-0.691502 1.73166,-0.948415 0.179986,-0.07632 -0.294494,0.257752 -0.431559,0.397153 -0.15513,0.157773 -0.296042,0.328927 -0.444066,0.493389 -1.4917,1.792198 -2.076511,4.058642 -2.497717,6.301431 -0.06633,0.659085 -0.290417,2.158801 0.1627,2.778104 0.09183,0.125507 0.266946,0.2018 0.422416,0.198061 0.188772,-0.0045 0.70182,-0.277434 0.521697,-0.220763 -0.462507,0.145513 -0.913569,0.325176 -1.370356,0.487765 1.749194,-2.032333 2.708878,-4.536617 3.330397,-7.109243 0.09928,-0.656254 0.479833,-1.996025 -0.02183,-2.609813 -0.197911,-0.242147 -0.435766,-0.224142 -0.709967,-0.2658 0,0 2.18721,-1.262788 2.18721,-1.262788 l 0,0 c 0.266417,0.03835 0.520951,0.01495 0.700754,0.271119 0.452824,0.64512 -0.05961,2.06511 -0.167073,2.718877 -0.695725,2.557343 -1.609739,4.998817 -3.293714,7.088063 -0.930568,0.6384 -1.842876,1.304266 -2.7917,1.915199 -0.170913,0.110048 -0.356228,0.241623 -0.559502,0.242589 -0.860538,0.0041 -0.403849,-2.74048 -0.348046,-3.113035 0.420397,-2.171332 0.904796,-4.428521 2.315554,-6.196258 0.171262,-0.194527 0.604089,-0.71804 0.841534,-0.870863 1.167736,-0.751578 2.393394,-1.543328 3.694094,-2.081154 0,0 -2.238579,1.292444 -2.238579,1.292444 z" inkscape:connector-curvature="0"/>
    </symbol>
    <symbol id="three">
      <path style="stroke-width:0.26458332" id="path12120" d="m 107.2942,81.149042 c 1.30452,-0.979064 2.8205,-2.229361 4.40604,-2.496635 0.1925,-0.03245 0.3898,-0.02212 0.58471,-0.0332 0.63084,0.04853 1.6487,0.205578 1.70216,1.018818 0.008,0.118332 -0.027,0.235632 -0.0405,0.353449 -0.13854,0.507267 -0.53889,0.811736 -0.97596,1.061106 -2.4907,1.421087 -1.60242,1.049263 -2.70866,1.497734 -0.17515,0.06297 -0.35314,0.125432 -0.53904,0.144907 -0.32025,-0.648975 1.8604,-1.30012 2.76855,-1.431805 0.60902,-0.07247 1.24698,-0.02679 1.72106,0.408524 0.15122,0.138846 0.30963,0.285822 0.39498,0.47253 0.11792,0.257985 0.13279,0.551556 0.19919,0.827334 0.0213,0.330075 0.0812,0.65991 0.064,0.990224 -0.0735,1.408679 -0.66579,3.026354 -1.8994,3.833434 -0.94596,0.61889 -1.96623,1.115965 -2.94935,1.673945 -1.20812,0.432821 -2.61614,0.681342 -3.80489,0.06228 0,0 2.21373,-1.278094 2.21373,-1.278094 l 0,0 c 1.05944,0.727086 2.46739,0.447246 3.59721,0.05762 -0.35024,0.211828 -0.70106,0.848291 -1.0507,0.635487 -0.32032,-0.194958 0.57112,-0.492276 0.80684,-0.783908 0.6776,-0.838321 1.03123,-1.955448 1.05439,-3.027494 0.007,-0.324599 -0.0675,-0.645835 -0.10119,-0.968754 -0.0861,-0.26439 -0.12757,-0.547785 -0.25835,-0.793173 -0.43153,-0.80967 -1.39288,-0.960377 -2.20558,-0.829366 -1.35597,0.254125 0.049,0.0086 1.73505,-1.168347 0.16585,-0.0028 0.3252,-0.05994 0.48123,-0.111527 0.9111,-0.357957 0.30329,-0.13236 -1.71786,1.057918 -0.10184,0.05998 0.20756,-0.114213 0.30382,-0.182782 0.31862,-0.226967 0.57629,-0.49018 0.67355,-0.879134 0.0141,-0.11816 0.0495,-0.235698 0.0423,-0.35448 -0.0482,-0.797529 -1.01141,-0.998784 -1.6429,-1.053037 -0.19638,0.01193 -0.39515,0.003 -0.58914,0.03576 -0.18713,0.03164 -0.69632,0.274129 -0.54747,0.156387 0.49661,-0.392827 1.07388,-0.671248 1.61469,-1.00058 0.28143,-0.171384 -0.54854,0.366667 -0.8062,0.572061 -0.10307,0.08216 -0.20383,0.167171 -0.30574,0.250759 0,0 -2.22055,1.282033 -2.22055,1.282033 z" inkscape:connector-curvature="0"/>
    </symbol>
    <symbol id="q">
      <path style="stroke-width:0.26458332" inkscape:connector-curvature="0" d="m 141.82888,83.197099 c -0.46575,0.05451 -0.9198,0.177687 -1.34576,0.376828 -0.1974,0.09229 -0.76633,0.415208 -0.57251,0.315616 1.63802,-0.841658 1.99385,-1.181632 0.94197,-0.345588 -0.50727,0.526881 -1.47993,1.250169 -1.66692,1.995138 0.26334,0.450556 0.94299,0.329666 1.37006,0.254222 0.3886,-0.08404 0.77861,-0.182268 1.14176,-0.348445 0.78919,-0.361138 2.56285,-1.422395 -1.04866,0.605888 0.65005,-0.479499 1.17807,-1.102151 1.58759,-1.794987 0.19107,-0.379317 0.38154,-0.763172 0.50473,-1.170807 0.0777,-0.236435 0.0101,-0.382802 -0.1974,-0.51212 -0.95765,-0.387186 -2.36452,0.860729 1.14056,-1.117298 0,0 -2.19502,1.267296 -2.19502,1.267296 l 0,0 c 0.80778,-0.474324 2.10491,-1.862778 3.31121,-1.452938 0.22832,0.127021 0.28693,0.26716 0.19392,0.514138 -0.13422,0.418065 -0.35466,0.808913 -0.55288,1.198602 -0.42659,0.689046 -0.95483,1.322001 -1.60848,1.807049 -1.4113,0.831008 -2.83372,1.902859 -4.47142,2.270381 -0.39461,0.07404 -1.19907,0.239393 -1.41467,-0.228465 0.30327,-0.800957 1.2203,-1.486754 1.80478,-2.074733 1.36424,-1.083789 0.50006,-0.436615 3.27777,-2.090676 0.63334,-0.377143 1.30847,-0.654855 2.04099,-0.763299 0,0 -2.24162,1.294198 -2.24162,1.294198 z" id="path11381"/>
      <path style="stroke-width:0.26458332" inkscape:connector-curvature="0" d="m 145.71963,81.268358 c -0.51711,0.647981 -0.92148,1.366602 -1.30661,2.097432 -0.76998,1.393714 -1.17395,2.930361 -1.46316,4.484121 -0.31277,1.926807 -0.38444,3.874894 -0.21592,5.817344 0.0764,0.397025 0.056,0.834397 0.2082,1.216638 -0.61638,0.363884 -5.37952,2.925652 0.009,-0.01643 -0.0488,-0.0077 0.0155,0.03826 0.002,0.04563 -3.87773,2.147248 -2.17068,1.148067 -0.002,-0.04219 -0.0466,-0.0079 0.0139,0.03381 0.002,0.04033 -3.67027,2.031485 -2.38077,1.265304 -0.004,-0.03308 2.7e-4,0.0109 5.3e-4,0.02183 8e-4,0.03273 0,0 -2.28191,1.317459 -2.28191,1.317459 l 0,0 c 0.003,-0.01296 0.007,-0.02593 0.01,-0.03889 5.33378,-3.244067 0.75934,-0.421468 -0.0134,0.04298 -0.0146,0.0088 0.066,-0.10038 0.0134,-0.04929 5.37244,-3.254182 0.72065,-0.390118 -0.0133,0.05087 -0.0163,0.0098 0.0702,-0.109919 0.0146,-0.0553 5.9862,-3.642235 0.0781,-0.0061 -0.0181,0.02175 -0.0519,-0.432977 -0.0311,-0.872511 -0.0517,-1.307002 -0.0131,-1.961618 0.0567,-3.923363 0.30869,-5.870908 0.26298,-1.516899 0.60803,-3.030622 1.32763,-4.405868 0.36681,-0.712955 0.76136,-1.407335 1.23493,-2.056051 0,0 2.23827,-1.29227 2.23827,-1.29227 z" id="path11383"/>
    </symbol>
    <symbol id="c">
      <path style="stroke-width:0.26458332" id="path11616" d="m 149.56367,50.262994 c -0.6146,-0.507193 -1.37709,-0.708562 -2.17184,-0.593728 -0.23856,0.03447 -0.46679,0.120417 -0.70018,0.180626 -0.22783,0.09301 -0.88882,0.414671 -0.68349,0.279045 0.44314,-0.292692 0.88548,-0.636426 1.40327,-0.754462 0.28047,-0.06394 -0.44147,0.370946 -0.63886,0.580208 -0.61363,0.650541 -0.98594,1.314947 -1.34268,2.121384 -0.0467,0.222205 -0.13088,0.439737 -0.1402,0.66661 -0.0492,1.198411 1.01015,1.634109 1.96249,1.941745 1.3472,0.174061 2.59999,-0.347221 3.80568,-0.880621 0.2651,-0.126211 0.31917,-0.148542 0.55806,-0.273058 0.0527,-0.02747 0.20822,-0.114651 0.15681,-0.08483 -5.041,2.924328 -2.73645,1.678516 -2.08775,1.197917 0.0352,-0.02381 -0.003,-0.01241 -0.004,-0.01423 -0.008,-0.0065 -0.0959,0.08407 0.0234,-0.02868 0,0 2.27985,-1.316276 2.27985,-1.316276 l 0,0 c -0.0938,0.103772 -0.0153,0.0118 -0.0132,0.02281 -0.002,0.0063 10e-4,0.01617 -0.005,0.01894 -0.9612,0.676307 -2.01735,1.226886 -3.07994,1.730812 -1.19608,0.516392 -2.43244,1.002458 -3.76212,0.855472 -0.98769,-0.324001 -2.04427,-0.67877 -1.94538,-1.951622 0.0181,-0.233191 0.11087,-0.454457 0.1663,-0.681684 0.11047,-0.241834 0.20192,-0.493289 0.33139,-0.725503 1.08721,-1.950024 3.06807,-3.12997 5.11352,-3.915812 0.24019,-0.06413 0.47496,-0.153906 0.72056,-0.192397 0.83511,-0.130879 1.60514,0.06002 2.29695,0.521504 0,0 -2.24447,1.295842 -2.24447,1.295842 z" inkscape:connector-curvature="0"/>
    </symbol>
    <symbol id="n">
      <path style="stroke-width:0.26458332" id="path11127" d="m 239.80757,48.971308 c 0.78505,-0.518294 1.47904,-1.159197 2.22525,-1.730613 0.24979,-0.182649 0.49436,-0.374054 0.75536,-0.540877 0.73786,-0.353655 1.43498,-0.809371 2.21357,-1.060966 0.12917,-0.04174 -0.0837,0.258281 -0.12734,0.386824 -0.0918,0.270396 -0.18884,0.539006 -0.27894,0.809971 -0.3428,1.030944 -0.67983,2.064145 -1.00829,3.099756 -0.36722,1.129461 -0.72772,2.261192 -1.07223,3.39781 -0.31973,1.087253 -0.0554,0.273262 -2.34329,1.536092 0.21713,-0.921713 2.28928,-2.147779 2.27218,-1.101196 0.0214,0.965904 -1.58438,1.330304 -2.5247,1.405816 4.74909,-2.619994 2.10576,-1.976673 2.24881,-1.06362 -0.29744,0.502455 -2.53924,2.075492 -2.2294,0.951468 0.23268,-0.761624 0.67074,-1.451369 1.07063,-2.134602 0.72782,-1.356567 1.61204,-2.616301 2.57185,-3.81679 0.63132,-0.587962 1.12145,-1.427411 1.8821,-1.876306 0.8167,-0.481978 1.64678,-0.940927 2.47018,-1.41139 1.17297,-0.477824 0.58298,1.506871 0.48635,1.954622 -0.43071,1.758358 -1.04528,3.462708 -1.59145,5.186601 -0.12797,0.481949 -0.32047,0.949695 -0.42262,1.438762 -0.0116,0.07551 -0.0164,0.152331 -2.7e-4,0.227237 0.0209,0.02684 0.0754,0.01445 0.10575,0.01558 0.36133,-0.08612 0.70275,-0.238834 1.04933,-0.370803 0.14362,-0.05463 0.28728,-0.109193 0.43103,-0.163486 0.0859,-0.01212 0.18058,-2.64e-4 0.26814,0.0024 0.0395,2.65e-4 0.0789,5.3e-4 0.11833,0.0011 0,0 -2.26017,1.304912 -2.26017,1.304912 l 0,0 c -0.0399,-4.5e-5 -0.0799,-8.8e-5 -0.11981,-1.33e-4 -0.0968,0.0019 -0.19694,-0.0019 -0.29257,0.01167 -0.13003,0.0444 -0.25914,0.09145 -0.38815,0.138729 -0.35806,0.132665 -0.70824,0.288986 -1.07764,0.387147 -0.0232,0.0011 -0.10728,0.02529 -0.12245,-0.0059 -0.005,-0.08052 0.006,-0.160798 0.022,-0.239702 0.13081,-0.525976 0.44271,-1.003213 0.57853,-1.528776 0.62681,-1.708846 1.24733,-3.427867 1.63269,-5.210415 0.0661,-0.4786 0.46331,-2.298296 -0.63134,-1.870914 3.36513,-1.968352 2.34829,-1.477195 1.67443,-0.931945 -0.6353,0.514054 -1.18116,1.129734 -1.72518,1.736154 -0.94801,1.193728 -1.84114,2.433188 -2.53483,3.795416 -0.3542,0.66008 -0.76732,1.320202 -0.93683,2.057352 -0.24614,0.98443 -0.0676,1.474632 -2.3173,1.673569 -0.0586,-0.936355 3.28027,-2.051105 2.32356,-1.576239 1.13546,-0.0013 -2.19219,2.104554 -2.03898,1.229027 0.0915,-0.923145 2.65093,-2.452942 2.28016,-1.527099 -2.8157,1.69577 -2.60631,2.147406 -2.15714,1.062234 0.47485,-1.159704 0.90198,-2.338727 1.29731,-3.527759 0.32815,-1.012356 0.66725,-2.024409 0.93221,-3.055829 0.0635,-0.247152 0.11149,-0.498036 0.16918,-0.746604 0.0283,-0.121816 -0.009,-0.286406 0.0887,-0.364527 0.71928,-0.575397 1.52906,-1.027496 2.2936,-1.541245 -0.29418,0.18461 -0.57209,0.394065 -0.85328,0.597402 -0.73195,0.552194 -1.41094,1.172581 -2.16389,1.695191 0,0 -2.24302,1.295009 -2.24302,1.295009 z" inkscape:connector-curvature="0"/>
    </symbol>
    <symbol id="cQ">
      <path inkscape:connector-curvature="0" d="m 135.23385,93.622593 c 0.24316,-0.344567 0.5546,-0.631661 0.91938,-0.844378 2.50834,-1.462731 1.61651,-1.122431 2.88227,-1.569807 1.23526,-0.282356 2.35353,0.121586 3.49028,0.568978 0.87352,0.364387 1.76518,0.743231 2.70858,0.888349 0.81172,0.124862 1.19732,0.06287 2.00684,0.01942 0,0 -2.0326,1.173527 -2.0326,1.173527 l 0,0 c -0.77746,0.03805 -1.22423,0.09785 -2.00489,-0.02053 -0.94914,-0.143939 -1.86515,-0.51004 -2.74951,-0.864722 -1.17705,-0.413229 -2.3484,-0.803796 -3.60465,-0.502949 -1.04233,0.376279 -0.65796,0.263734 1.50413,-0.962684 0.099,-0.05615 -0.19196,0.122674 -0.28324,0.190651 -0.23404,0.174294 -0.43793,0.38146 -0.59357,0.629152 0,0 -2.24302,1.295009 -2.24302,1.295009 z" id="path10313"/>
      <path inkscape:connector-curvature="0" d="m 141.80152,90.805482 c 0.0931,-0.04093 0.18707,-0.08015 0.27944,-0.122791 0.23406,-0.108053 0.91661,-0.472382 0.68828,-0.35269 -0.57278,0.300266 -1.11148,0.675217 -1.71564,0.905966 -0.2132,0.08143 0.35693,-0.286131 0.51748,-0.448345 0.21017,-0.212346 0.39479,-0.44854 0.59218,-0.672811 1.06359,-1.321933 1.86062,-2.855296 2.37713,-4.471091 0.1278,-0.399822 0.25623,-0.802963 0.32069,-1.217737 0.0637,-0.40957 0.041,-0.827958 0.0616,-1.241938 -0.0512,-0.376203 -0.0472,-0.764106 -0.15344,-1.128612 -0.31225,-1.071663 -1.47198,-2.751992 -2.74573,-2.763142 -0.29898,-0.0026 -0.57737,0.155705 -0.86605,0.233559 0.40474,-0.209328 0.77124,-0.73478 1.21421,-0.627984 0.34058,0.08211 -0.52156,0.471451 -0.7453,0.741035 -0.24286,0.292621 -0.45831,0.609264 -0.6486,0.938498 -0.65061,1.125643 -0.92214,2.346002 -1.19615,3.60004 -0.11389,1.393187 -0.39257,3.548335 0.43188,4.808336 0.0947,0.144788 0.24358,0.245817 0.36536,0.368724 0.14294,0.03946 0.28055,0.116641 0.42883,0.118395 0.2806,0.0033 0.7617,-0.206854 0.9959,-0.322585 0.16754,-0.08279 0.65119,-0.367109 0.48792,-0.276175 -1.82007,1.013685 -2.27765,1.360967 -1.41253,0.739082 0.29383,-0.242289 0.41946,-0.491233 0.54834,-0.839451 0,0 2.19347,-1.266399 2.19347,-1.266399 l 0,0 c -0.11752,0.363569 -0.2537,0.597386 -0.5577,0.844859 -1.14491,0.811951 -0.3049,0.230783 -2.91589,1.759929 -0.42527,0.24906 -0.99794,0.623898 -1.51647,0.617609 -0.14292,-0.0019 -0.27239,-0.08672 -0.40859,-0.13008 -0.10928,-0.13013 -0.24633,-0.241284 -0.32783,-0.390392 -0.70925,-1.297676 -0.36058,-3.51146 -0.26356,-4.905518 0.35054,-1.604637 0.70904,-3.19486 1.77769,-4.499819 0.98154,-1.198584 2.18431,-1.608778 3.60354,-2.464284 0.29298,-0.08033 0.57518,-0.245695 0.87894,-0.240996 1.20316,0.01863 2.39091,1.80199 2.66981,2.806975 0.10258,0.369649 0.0847,0.762545 0.1271,1.143818 -0.0225,0.415157 5.3e-4,0.835326 -0.0677,1.24547 -0.0699,0.420325 -0.21248,0.825825 -0.34391,1.231141 -0.50884,1.569172 -1.24881,3.08288 -2.24891,4.397065 -0.18005,0.214254 -0.34652,0.440687 -0.54014,0.642766 -1.11937,1.168307 -2.6846,1.823632 -4.12138,2.530382 0,0 2.23575,-1.290809 2.23575,-1.290809 z" id="path10325"/>
    </symbol>
    <symbol id="F">
      <path style="stroke-width:0.26458332" inkscape:connector-curvature="0" d="m 116.0965,86.233132 c -0.60694,1.792454 -0.911,3.686141 -0.94118,5.57761 -0.008,0.502682 0.0199,1.005292 0.0299,1.50794 0.16613,1.699297 0.31435,3.469664 1.02821,5.045892 0.0351,0.05975 0.0702,0.1195 0.10524,0.17925 0,0 -2.23583,1.290857 -2.23583,1.290857 l 0,0 c -0.0228,-0.06682 -0.0457,-0.133643 -0.0685,-0.200464 -0.44443,-1.706308 -0.60689,-3.468322 -0.72079,-5.22338 -0.0165,-0.498888 -0.0522,-0.997514 -0.0494,-1.496666 0.0102,-1.820767 0.25886,-3.640055 0.65698,-5.413531 0,0 2.19539,-1.267508 2.19539,-1.267508 z" id="path9170"/>
      <path style="stroke-width:0.26458332" inkscape:connector-curvature="0" d="m 113.19291,84.445216 c 1.10136,1.125027 2.79065,1.269944 4.27444,1.380857 1.23738,0.03604 2.47763,-0.01185 3.707,-0.157583 1.10904,-0.14292 1.52792,-0.700468 -1.95644,1.235999 -0.0125,-2.65e-4 -0.025,-5.29e-4 -0.0374,-0.0011 -0.004,2.65e-4 -0.008,5.3e-4 -0.0116,0.0011 0,0 2.2891,-1.321613 2.2891,-1.321613 l 0,0 c 0.002,7.94e-4 0.004,0.0019 0.005,0.0027 0.009,0.0024 0.0179,0.0047 0.0268,0.0071 -1.66313,0.998444 -1.45403,1.287899 -2.53953,1.359749 -1.16318,0.06916 -2.33021,0.07853 -3.49455,0.03493 -1.54458,-0.09896 -3.23939,-0.25028 -4.49487,-1.253588 0,0 2.23184,-1.288555 2.23184,-1.288555 z" id="path9174"/>
      <path style="stroke-width:0.26458332" inkscape:connector-curvature="0" d="m 114.87119,91.729364 c 1.07519,0.150958 2.17164,0.07932 3.25273,0.02647 0.34099,-0.0227 0.6833,-0.03478 1.02317,-0.07258 0.0687,-0.0094 0.14008,-0.0013 0.20902,0.0021 0.23493,0.0056 0.46987,0.0038 0.70478,-0.0016 0.0504,-0.0011 0.1008,-0.0028 0.15116,-0.0053 5.2e-4,-6.6e-5 10e-4,-1.32e-4 0.002,-1.99e-4 0,0 -2.29095,1.322682 -2.29095,1.322682 l 0,0 c -5.3e-4,-6.7e-5 -8e-4,-1.35e-4 -0.001,-2.01e-4 -0.0441,-0.0024 -0.0882,-0.0046 -0.13243,-0.0055 -0.2326,-0.0061 -0.46524,-0.0073 -0.69788,-0.0024 -0.0752,0.0032 -0.15047,0.0061 -0.2257,0.0075 -0.30443,0.0013 -0.60884,0.0061 -0.91325,0.0091 -1.10088,0.01413 -2.20621,0.07234 -3.30483,0.0036 0,0 2.2235,-1.283737 2.2235,-1.283737 z" id="path9176"/>
    </symbol>
    <symbol id="zeta">
      <path style="stroke-width:0.26458332" inkscape:connector-curvature="0" d="m 140.07701,76.374609 c 0.32176,1.340427 1.0073,2.53101 1.82464,3.624993 0.41321,0.432538 0.7534,1.000617 1.27054,1.325814 0.1324,0.07024 0.27149,0.06881 0.41626,0.05788 0.0543,-0.0042 0.10808,-0.01214 0.16166,-0.02143 0.41034,0.686641 -1.64863,1.306301 -2.55643,1.313381 -0.22667,-0.01365 -0.43018,-0.01077 -0.64128,0.07347 -0.0341,0.015 -0.13461,0.06373 -0.1024,0.04497 4.80344,-2.798757 0.59542,-0.205962 -0.57632,0.319429 0.0535,-0.06629 -0.2815,0.126367 -0.21453,0.08784 0.72434,-0.416705 2.88925,-1.680437 2.17498,-1.24669 -0.77685,0.471757 -1.60905,0.852892 -2.3628,1.360749 -0.65847,0.443664 2.65101,-1.707602 2.0863,-1.149453 -0.36648,0.284573 -0.64594,0.666306 -0.93609,1.024409 -0.4924,0.725027 -0.89707,1.499716 -1.24352,2.303557 -0.25892,0.750591 -0.40352,1.539822 -0.54222,2.320986 -0.12228,0.540999 -0.0811,1.06951 0.0311,1.604931 0.047,0.260432 0.16146,0.538676 0.32962,0.74653 0.14561,0.09394 0.18887,0.28126 0.32017,0.384619 0.13023,0.06976 0.28422,0.07265 0.429,0.07557 0.18157,0.0042 0.36328,0.0046 0.54491,0.0034 0.22989,0.0011 0.45973,-0.0027 0.68963,-5.3e-4 0.14081,-1.82e-4 0.28163,-0.0024 0.42237,-0.007 0.13637,0.0048 0.27281,0.0049 0.40924,0.0028 0.14578,0.0013 0.29155,7.94e-4 0.43733,7.94e-4 0.12909,-0.0019 0.2581,5.29e-4 0.38721,-0.0016 0.0508,-7.93e-4 0.10144,-0.0045 0.15217,-0.0013 0.0926,-2.64e-4 0.18514,0.0013 0.27773,0.0019 0.11315,0.08571 0.23052,0.158936 0.36173,0.216406 0.14863,0.02766 0.24778,0.03828 0.33644,0.168613 0.12297,0.07024 0.19767,0.174919 0.26867,0.295064 0.0545,0.210629 0.0335,0.430638 0.0336,0.645803 -0.002,0.834771 -0.44779,1.581229 -0.77916,2.322144 0,0 -2.06877,1.194404 -2.06877,1.194404 l 0,0 c 0.28842,-0.705877 0.6455,-1.433947 0.59766,-2.217351 -0.003,-0.209802 -8e-4,-0.427525 -0.0605,-0.630288 -0.0638,-0.127355 -0.14101,-0.22705 -0.26849,-0.295169 -0.0833,-0.133697 -0.18655,-0.146463 -0.33556,-0.169125 -0.1263,-0.06418 -0.24746,-0.134091 -0.36094,-0.21686 -0.0948,5.29e-4 -0.18944,0.0021 -0.28422,0.0019 -0.0493,0.0026 -0.0984,2.65e-4 -0.14782,-0.0013 -0.12721,-0.0021 -0.25432,2.65e-4 -0.38151,-0.0016 -0.14671,1.5e-5 -0.2934,-5.3e-4 -0.44011,7.93e-4 -0.13964,-0.0024 -0.27927,-0.0016 -0.41886,0.0028 -0.13268,-0.0046 -0.26543,-0.0072 -0.39819,-0.0069 -0.23062,0.0024 -0.46122,-0.0011 -0.69183,0.0019 -0.18696,5.29e-4 -0.37385,0.0052 -0.5608,0.0058 -0.14229,-0.0097 -0.2961,-0.01339 -0.42488,-0.07795 -0.13129,-0.09905 -0.15881,-0.300765 -0.30827,-0.39149 -0.16587,-0.211119 -0.26763,-0.495427 -0.31076,-0.757415 -0.0829,-0.549537 -0.10974,-1.086763 0.0206,-1.634805 0.13461,-0.785019 0.29923,-1.574205 0.55516,-2.32846 0.35207,-0.793973 0.74613,-1.564484 1.22284,-2.291615 0.26776,-0.345985 0.52746,-0.715563 0.87349,-0.988271 0.76275,-0.744765 -0.65909,0.630748 2.43696,-1.462046 0.69003,-0.466431 -2.87428,1.684277 -2.16242,1.25189 0.66656,-0.404879 1.65801,-1.12545 2.56561,-1.454275 0.0726,-0.03203 0.28457,-0.140282 0.21604,-0.100211 -4.65664,2.723058 -0.75397,0.361675 0.46103,-0.263228 0.21292,-0.08635 0.41939,-0.08615 0.64832,-0.07754 1.09439,0.0093 -0.78659,0.422965 -2.00058,1.317606 -0.0491,0.0057 -0.0983,0.01053 -0.14772,0.01339 -0.14338,0.0083 -0.2737,0.01558 -0.40004,-0.06725 -0.48063,-0.350565 -0.72102,-0.988415 -1.12807,-1.408068 -0.78434,-1.113009 -1.43569,-2.293741 -1.92292,-3.56825 0,0 2.21493,-1.278792 2.21493,-1.278792 z" id="path11672"/>
    </symbol>
    <symbol id="Delta">
      <path style="stroke-width:0.26458332" id="path12171" d="m 108.09552,54.344999 c 2.238,-2.566615 4.08271,-5.43274 5.8246,-8.349012 0.64194,-1.135745 1.31511,-2.25941 1.86894,-3.442356 0.20167,-0.822299 2.7364,-2.211832 2.27651,-1.378651 -2.70449,1.523709 -3.24976,1.807821 0.0114,-0.01992 -0.0538,0.07482 -5.88,3.301373 -0.006,0.009 -0.0239,0.108122 0.0476,0.321882 0.0727,0.450533 0.062,0.748096 0.14458,1.490871 0.26712,2.231742 0.0827,0.775089 0.17188,1.548669 0.26862,2.322808 0.0916,0.802225 0.12156,1.606627 0.221,2.407955 0.10088,0.648758 0.16759,1.299951 0.19486,1.955726 0.0154,0.58752 -0.0184,1.180605 0.0577,1.764604 0.0643,0.30272 0.13464,0.603938 0.22178,0.900943 0.0504,0.117999 0.0283,0.244618 0.0296,0.370176 0.001,0.08679 0.004,0.173556 0.009,0.260239 -0.008,0.07834 -0.005,0.157263 -0.002,0.235794 2.7e-4,0.01482 0.002,0.02955 0.003,0.0443 -1.93343,1.355092 -1.61543,1.280369 -2.8023,1.306502 -0.27325,0.0046 -0.54652,-5.29e-4 -0.81979,0.0013 -0.31913,2.43e-4 -0.63822,0.0032 -0.95734,7.93e-4 -0.3285,0.0013 -0.65698,-0.0019 -0.98547,0.0011 -0.25653,0.0028 -0.51317,0.005 -0.76966,-5.29e-4 -0.27712,-0.0021 -0.55425,0.0044 -0.83135,0.0033 -0.25217,-0.0021 -0.50436,5.29e-4 -0.75653,-7.94e-4 -0.241,0.0013 -0.48199,-0.0016 -0.72299,0.0019 -0.23058,1.09e-4 -0.46116,-0.0024 -0.69174,-0.0013 -0.22374,-2.46e-4 -0.44754,-7.93e-4 -0.67127,0.0024 -0.13443,0.0011 -0.26883,2.64e-4 -0.40326,0.0035 -0.15735,-0.116145 -0.33098,-0.180126 -0.52057,-0.222078 -0.16076,-0.03389 -0.32442,-0.04373 -0.48823,-0.04489 -0.0817,0.0028 -0.16333,1.46e-4 -0.24508,0.0011 -0.0569,5.3e-4 -0.11352,0.0048 -0.17028,0.0016 -0.12294,-0.0019 -0.2458,-0.0032 -0.36876,-0.0013 -0.0462,7.94e-4 -0.0923,0.0021 -0.13844,0.0039 -0.0393,-0.0024 -0.0789,-0.0029 -0.1183,-0.0029 -0.0463,6.9e-5 -0.0926,0.0013 -0.13889,0.0027 -0.004,-6e-6 -0.008,5.29e-4 -0.0115,5.29e-4 0,0 2.29133,-1.322901 2.29133,-1.322901 l 0,0 c 0.003,2.04e-4 0.006,7.94e-4 0.009,5.29e-4 0.0431,0.0016 0.0863,0.0027 0.12949,0.0027 0.0428,-5.3e-5 0.0857,-2.64e-4 0.12836,-0.0029 0.0416,0.0019 0.0832,0.0033 0.12481,0.0039 0.12454,0.0021 0.24899,5.29e-4 0.37352,-0.0013 0.0559,-0.0028 0.1117,-5.29e-4 0.1677,-3.9e-5 0.0809,-1.09e-4 0.16176,-0.0053 0.24261,5.29e-4 0.15902,0.0076 0.31899,0.01238 0.47383,0.05321 0.19261,0.04426 0.37126,0.106572 0.53944,0.211185 0.13036,0.0034 0.26069,0.0024 0.39105,0.0035 0.22098,0.0033 0.44202,0.0026 0.66302,0.0024 0.232,0.0011 0.46401,-0.0013 0.69602,-0.0013 0.23885,0.0035 0.47769,2.64e-4 0.71654,0.0019 0.25301,-0.0011 0.50604,0.0013 0.75904,-7.94e-4 0.27334,-0.0011 0.54669,0.0055 0.82005,0.0033 0.25724,-0.0052 0.51461,-0.0037 0.77188,-5.29e-4 0.3272,0.003 0.65438,-1.45e-4 0.98159,0.0011 0.31913,-0.0024 0.63823,5.3e-4 0.95737,-7.93e-4 0.27972,7.9e-5 0.55937,-0.0067 0.83902,-0.01238 1.08919,-0.0122 1.18473,-0.11938 -1.75529,1.324817 0.001,-0.01593 0.003,-0.03185 0.003,-0.04783 0.003,-0.07807 0.007,-0.156538 -5.3e-4,-0.234455 0.007,-0.09043 0.0105,-0.181055 0.0111,-0.271741 -5.3e-4,-0.124002 -0.007,-0.246779 -0.0327,-0.368387 -0.0541,-0.309412 -0.11997,-0.616384 -0.18109,-0.924433 -0.0835,-0.585293 0.0285,-1.185699 -0.0401,-1.774767 -0.0268,-0.659506 -0.0787,-1.317627 -0.16664,-1.972016 -0.10554,-0.801002 -0.12917,-1.606145 -0.21946,-2.408844 -0.10268,-0.772059 -0.19974,-1.542864 -0.27733,-2.317784 -0.0992,-0.735756 -0.19373,-1.47302 -0.31368,-2.204855 -0.0329,-0.11703 -0.16374,-0.344249 -0.10644,-0.431025 0.77422,-0.459552 1.54762,-0.920469 2.32265,-1.378659 0.0152,-0.009 -0.0179,0.03235 -0.0331,0.04144 -3.40794,2.042465 -2.85348,2.063417 -2.28334,1.328132 0.77427,-0.459629 1.54779,-0.920538 2.32282,-1.378884 0.0157,-0.0093 -0.0186,0.03318 -0.0342,0.04255 -1.14875,0.690155 -2.89396,2.086999 -2.30957,1.361757 0.59058,-0.792866 2.93501,-2.244555 2.24301,-1.230693 -0.73722,1.231051 -1.49853,2.44752 -2.25626,3.665977 -1.75674,2.79468 -3.50903,5.599684 -5.55656,8.194259 0,0 -2.11932,1.22359 -2.11932,1.22359 z" inkscape:connector-curvature="0"/>
    </symbol>
  </defs>
  <sodipodi:namedview id="base" pagecolor="#ffffff" bordercolor="#666666" borderopacity="1.0" inkscape:pageopacity="0.0" inkscape:pageshadow="2" inkscape:zoom="1" inkscape:cx="73.07239" inkscape:cy="207.19095" inkscape:document-units="mm" inkscape:current-layer="layer1" showgrid="false" inkscape:window-width="1440" inkscape:window-height="851" inkscape:window-x="0" inkscape:window-y="34" inkscape:window-maximized="0">
    <inkscape:grid type="xygrid" id="grid8876"/>
  </sodipodi:namedview>
  <metadata id="metadata7">
    <rdf:RDF>
      <cc:Work rdf:about="">
        <dc:format>image/svg+xml</dc:format>
        <dc:type rdf:resource="http://purl.org/dc/dcmitype/StillImage"/>
        <dc:title/>
      </cc:Work>
    </rdf:RDF>
  </metadata>
  
  <g id="g10367" inkscape:groupmode="layer" inkscape:label="dia-2" sodipodi:insensitive="true">
    <ellipse style="opacity:1;fill:#f5f3f2;fill-opacity:1;stroke:#cccccc;stroke-width:2.29900002;stroke-miterlimit:4;stroke-dasharray:none;stroke-dashoffset:0;stroke-opacity:1" id="path10898" cx="241.5" cy="208" rx="111.5" ry="93"/>
    <rect style="opacity:1;fill:#f5f3f2;fill-opacity:1;fill-rule:evenodd;stroke:#cccccc;stroke-width:1.00157475;stroke-linecap:butt;stroke-linejoin:miter;stroke-miterlimit:4;stroke-dasharray:none;stroke-dashoffset:0;stroke-opacity:1" id="rect10894" width="324" height="59" x="72" y="421" ry="10"/>
    <path inkscape:connector-curvature="0" d="m 264.44649,75.953738 c 5.31156,14.420419 11.85968,28.356582 18.97007,41.969632 4.53094,8.31418 9.70009,16.29549 15.54573,23.74691 0.81908,0.81997 1.41527,1.96766 2.39191,2.63075 0.005,-0.005 0.01,-0.01 0.015,-0.0136 0,0 -4.01823,7.1543 -4.01823,7.1543 l 0,0 c -0.002,8.2e-4 -0.005,1.5e-4 -0.007,4.7e-4 -0.74197,-1.03284 -1.36881,-2.14547 -2.06884,-3.20595 -5.18988,-8.33191 -10.16236,-16.80135 -14.49455,-25.61851 -1.76856,-3.54086 -6.81195,-13.62529 -8.49664,-17.05267 -3.27051,-6.65365 -6.43512,-13.380559 -10.06827,-19.84995 -0.52943,-0.942762 -1.13276,-1.842103 -1.69913,-2.763159 0,0 3.93039,-6.997906 3.93039,-6.997906 z" id="path10375" style="opacity:1;fill:#cccccc;fill-opacity:1;stroke:none;stroke-width:0.82095635;stroke-linecap:butt;stroke-linejoin:miter;stroke-miterlimit:4;stroke-dasharray:none;stroke-dashoffset:0;stroke-opacity:1"/>
    <path inkscape:connector-curvature="0" d="m 251.87337,93.205792 c 1.84281,-4.778722 3.25421,-9.700593 4.55467,-14.649335 0.10513,-1.264051 0.90457,-2.561269 0.87287,-3.833735 9.82359,-3.403406 9.71918,-2.924403 7.0577,-0.934569 -0.1981,0.137363 -0.32439,0.187753 -0.26879,0.452438 0.33369,1.685735 2.55402,2.426344 3.89048,3.071009 2.55441,0.995549 5.22847,1.647815 7.92047,2.143254 0.38116,0.06387 0.76467,0.136632 1.1508,0.145966 -7.9437,1.729624 -10.04281,3.186855 -7.51804,1.499083 0,0 7.88651,-1.858054 7.88651,-1.858054 l 0,0 c -2.50895,1.839246 -0.15951,0.168132 -8.35425,2.240415 -0.32338,-0.03686 -0.64165,-0.121871 -0.95985,-0.190955 -2.57073,-0.613517 -5.11825,-1.333923 -7.61036,-2.216303 -1.44865,-0.642661 -3.77824,-1.272515 -4.3455,-2.963801 -0.0879,-0.282335 0.0506,-0.31069 0.26722,-0.452067 2.96205,-2.082126 0.41802,-1.849139 8.86659,-2.817178 -0.70342,1.211953 -0.88467,2.712169 -1.47653,3.975949 -1.62147,4.795026 -3.16869,9.620657 -4.23675,14.574431 0,0 -7.69724,1.813468 -7.69724,1.813468 z" id="path10377" style="opacity:1;fill:#cccccc;fill-opacity:1;stroke:none;stroke-width:0.82095635;stroke-linecap:butt;stroke-linejoin:miter;stroke-miterlimit:4;stroke-dasharray:none;stroke-dashoffset:0;stroke-opacity:1"/>
    <g style="fill:#cccccc" transform="matrix(-0.82095641,0,0,0.82095641,427.92824,-46.392688)" id="g10379">
      <path inkscape:connector-curvature="0" d="m 257.98622,142.93868 c 6.46996,17.56539 14.44617,34.54091 23.10728,51.12285 5.51909,10.12743 11.81559,19.8494 18.93612,28.92591 0.99771,0.9988 1.72393,2.39679 2.91356,3.20449 0.006,-0.006 0.0119,-0.0117 0.0183,-0.0166 0,0 -4.89458,8.71459 -4.89458,8.71459 l 0,0 c -0.003,0.001 -0.006,1.9e-4 -0.009,5.7e-4 -0.90378,-1.25809 -1.66733,-2.61337 -2.52003,-3.90513 -6.32175,-10.14903 -12.37869,-20.46559 -17.65569,-31.20569 -2.15427,-4.31309 -8.29758,-16.59685 -10.34968,-20.77172 -3.98378,-8.10475 -7.83857,-16.29874 -12.26408,-24.17905 -0.64489,-1.14837 -1.3798,-2.24385 -2.0697,-3.36578 0,0 4.78758,-8.52409 4.78758,-8.52409 z" id="path10381" style="opacity:1;fill:#cccccc;fill-opacity:1;stroke:none;stroke-width:0.99999994;stroke-linecap:butt;stroke-linejoin:miter;stroke-miterlimit:4;stroke-dasharray:none;stroke-dashoffset:0;stroke-opacity:1"/>
      <path inkscape:connector-curvature="0" d="m 242.671,163.95326 c 2.24471,-5.82092 3.96393,-11.81621 5.54801,-17.84423 0.12806,-1.53973 1.10185,-3.11986 1.06323,-4.66984 11.96604,-4.14566 11.83886,-3.56219 8.59693,-1.13839 -0.24131,0.16732 -0.39514,0.2287 -0.32741,0.55111 0.40646,2.05338 3.11103,2.95551 4.73896,3.74077 3.1115,1.21267 6.36875,2.00719 9.64785,2.61068 0.46429,0.0778 0.93144,0.16643 1.40178,0.1778 -9.67615,2.10684 -12.23306,3.88188 -9.15766,1.82602 0,0 9.60649,-2.26328 9.60649,-2.26328 l 0,0 c -3.05612,2.24037 -0.19429,0.2048 -10.17624,2.72903 -0.3939,-0.0449 -0.78158,-0.14845 -1.16918,-0.2326 -3.13138,-0.74732 -6.2345,-1.62484 -9.27011,-2.69966 -1.76459,-0.78282 -4.60225,-1.55004 -5.29322,-3.61018 -0.10712,-0.34391 0.0616,-0.37845 0.3255,-0.55066 3.60805,-2.53622 0.50918,-2.25242 10.80031,-3.43158 -0.85682,1.47627 -1.0776,3.30367 -1.79855,4.84307 -1.97509,5.84078 -3.85975,11.71884 -5.16074,17.75299 0,0 -9.37595,2.20897 -9.37595,2.20897 z" id="path10383" style="opacity:1;fill:#cccccc;fill-opacity:1;stroke:none;stroke-width:0.99999994;stroke-linecap:butt;stroke-linejoin:miter;stroke-miterlimit:4;stroke-dasharray:none;stroke-dashoffset:0;stroke-opacity:1"/>
    </g>
    <path inkscape:connector-curvature="0" d="m 193.92591,195.91394 c 2.10389,4.93135 4.82156,9.64715 8.15724,13.8541 1.19343,1.50515 2.51536,2.90377 3.77304,4.35566 1.80286,1.4957 3.50458,3.12247 5.40855,4.4871 6.87829,4.92985 13.6906,8.12547 22.10673,9.4624 3.0248,0.4805 6.09783,0.81581 9.15929,0.72797 3.20865,-0.0921 6.36434,-0.84314 9.5465,-1.26471 7.99568,-1.71042 15.54778,-4.80096 22.85154,-8.40367 1.62101,-0.79959 3.16402,-1.75316 4.79591,-2.53033 0.89749,-0.42741 -1.62195,1.2508 -2.58936,1.47949 -0.82212,0.19434 1.42092,-0.91415 2.13138,-1.37122 0.74355,-0.80574 2.59315,-1.37041 2.9403,-2.54761 -0.10617,-0.0552 -0.2035,-4e-5 -0.30414,0.0474 18.92248,-10.90568 -0.69383,0.5369 0.0278,-0.0226 -0.31142,0.007 -1.22959,0.003 -1.64797,8.2e-4 -2.34327,0.18517 -4.68181,0.44222 -7.02131,0.6762 -0.69749,0.071 -1.39521,0.13995 -2.09238,0.21419 -0.15393,0.0113 -0.26078,-0.17048 -0.38666,-0.25809 -0.74935,-0.37061 -1.4719,-0.76995 -2.26842,-1.04117 -0.45376,-0.13698 -0.91237,-0.26603 -1.38106,-0.34125 -3.09314,-0.34033 5.02202,-4.17126 7.75868,-4.06325 2.85241,0.40069 5.66769,0.99571 8.54809,1.1528 1.2508,-0.14655 1.69653,-0.14192 2.87986,-0.48857 2.87364,-0.84186 9.18125,-4.90361 -3.57206,2.42124 0.26104,-0.20395 0.60489,-0.36704 0.78204,-0.66022 0.01,-0.0379 -0.0322,-0.0109 -0.0419,-0.0143 0.0398,-0.0299 -0.57763,0.29707 -0.43695,0.21584 2.2078,-1.27486 8.83769,-5.0882 6.63247,-3.80887 -2.48065,1.43913 -5.06144,2.71424 -7.45878,4.28824 -2.0343,1.33565 4.21256,-2.44079 6.36741,-3.57169 0.26148,-0.13722 -0.44587,0.38733 -0.6688,0.58099 -2.07883,1.7049 -2.53951,4.1616 -2.95066,6.67994 -0.57827,4.02922 -0.0647,8.06526 0.74789,12.0189 0.24809,0.83634 0.33681,1.75324 0.72283,2.54754 -0.0118,0.0415 0.0243,0.0268 0.0365,0.0401 0,0 -7.10644,4.10291 -7.10644,4.10291 l 0,0 c -0.005,-0.0185 -0.0249,-0.0257 -0.0151,-0.0525 -0.17594,-0.90545 -0.25761,-1.82739 -0.39095,-2.73916 -0.48485,-4.01736 -0.9822,-8.06867 -0.57687,-12.11763 0.21618,-2.48506 0.61612,-4.8403 2.65301,-6.50809 3.04545,-2.69937 -2.06801,1.76165 8.14552,-5.00222 2.08735,-1.38233 -8.66235,5.02491 -6.49662,3.76893 2.66554,-1.54587 5.18182,-3.1861 7.90326,-4.54691 0.01,0.005 0.0554,-0.0253 0.035,0.0182 -0.24301,0.31765 -0.61364,0.51568 -0.93176,0.74667 -4.42156,2.56425 -7.90251,5.48314 -12.94126,5.93861 -2.96131,-0.21329 -5.87335,-0.8161 -8.83923,-0.98471 -3.49602,0.0804 3.58951,-4.54085 6.3037,-4.05567 0.42761,0.12257 0.85112,0.25894 1.27146,0.40453 0.80333,0.28567 1.55749,0.65582 2.32881,1.0063 0.14037,0.0741 0.28291,0.20506 0.43559,0.22984 0.6244,-0.008 1.24784,-0.0495 1.87104,-0.0864 2.35911,-0.16176 4.70849,-0.41547 7.05619,-0.69634 0.40046,-0.0128 1.65155,-0.0891 1.82238,-0.10192 -1.8631,1.34292 -17.57001,10.09851 -0.005,0.01 0.0976,-0.0454 0.19667,-0.10209 0.29385,-0.0415 -0.2163,0.92514 -3.10777,2.38939 -3.6397,2.95141 -11.84164,7.52157 -24.31685,14.05875 -38.10958,17.13045 -3.22421,0.44585 -6.41968,1.2254 -9.67264,1.33754 -4.81604,0.16604 -13.50482,-1.09051 -18.1061,-2.5985 -2.47536,-0.81126 -4.7747,-2.09599 -7.07688,-3.3148 -6.06721,-3.21209 -7.02731,-4.23367 -12.40729,-8.23548 -2.35537,-2.56049 -5.17037,-5.48686 -7.28622,-8.28322 -2.19348,-2.89893 -3.90004,-6.18001 -6.02899,-9.12695 0,0 6.9574,-4.01686 6.9574,-4.01686 z" id="path10385" style="opacity:1;fill:#84c98a;fill-opacity:1;stroke:none;stroke-width:0.82095635;stroke-linecap:butt;stroke-linejoin:miter;stroke-miterlimit:4;stroke-dasharray:none;stroke-dashoffset:0;stroke-opacity:1"/>
    <use style="fill:#84c98a" height="100%" width="100%" y="0" x="0" xlink:href="#q" transform="matrix(3.1028274,0,0,3.1028274,-209.32053,-9.3507486)" id="use10387"/>
    <g transform="matrix(0.82095641,0,0,0.82095641,-256.44768,44.733474)" style="fill:#cccccc" id="g10389">
      <use style="fill:#cccccc" id="use10391" transform="matrix(2.4587954,0,0,2.4587954,324.20013,-135.43247)" xlink:href="#zero" x="0" y="0" width="100%" height="100%"/>
      <use style="fill:#cccccc" id="use10393" transform="matrix(3.7795276,0,0,3.7795276,-52.123066,-135.94914)" xlink:href="#c" x="0" y="0" width="100%" height="100%"/>
    </g>
    <g transform="matrix(0.82095641,0,0,0.82095641,-196.27778,45.733474)" style="fill:#cccccc" id="g10395">
      <use style="fill:#cccccc" id="use10397" transform="matrix(2.4587954,0,0,2.4587954,369.46952,-131.4052)" xlink:href="#three" x="0" y="0" width="100%" height="100%"/>
      <use style="fill:#cccccc" id="use10399" transform="matrix(3.7795276,0,0,3.7795276,-306.35933,-129.5294)" xlink:href="#n" x="0" y="0" width="100%" height="100%"/>
    </g>
    <use style="fill:#2d2d2d;fill-opacity:1;stroke:none;stroke-width:0.60827708;stroke-miterlimit:4;stroke-dasharray:none;stroke-opacity:1" height="100%" width="100%" y="0" x="0" xlink:href="#cQ" transform="matrix(2.4067229,0,0,2.4067229,83.222101,91.15865)" id="use10419"/>
    <rect ry="10" y="8" x="58" height="317" width="387" id="rect10421" style="opacity:1;fill:none;fill-opacity:1;fill-rule:evenodd;stroke:#cccccc;stroke-width:0.99999994;stroke-linecap:butt;stroke-linejoin:miter;stroke-miterlimit:4;stroke-dasharray:none;stroke-dashoffset:0;stroke-opacity:1"/>
    <use id="use10822" transform="matrix(2.2441517,0,0,2.2441517,-213.45083,250.83238)" xlink:href="#i" x="0" y="0" width="100%" height="100%" style="fill:#79d1ed"/>
    <use id="use10824" transform="matrix(2.2441517,0,0,2.2441517,-85.39093,258.24277)" xlink:href="#j" x="0" y="0" width="100%" height="100%" style="fill:#79d1ed"/>
    <use id="use10826" transform="matrix(1.9545578,0,0,1.9545578,81.46268,282.02972)" xlink:href="#k" x="0" y="0" width="100%" height="100%" style="fill:#84c98a"/>
    <g id="g10882" transform="translate(66,-104)" style="fill:#79d1ed">
      <path inkscape:connector-curvature="0" d="m 58.892598,564.0059 c 9.268337,-6.39524 19.328609,-11.66195 30.29285,-14.34387 6.481119,-1.58532 9.086258,-1.73421 15.595672,-2.55883 9.3635,-0.48119 18.66046,0.89408 27.54484,3.80833 1.00028,0.53098 2.4903,0.67407 3.27939,1.57342 -0.006,0.0127 -0.0124,0.0253 -0.0186,0.038 0,0 -8.64787,4.99285 -8.64787,4.99285 l 0,0 c 0.009,-0.0143 0.0182,-0.0287 0.0273,-0.043 -0.43618,-0.99733 -1.93174,-1.33083 -2.7368,-1.88668 -8.2216,-3.60777 -17.13908,-5.01013 -26.103796,-4.64032 -8.354756,0.97178 -15.46159,1.98438 -23.461538,4.88904 -2.25558,0.81897 -4.30754,2.16315 -6.597211,2.88131 -0.751596,0.23574 2.582213,-1.79815 1.898229,-1.40747 -1.059479,0.60517 -2.019921,1.36924 -3.029881,2.05386 0,0 -8.042555,4.64337 -8.042555,4.64337 z" id="path10866" style="opacity:1;fill:#79d1ed;fill-opacity:1;stroke:none;stroke-width:0.99999994;stroke-linecap:butt;stroke-linejoin:miter;stroke-miterlimit:4;stroke-dasharray:none;stroke-dashoffset:0;stroke-opacity:1"/>
      <path inkscape:connector-curvature="0" d="m 116.88625,565.72643 c 0.32199,-2.09821 1.11582,-4.04496 2.5273,-5.63285 4.03996,-3.38593 8.45118,-6.10463 13.60474,-6.49233 1.64403,-0.0972 3.29261,-0.0666 4.93888,-0.0797 4.3603,0.008 3.50431,-1.24326 -7.59403,4.95463 -0.64143,0.002 -1.28283,-0.005 -1.92423,0.002 -1.09757,0.0901 -1.03636,-0.10755 -1.51873,-1.04458 -0.97882,-2.26138 -0.35213,-4.5433 0.36458,-6.77711 0.39642,-1.6217 1.36757,-2.79488 2.7487,-3.66392 0,0 8.46919,-4.88969 8.46919,-4.88969 l 0,0 c -1.4268,0.8936 -2.46326,2.08148 -2.89939,3.75092 -0.75802,2.21042 -1.32407,4.47732 -0.17443,6.66733 0.47331,0.79329 0.63542,1.1054 1.59351,1.00141 0.64077,0.008 1.28166,0.002 1.92242,-0.001 -7.97929,4.76837 -5.28198,5.11411 -9.48883,4.90817 -1.61274,-0.0485 -3.2274,-0.0569 -4.83941,0.0223 -0.95316,0.0742 -1.90506,0.14403 -2.8321,0.39784 -0.29259,0.0801 -1.12102,0.44886 -0.86271,0.28979 9.56536,-5.89071 9.78963,-6.10935 6.9025,-3.90197 -1.40837,1.56812 -2.30196,3.48077 -2.47122,5.60048 0,0 -8.46674,4.88827 -8.46674,4.88827 z" id="path10880" style="opacity:1;fill:#79d1ed;fill-opacity:1;stroke:none;stroke-width:0.99999994;stroke-linecap:butt;stroke-linejoin:miter;stroke-miterlimit:4;stroke-dasharray:none;stroke-dashoffset:0;stroke-opacity:1"/>
    </g>
    <g transform="translate(190,-104)" id="g10888" style="fill:#84c98a">
      <path style="opacity:1;fill:#84c98a;fill-opacity:1;stroke:none;stroke-width:0.99999994;stroke-linecap:butt;stroke-linejoin:miter;stroke-miterlimit:4;stroke-dasharray:none;stroke-dashoffset:0;stroke-opacity:1" id="path10890" d="m 58.892598,564.0059 c 9.268337,-6.39524 19.328609,-11.66195 30.29285,-14.34387 6.481119,-1.58532 9.086258,-1.73421 15.595672,-2.55883 9.3635,-0.48119 18.66046,0.89408 27.54484,3.80833 1.00028,0.53098 2.4903,0.67407 3.27939,1.57342 -0.006,0.0127 -0.0124,0.0253 -0.0186,0.038 0,0 -8.64787,4.99285 -8.64787,4.99285 l 0,0 c 0.009,-0.0143 0.0182,-0.0287 0.0273,-0.043 -0.43618,-0.99733 -1.93174,-1.33083 -2.7368,-1.88668 -8.2216,-3.60777 -17.13908,-5.01013 -26.103796,-4.64032 -8.354756,0.97178 -15.46159,1.98438 -23.461538,4.88904 -2.25558,0.81897 -4.30754,2.16315 -6.597211,2.88131 -0.751596,0.23574 2.582213,-1.79815 1.898229,-1.40747 -1.059479,0.60517 -2.019921,1.36924 -3.029881,2.05386 0,0 -8.042555,4.64337 -8.042555,4.64337 z" inkscape:connector-curvature="0"/>
      <path style="opacity:1;fill:#84c98a;fill-opacity:1;stroke:none;stroke-width:0.99999994;stroke-linecap:butt;stroke-linejoin:miter;stroke-miterlimit:4;stroke-dasharray:none;stroke-dashoffset:0;stroke-opacity:1" id="path10892" d="m 116.88625,565.72643 c 0.32199,-2.09821 1.11582,-4.04496 2.5273,-5.63285 4.03996,-3.38593 8.45118,-6.10463 13.60474,-6.49233 1.64403,-0.0972 3.29261,-0.0666 4.93888,-0.0797 4.3603,0.008 3.50431,-1.24326 -7.59403,4.95463 -0.64143,0.002 -1.28283,-0.005 -1.92423,0.002 -1.09757,0.0901 -1.03636,-0.10755 -1.51873,-1.04458 -0.97882,-2.26138 -0.35213,-4.5433 0.36458,-6.77711 0.39642,-1.6217 1.36757,-2.79488 2.7487,-3.66392 0,0 8.46919,-4.88969 8.46919,-4.88969 l 0,0 c -1.4268,0.8936 -2.46326,2.08148 -2.89939,3.75092 -0.75802,2.21042 -1.32407,4.47732 -0.17443,6.66733 0.47331,0.79329 0.63542,1.1054 1.59351,1.00141 0.64077,0.008 1.28166,0.002 1.92242,-0.001 -7.97929,4.76837 -5.28198,5.11411 -9.48883,4.90817 -1.61274,-0.0485 -3.2274,-0.0569 -4.83941,0.0223 -0.95316,0.0742 -1.90506,0.14403 -2.8321,0.39784 -0.29259,0.0801 -1.12102,0.44886 -0.86271,0.28979 9.56536,-5.89071 9.78963,-6.10935 6.9025,-3.90197 -1.40837,1.56812 -2.30196,3.48077 -2.47122,5.60048 0,0 -8.46674,4.88827 -8.46674,4.88827 z" inkscape:connector-curvature="0"/>
    </g>
    <ellipse style="opacity:1;fill:#79d1ed;fill-opacity:1;stroke:none;stroke-width:2.29900002;stroke-miterlimit:4;stroke-dasharray:none;stroke-dashoffset:0;stroke-opacity:1" id="path10900" cx="177" cy="170.5" rx="11" ry="11.5"/>
    <ellipse ry="11.5" rx="11" cy="176.5" cx="305" id="ellipse10902" style="opacity:1;fill:#84c98a;fill-opacity:1;stroke:none;stroke-width:2.29900002;stroke-miterlimit:4;stroke-dasharray:none;stroke-dashoffset:0;stroke-opacity:1"/>
    <ellipse style="opacity:1;fill:#cccccc;fill-opacity:1;stroke:none;stroke-width:2.29900002;stroke-miterlimit:4;stroke-dasharray:none;stroke-dashoffset:0;stroke-opacity:1" id="ellipse10904" cx="244" cy="44.5" rx="11" ry="11.5"/>
    <use id="use10906" transform="matrix(2.4067229,0,0,2.4067229,82.222101,244.15865)" xlink:href="#cQ" x="0" y="0" width="100%" height="100%" style="fill:#2d2d2d;fill-opacity:1;stroke:none;stroke-width:0.60827708;stroke-miterlimit:4;stroke-dasharray:none;stroke-opacity:1"/>
    <path style="opacity:1;fill:#666666;fill-opacity:1;stroke:none;stroke-width:0.99999994;stroke-linecap:butt;stroke-linejoin:miter;stroke-miterlimit:4;stroke-dasharray:none;stroke-dashoffset:0;stroke-opacity:1" id="path10908" d="m 240.07985,302.72885 c -4.61004,16.07914 -6.67868,32.91003 -7.04808,49.61698 -0.0885,4.005 0.0725,8.01162 0.10873,12.01743 0.47437,15.44559 2.72293,30.78554 6.33151,45.79716 0.71622,1.28631 0.76552,4.62268 1.86165,5.7908 2.51189,-0.72906 -7.57051,7.78128 -8.66006,4.45119 0,0 8.65868,-4.99909 8.65868,-4.99909 l 0,0 c -0.13718,3.51444 -3.5801,4.5721 -8.6315,5.5321 -0.49893,-2.07631 -0.46564,-4.26757 -0.88347,-6.35556 -1.91375,-15.63164 -3.70133,-31.31183 -4.13468,-47.0655 -0.0205,-8.85697 -0.15955,-15.44983 0.32085,-24.31201 0.65363,-12.0579 2.44319,-24.02319 4.24203,-35.95034 0,0 7.83434,-4.52316 7.83434,-4.52316 z" inkscape:connector-curvature="0"/>
    <path style="opacity:1;fill:#666666;fill-opacity:1;stroke:none;stroke-width:0.99999994;stroke-linecap:butt;stroke-linejoin:miter;stroke-miterlimit:4;stroke-dasharray:none;stroke-dashoffset:0;stroke-opacity:1" id="path10910" d="m 220.50228,320.95531 c 3.05547,-2.42008 5.72238,-5.34851 7.92073,-8.56149 1.12665,-1.88395 2.28294,-3.752 3.02871,-5.82456 0.12299,-0.90279 0.41962,-1.68859 0.76673,-2.52047 0.24379,-0.73128 0.37792,-1.49435 0.45137,-2.26026 0.0187,-0.10258 0.008,-0.20812 0.007,-0.31014 17.65251,-9.01113 9.63864,-6.58357 7.89642,-3.67052 -0.31163,1.08033 -0.29584,2.22374 -0.33008,3.33903 0.52654,2.3619 3.16085,3.73622 5.05347,4.92668 1.50684,0.86908 3.05384,1.67933 4.66819,2.33126 3.41011,1.27848 4.67569,-2.19256 -8.42204,4.96914 -3.4084,-1.20739 5.8296,-6.13488 8.9505,-4.76626 -23.46111,12.80457 -0.29868,-0.12869 -0.0427,-0.007 0,0 -8.62402,4.97908 -8.62402,4.97908 l 0,0 c -0.0317,-0.0285 -0.13113,-0.0627 -0.0951,-0.0854 6.95257,-4.3732 15.49012,-9.2433 0.10353,0.11197 -2.45049,-2.39607 6.1261,-7.74959 8.29814,-5.19225 -7.35035,4.48014 -5.57942,6.69218 -8.74373,4.94153 -1.45484,-0.81647 -2.88832,-1.67054 -4.31488,-2.53525 -1.87108,-1.15792 -4.74296,-2.46718 -5.31471,-4.77584 0.004,-1.09339 0.0188,-2.19476 0.21647,-3.27344 1.92981,-3.21041 8.69025,-2.84872 9.35922,-6.29203 -0.0168,0.11342 -0.0348,0.22684 -0.0577,0.33931 -0.14803,0.7718 -0.3115,1.54141 -0.51942,2.29954 -0.32895,0.83979 -0.65253,1.64946 -0.81227,2.54677 -0.91382,2.12249 -2.12635,4.07958 -3.37177,6.02262 -2.16646,3.10548 -4.73943,5.96374 -7.64143,8.40024 0,0 -8.43085,4.86755 -8.43085,4.86755 z" inkscape:connector-curvature="0"/>
    <use id="use10938" transform="matrix(2.871107,0,0,2.871107,-73.383234,101.44641)" xlink:href="#F" x="0" y="0" width="100%" height="100%" style="fill:#2d2d2d"/>
    <g id="g11130" transform="matrix(0.5449202,0,0,0.5449202,-10.975632,153.33008)">
      <g transform="translate(244,58)" id="g11085">
        <path style="opacity:1;fill:#cccccc;fill-opacity:1;stroke:none;stroke-width:0.99999994;stroke-linecap:butt;stroke-linejoin:miter;stroke-miterlimit:4;stroke-dasharray:none;stroke-dashoffset:0;stroke-opacity:1" id="path11077" d="m 446.11375,357.27357 c -1.5718,7.43323 -2.13443,15.01404 -2.59048,22.58213 -0.0914,1.9634 -0.20374,3.92738 -0.23398,5.89316 -0.004,0.24501 0.27174,0.61921 0.0548,0.73307 -2.8702,1.50616 -5.74455,3.0044 -8.61683,4.5066 0,0 8.53941,-4.93023 8.53941,-4.93023 l 0,0 c -2.85532,1.80463 -5.7091,3.6117 -8.56597,5.41389 -0.0491,0.031 0.12509,-0.0448 0.14259,-0.10021 0.0852,-0.26981 0.10954,-0.55535 0.15272,-0.83497 0.31931,-2.06739 0.52681,-4.15157 0.80705,-6.22403 0.85971,-7.36123 1.6551,-14.73623 1.84398,-22.15114 0,0 8.46674,-4.88827 8.46674,-4.88827 z" inkscape:connector-curvature="0"/>
        <path style="opacity:1;fill:#cccccc;fill-opacity:1;stroke:none;stroke-width:0.99999994;stroke-linecap:butt;stroke-linejoin:miter;stroke-miterlimit:4;stroke-dasharray:none;stroke-dashoffset:0;stroke-opacity:1" id="path11079" d="m 445.67837,370.61939 c 8.4085,0.34441 16.8284,0.25606 25.24192,0.21715 6.32548,-0.14645 12.63684,-0.11009 18.9506,0.29218 3.25178,0.13948 6.44675,0.79875 9.67654,1.16173 1.21661,0.006 2.47903,-0.0829 3.60329,-0.58869 2.99925,-1.70211 -3.92389,2.22726 -8.36266,4.66356 -0.0339,0.0186 -0.005,-0.0934 0.029,-0.11228 8.51827,-4.7736 9.87046,-7.63676 8.41349,-4.61162 -0.16965,0.16626 -0.006,0.0253 -0.009,0.0379 0,0 -8.65963,4.99964 -8.65963,4.99964 l 0,0 c 0.0157,-0.0199 0.0688,-0.004 0.0472,-0.0598 1.09654,-1.591 22.35805,-12.57015 -0.0634,0.0509 -1.0371,0.44508 -2.20881,0.44998 -3.31592,0.42278 -3.14242,-0.40469 -6.24712,-1.08337 -9.40963,-1.31583 -6.12373,-0.51304 -12.2469,-0.6878 -18.394,-0.61353 -8.66453,-0.0407 -17.33405,-0.11306 -25.99418,0.21715 0,0 8.24669,-4.76122 8.24669,-4.76122 z" inkscape:connector-curvature="0"/>
        <path style="opacity:1;fill:#cccccc;fill-opacity:1;stroke:none;stroke-width:0.99999994;stroke-linecap:butt;stroke-linejoin:miter;stroke-miterlimit:4;stroke-dasharray:none;stroke-dashoffset:0;stroke-opacity:1" id="path11083" d="m 493.46876,359.27579 c 1.24703,4.17642 4.1371,7.37857 7.31952,10.20816 1.86635,1.5873 4.04403,2.61054 6.44116,3.05083 4.9091,-0.25742 -5.05255,6.88899 -8.02696,4.52264 -0.51752,-0.43572 -1.23499,-0.3822 -1.79418,-0.68433 -0.29316,-0.2046 -0.51989,-0.47554 -0.7091,-0.77445 -0.18425,-0.19233 -0.41556,-0.0836 -0.67713,-0.0169 2.5898,-1.45916 5.1796,-2.91833 7.7694,-4.37749 -3.13226,2.58192 -5.33943,6.07433 -7.46544,9.48364 -1.14459,2.03458 -2.21383,4.13312 -2.94581,6.35578 -0.0709,0.1512 -0.10784,0.4018 -0.096,0.53523 0,0 -8.65764,4.9985 -8.65764,4.9985 l 0,0 c 0.0338,-0.15924 0.12659,-0.43951 0.21467,-0.60373 1.00564,-2.28447 2.1874,-4.48869 3.4444,-6.64364 2.07898,-3.27061 4.12013,-6.70377 7.08147,-9.26195 3.26501,-1.92344 6.21514,-5.95032 9.97247,-5.45796 0.15082,0.31934 0.3552,0.60122 0.64667,0.8105 0.55505,0.30349 1.26777,0.24472 1.77596,0.69485 3.27228,2.36155 -5.71397,6.23551 -9.03356,5.32726 -2.26538,-0.59624 -4.33213,-1.65047 -6.04067,-3.28205 -3.01867,-2.95297 -5.89519,-6.12294 -7.67823,-10.00107 0,0 8.45905,-4.88383 8.45905,-4.88383 z" inkscape:connector-curvature="0"/>
      </g>
      <g transform="matrix(0.82095641,0,0,0.82095641,126.72222,377.73347)" style="fill:#cccccc" id="g11090">
        <use style="fill:#cccccc" id="use11092" transform="matrix(2.4587954,0,0,2.4587954,369.46952,-131.4052)" xlink:href="#three" x="0" y="0" width="100%" height="100%"/>
        <use style="fill:#cccccc" id="use11094" transform="matrix(3.7795276,0,0,3.7795276,-306.35933,-129.5294)" xlink:href="#n" x="0" y="0" width="100%" height="100%"/>
      </g>
      <use style="fill:#cccccc" height="100%" width="100%" y="0" x="0" xlink:href="#q" transform="matrix(3.1028274,0,0,3.1028274,340.67947,160.64925)" id="use11096"/>
      <g id="g11098" transform="translate(244,0)">
        <path inkscape:connector-curvature="0" d="m 446.11375,357.27357 c -1.5718,7.43323 -2.13443,15.01404 -2.59048,22.58213 -0.0914,1.9634 -0.20374,3.92738 -0.23398,5.89316 -0.004,0.24501 0.27174,0.61921 0.0548,0.73307 -2.8702,1.50616 -5.74455,3.0044 -8.61683,4.5066 0,0 8.53941,-4.93023 8.53941,-4.93023 l 0,0 c -2.85532,1.80463 -5.7091,3.6117 -8.56597,5.41389 -0.0491,0.031 0.12509,-0.0448 0.14259,-0.10021 0.0852,-0.26981 0.10954,-0.55535 0.15272,-0.83497 0.31931,-2.06739 0.52681,-4.15157 0.80705,-6.22403 0.85971,-7.36123 1.6551,-14.73623 1.84398,-22.15114 0,0 8.46674,-4.88827 8.46674,-4.88827 z" id="path11100" style="opacity:1;fill:#cccccc;fill-opacity:1;stroke:none;stroke-width:0.99999994;stroke-linecap:butt;stroke-linejoin:miter;stroke-miterlimit:4;stroke-dasharray:none;stroke-dashoffset:0;stroke-opacity:1"/>
        <path inkscape:connector-curvature="0" d="m 445.67837,370.61939 c 8.4085,0.34441 16.8284,0.25606 25.24192,0.21715 6.32548,-0.14645 12.63684,-0.11009 18.9506,0.29218 3.25178,0.13948 6.44675,0.79875 9.67654,1.16173 1.21661,0.006 2.47903,-0.0829 3.60329,-0.58869 2.99925,-1.70211 -3.92389,2.22726 -8.36266,4.66356 -0.0339,0.0186 -0.005,-0.0934 0.029,-0.11228 8.51827,-4.7736 9.87046,-7.63676 8.41349,-4.61162 -0.16965,0.16626 -0.006,0.0253 -0.009,0.0379 0,0 -8.65963,4.99964 -8.65963,4.99964 l 0,0 c 0.0157,-0.0199 0.0688,-0.004 0.0472,-0.0598 1.09654,-1.591 22.35805,-12.57015 -0.0634,0.0509 -1.0371,0.44508 -2.20881,0.44998 -3.31592,0.42278 -3.14242,-0.40469 -6.24712,-1.08337 -9.40963,-1.31583 -6.12373,-0.51304 -12.2469,-0.6878 -18.394,-0.61353 -8.66453,-0.0407 -17.33405,-0.11306 -25.99418,0.21715 0,0 8.24669,-4.76122 8.24669,-4.76122 z" id="path11102" style="opacity:1;fill:#cccccc;fill-opacity:1;stroke:none;stroke-width:0.99999994;stroke-linecap:butt;stroke-linejoin:miter;stroke-miterlimit:4;stroke-dasharray:none;stroke-dashoffset:0;stroke-opacity:1"/>
        <path inkscape:connector-curvature="0" d="m 493.46876,359.27579 c 1.24703,4.17642 4.1371,7.37857 7.31952,10.20816 1.86635,1.5873 4.04403,2.61054 6.44116,3.05083 4.9091,-0.25742 -5.05255,6.88899 -8.02696,4.52264 -0.51752,-0.43572 -1.23499,-0.3822 -1.79418,-0.68433 -0.29316,-0.2046 -0.51989,-0.47554 -0.7091,-0.77445 -0.18425,-0.19233 -0.41556,-0.0836 -0.67713,-0.0169 2.5898,-1.45916 5.1796,-2.91833 7.7694,-4.37749 -3.13226,2.58192 -5.33943,6.07433 -7.46544,9.48364 -1.14459,2.03458 -2.21383,4.13312 -2.94581,6.35578 -0.0709,0.1512 -0.10784,0.4018 -0.096,0.53523 0,0 -8.65764,4.9985 -8.65764,4.9985 l 0,0 c 0.0338,-0.15924 0.12659,-0.43951 0.21467,-0.60373 1.00564,-2.28447 2.1874,-4.48869 3.4444,-6.64364 2.07898,-3.27061 4.12013,-6.70377 7.08147,-9.26195 3.26501,-1.92344 6.21514,-5.95032 9.97247,-5.45796 0.15082,0.31934 0.3552,0.60122 0.64667,0.8105 0.55505,0.30349 1.26777,0.24472 1.77596,0.69485 3.27228,2.36155 -5.71397,6.23551 -9.03356,5.32726 -2.26538,-0.59624 -4.33213,-1.65047 -6.04067,-3.28205 -3.01867,-2.95297 -5.89519,-6.12294 -7.67823,-10.00107 0,0 8.45905,-4.88383 8.45905,-4.88383 z" id="path11104" style="opacity:1;fill:#cccccc;fill-opacity:1;stroke:none;stroke-width:0.99999994;stroke-linecap:butt;stroke-linejoin:miter;stroke-miterlimit:4;stroke-dasharray:none;stroke-dashoffset:0;stroke-opacity:1"/>
      </g>
      <use style="fill:#cccccc" height="100%" width="100%" y="0" x="0" xlink:href="#q" transform="matrix(3.1028274,0,0,3.1028274,208.67947,102.64925)" id="use11114"/>
      <use id="use11116" transform="matrix(3.0602315,0,0,3.0602315,348.18182,96.890438)" xlink:href="#i" x="0" y="0" width="100%" height="100%" style="fill:#cccccc"/>
      <g transform="matrix(0.82095641,0,0,0.82095641,154.55232,377.73347)" style="fill:#cccccc" id="g11118">
        <use style="fill:#cccccc" id="use11120" transform="matrix(2.4587954,0,0,2.4587954,324.20013,-135.43247)" xlink:href="#zero" x="0" y="0" width="100%" height="100%"/>
        <use style="fill:#cccccc" id="use11122" transform="matrix(3.7795276,0,0,3.7795276,-52.123066,-135.94914)" xlink:href="#c" x="0" y="0" width="100%" height="100%"/>
      </g>
      <path inkscape:connector-curvature="0" d="m 614.08227,435.53098 c -3.53818,6.58667 -8.58033,12.15335 -13.65744,17.56858 0,0 -6.99683,4.03962 -6.99683,4.03962 l 0,0 c 4.73281,-5.03554 9.71683,-10.19525 12.2505,-16.75628 0,0 8.40377,-4.85192 8.40377,-4.85192 z" id="path11128" style="opacity:1;fill:#cccccc;fill-opacity:1;stroke:none;stroke-width:0.99999994;stroke-linecap:butt;stroke-linejoin:miter;stroke-miterlimit:4;stroke-dasharray:none;stroke-dashoffset:0;stroke-opacity:1"/>
    </g>
  </g>
  
</svg>
