<?xml version="1.0" encoding="UTF-8"?>
<svg xmlns:dc="http://purl.org/dc/elements/1.1/" xmlns:cc="http://creativecommons.org/ns#" xmlns:rdf="http://www.w3.org/1999/02/22-rdf-syntax-ns#" xmlns:svg="http://www.w3.org/2000/svg" xmlns="http://www.w3.org/2000/svg" xmlns:xlink="http://www.w3.org/1999/xlink" xmlns:sodipodi="http://sodipodi.sourceforge.net/DTD/sodipodi-0.dtd" xmlns:inkscape="http://www.inkscape.org/namespaces/inkscape" width="500" height="500" viewBox="0 0 500 500" id="svg2" version="1.1" inkscape:version="0.91 r13725" sodipodi:docname="avatar-slides.svg">
  <defs id="defs4">
    <symbol id="i">
      <path style="stroke-width:0.26458332" inkscape:connector-curvature="0" d="m 144.3525,85.074726 c -0.7402,1.094335 -1.51863,2.161161 -2.2157,3.284471 -0.22231,0.358235 -0.4655,0.706303 -0.64678,1.086943 -0.14617,0.306898 -0.22026,0.643189 -0.33039,0.964784 -0.004,0.264152 -0.10193,0.543587 -0.0133,0.792456 0.0723,0.203028 0.2695,0.352002 0.45813,0.456277 0.92319,0.510365 2.43636,-0.06419 3.34673,-0.357658 0.26033,-0.09247 0.52066,-0.184947 0.78099,-0.277421 0,0 -2.07694,1.19912 -2.07694,1.19912 l 0,0 c -0.25433,0.08901 -0.50867,0.178025 -0.76301,0.267036 -0.74723,0.23789 -3.49359,1.193721 -3.82473,-0.08714 -0.0694,-0.268261 0.0497,-0.551924 0.0746,-0.827887 0.12975,-0.332922 0.22934,-0.679241 0.38926,-0.99877 0.19035,-0.380339 0.43622,-0.730269 0.65779,-1.093306 0.64073,-1.049806 1.3266,-2.070995 1.95014,-3.131146 0,0 2.21315,-1.277762 2.21315,-1.277762 z" id="path9660"/>
      <path style="stroke-width:0.26458332" inkscape:connector-curvature="0" d="m 139.68744,86.961829 c 0.11173,0.01879 0.22288,0.04131 0.33517,0.05633 0.66528,0.08902 1.21441,0.118787 1.86128,-0.118248 0.25279,-0.09263 0.95959,-0.485121 0.73211,-0.341133 -0.44765,0.283348 -0.93024,0.507299 -1.39535,0.760947 0.77192,-0.635021 0.41345,-0.315309 1.08105,-0.952788 0,0 2.11353,-1.22025 2.11353,-1.22025 l 0,0 c -0.69881,0.653139 -0.32818,0.327326 -1.11586,0.972888 -0.82715,0.490929 -2.90471,1.994935 -4.26262,2.199738 -0.52,0.07843 -1.06942,-0.05956 -1.59024,-0.06368 0,0 2.24093,-1.293805 2.24093,-1.293805 z" id="path9668"/>
      <path style="stroke-width:0.26458332" inkscape:connector-curvature="0" d="m 145.44674,82.028673 c 0.24135,0.291994 0.52427,0.536675 0.82247,0.767702 0,0 -2.21838,1.280784 -2.21838,1.280784 l 0,0 c -0.29214,-0.240922 -0.57773,-0.487698 -0.84855,-0.752644 0,0 2.24446,-1.295842 2.24446,-1.295842 z" id="path9684"/>
    </symbol>
    <symbol id="j">
      <path style="stroke-width:0.26458332" inkscape:connector-curvature="0" d="m 141.30249,84.519648 c 1.03914,-0.09529 4.59741,-2.188773 0.73933,-0.07052 0.35238,-0.27759 0.71601,-0.557922 0.99556,-0.91295 0.032,-0.01426 0.0292,-0.06426 0.0306,-0.07207 -0.86428,0.0881 -0.21681,0.0618 2.16047,-1.241922 0.0379,-0.0208 -0.0621,0.06031 -0.0923,0.09125 -0.12446,0.127262 -0.0784,0.07994 -0.19953,0.27019 -0.54602,0.851773 -0.80015,1.839698 -1.06644,2.803995 -0.41555,1.832478 -0.81539,3.668306 -1.28935,5.486792 -0.0633,0.245221 -0.27136,1.101341 -0.38712,1.376593 -0.5412,1.286798 -2.2807,2.098953 -3.55098,2.277975 -0.78938,-0.03239 -1.56503,-0.202748 -2.33473,-0.370464 -0.13855,-0.03297 -0.2788,-0.06023 -0.41552,-0.100465 -0.0149,7.93e-4 -0.002,-0.0016 -0.003,-0.0021 0,0 2.29101,-1.322718 2.29101,-1.322718 l 0,0 c 1.3e-4,0.0013 -0.006,0.0011 5.3e-4,0.0036 0.11187,0.06225 0.24088,0.08879 0.36017,0.132424 0.74016,0.218485 1.50204,0.396055 2.27719,0.403685 1.01638,-0.149561 1.11403,-0.222199 -1.3544,1.024144 -0.13976,0.07057 0.22629,-0.218458 0.31958,-0.344193 0.4148,-0.559091 0.55418,-1.243021 0.74968,-1.896229 0.48474,-1.810184 0.87546,-3.641564 1.26695,-5.473859 0.22097,-0.926598 0.38878,-1.88423 0.89825,-2.706894 0.51031,-0.914085 1.88153,-1.456386 2.6599,-1.734045 -0.003,0.0072 -0.0207,0.07447 -0.0502,0.08337 -0.32868,0.370898 -0.72054,0.680886 -1.11291,0.980702 -1.60335,0.955831 -3.26365,2.158926 -5.12554,2.602896 0,0 2.23274,-1.289073 2.23274,-1.289073 z" id="path9743"/>
      <path style="stroke-width:0.26458332" inkscape:connector-curvature="0" d="m 144.97945,79.257067 c 0.55181,0.02233 1.10443,0.01154 1.65633,-0.0024 0.15433,-0.0046 0.0789,-0.0034 0.22625,-0.0039 0,0 -2.26328,1.306708 -2.26328,1.306708 l 0,0 c -0.14194,-5.29e-4 -0.071,7.94e-4 -0.21271,-0.0039 -0.54919,-0.01511 -1.09906,-0.02357 -1.64821,-0.0024 0,0 2.24162,-1.294198 2.24162,-1.294198 z" id="path9745"/>
    </symbol>
    <symbol id="k">
      <path style="stroke-width:0.26458332" inkscape:connector-curvature="0" d="m 141.18729,78.624123 c -1.58456,1.979097 -2.10664,4.506039 -2.57174,6.936475 -0.28394,1.916214 -0.16301,3.824783 0.12135,5.727542 0,0 -1.98913,1.148429 -1.98913,1.148429 l 0,0 c -0.17254,-1.930366 -0.24899,-3.862176 -0.007,-5.793457 0.45361,-2.319038 0.86418,-4.735446 2.21397,-6.729915 0,0 2.23274,-1.289074 2.23274,-1.289074 z" id="path11076"/>
      <path style="stroke-width:0.26458332" inkscape:connector-curvature="0" d="m 139.4232,84.813317 c 0.83819,-0.0031 1.64076,-0.218882 2.41917,-0.511511 -0.5758,0.320167 -1.12487,0.694047 -1.72741,0.960501 -0.187,0.08269 0.32038,-0.25572 0.4636,-0.401629 0.73635,-0.750131 1.30072,-1.671844 1.87147,-2.547917 0.29448,-0.475892 0.60124,-0.946494 0.85946,-1.443709 0.0134,-0.02103 0.0208,-0.04424 0.0291,-0.06717 0,0 2.28891,-1.321507 2.28891,-1.321507 l 0,0 c -0.0161,0.02646 -0.032,0.0531 -0.0493,0.07885 -0.33403,0.517424 -0.67945,1.027414 -1.02331,1.538316 -0.58025,0.852017 -1.12873,1.782054 -1.84278,2.531354 -0.75547,0.792755 -2.5758,1.651153 -3.05605,1.935194 -0.79897,0.297831 -1.62099,0.490344 -2.47446,0.543433 0,0 2.24162,-1.294199 2.24162,-1.294199 z" id="path11078"/>
      <path style="stroke-width:0.26458332" inkscape:connector-curvature="0" d="m 137.6784,86.277558 c 0.35316,-0.108759 2.78148,-2.124075 3.8814,-1.578546 0.12487,0.06194 0.22181,0.168889 0.33271,0.253333 0.76948,0.831641 0.84734,2.028357 0.93825,3.105933 0.0941,0.603893 0.13025,1.523418 0.75792,1.869276 0.37295,0.2055 0.81576,0.138269 1.21196,0.130871 0.22384,-0.05206 0.44768,-0.104121 0.67152,-0.156181 0,0 -2.10993,1.218168 -2.10993,1.218168 l 0,0 c -0.22577,0.05318 -0.45154,0.10635 -0.67731,0.159526 -0.39036,0.01476 -0.88296,0.0918 -1.25843,-0.104045 -0.63522,-0.331335 -0.64663,-1.295665 -0.7243,-1.888683 -0.10212,-1.080048 -0.1955,-2.258079 -0.99064,-3.075686 -0.32343,-0.228301 -0.31619,-0.286261 -0.70299,-0.332981 -0.97071,-0.11725 -3.12905,1.541632 0.91286,-0.895993 0,0 -2.24302,1.295008 -2.24302,1.295008 z" id="path11092"/>
    </symbol>
    <symbol id="zero">
      <path style="stroke-width:0.26458332" id="path12217" d="m 84.415818,79.555353 c -0.09279,0.03671 -0.186299,0.07166 -0.278374,0.110133 -0.260643,0.108897 -1.004133,0.517946 -0.755538,0.383805 0.579183,-0.312526 1.125754,-0.691502 1.73166,-0.948415 0.179986,-0.07632 -0.294494,0.257752 -0.431559,0.397153 -0.15513,0.157773 -0.296042,0.328927 -0.444066,0.493389 -1.4917,1.792198 -2.076511,4.058642 -2.497717,6.301431 -0.06633,0.659085 -0.290417,2.158801 0.1627,2.778104 0.09183,0.125507 0.266946,0.2018 0.422416,0.198061 0.188772,-0.0045 0.70182,-0.277434 0.521697,-0.220763 -0.462507,0.145513 -0.913569,0.325176 -1.370356,0.487765 1.749194,-2.032333 2.708878,-4.536617 3.330397,-7.109243 0.09928,-0.656254 0.479833,-1.996025 -0.02183,-2.609813 -0.197911,-0.242147 -0.435766,-0.224142 -0.709967,-0.2658 0,0 2.18721,-1.262788 2.18721,-1.262788 l 0,0 c 0.266417,0.03835 0.520951,0.01495 0.700754,0.271119 0.452824,0.64512 -0.05961,2.06511 -0.167073,2.718877 -0.695725,2.557343 -1.609739,4.998817 -3.293714,7.088063 -0.930568,0.6384 -1.842876,1.304266 -2.7917,1.915199 -0.170913,0.110048 -0.356228,0.241623 -0.559502,0.242589 -0.860538,0.0041 -0.403849,-2.74048 -0.348046,-3.113035 0.420397,-2.171332 0.904796,-4.428521 2.315554,-6.196258 0.171262,-0.194527 0.604089,-0.71804 0.841534,-0.870863 1.167736,-0.751578 2.393394,-1.543328 3.694094,-2.081154 0,0 -2.238579,1.292444 -2.238579,1.292444 z" inkscape:connector-curvature="0"/>
    </symbol>
    <symbol id="three">
      <path style="stroke-width:0.26458332" id="path12120" d="m 107.2942,81.149042 c 1.30452,-0.979064 2.8205,-2.229361 4.40604,-2.496635 0.1925,-0.03245 0.3898,-0.02212 0.58471,-0.0332 0.63084,0.04853 1.6487,0.205578 1.70216,1.018818 0.008,0.118332 -0.027,0.235632 -0.0405,0.353449 -0.13854,0.507267 -0.53889,0.811736 -0.97596,1.061106 -2.4907,1.421087 -1.60242,1.049263 -2.70866,1.497734 -0.17515,0.06297 -0.35314,0.125432 -0.53904,0.144907 -0.32025,-0.648975 1.8604,-1.30012 2.76855,-1.431805 0.60902,-0.07247 1.24698,-0.02679 1.72106,0.408524 0.15122,0.138846 0.30963,0.285822 0.39498,0.47253 0.11792,0.257985 0.13279,0.551556 0.19919,0.827334 0.0213,0.330075 0.0812,0.65991 0.064,0.990224 -0.0735,1.408679 -0.66579,3.026354 -1.8994,3.833434 -0.94596,0.61889 -1.96623,1.115965 -2.94935,1.673945 -1.20812,0.432821 -2.61614,0.681342 -3.80489,0.06228 0,0 2.21373,-1.278094 2.21373,-1.278094 l 0,0 c 1.05944,0.727086 2.46739,0.447246 3.59721,0.05762 -0.35024,0.211828 -0.70106,0.848291 -1.0507,0.635487 -0.32032,-0.194958 0.57112,-0.492276 0.80684,-0.783908 0.6776,-0.838321 1.03123,-1.955448 1.05439,-3.027494 0.007,-0.324599 -0.0675,-0.645835 -0.10119,-0.968754 -0.0861,-0.26439 -0.12757,-0.547785 -0.25835,-0.793173 -0.43153,-0.80967 -1.39288,-0.960377 -2.20558,-0.829366 -1.35597,0.254125 0.049,0.0086 1.73505,-1.168347 0.16585,-0.0028 0.3252,-0.05994 0.48123,-0.111527 0.9111,-0.357957 0.30329,-0.13236 -1.71786,1.057918 -0.10184,0.05998 0.20756,-0.114213 0.30382,-0.182782 0.31862,-0.226967 0.57629,-0.49018 0.67355,-0.879134 0.0141,-0.11816 0.0495,-0.235698 0.0423,-0.35448 -0.0482,-0.797529 -1.01141,-0.998784 -1.6429,-1.053037 -0.19638,0.01193 -0.39515,0.003 -0.58914,0.03576 -0.18713,0.03164 -0.69632,0.274129 -0.54747,0.156387 0.49661,-0.392827 1.07388,-0.671248 1.61469,-1.00058 0.28143,-0.171384 -0.54854,0.366667 -0.8062,0.572061 -0.10307,0.08216 -0.20383,0.167171 -0.30574,0.250759 0,0 -2.22055,1.282033 -2.22055,1.282033 z" inkscape:connector-curvature="0"/>
    </symbol>
    <symbol id="q">
      <path style="stroke-width:0.26458332" inkscape:connector-curvature="0" d="m 141.82888,83.197099 c -0.46575,0.05451 -0.9198,0.177687 -1.34576,0.376828 -0.1974,0.09229 -0.76633,0.415208 -0.57251,0.315616 1.63802,-0.841658 1.99385,-1.181632 0.94197,-0.345588 -0.50727,0.526881 -1.47993,1.250169 -1.66692,1.995138 0.26334,0.450556 0.94299,0.329666 1.37006,0.254222 0.3886,-0.08404 0.77861,-0.182268 1.14176,-0.348445 0.78919,-0.361138 2.56285,-1.422395 -1.04866,0.605888 0.65005,-0.479499 1.17807,-1.102151 1.58759,-1.794987 0.19107,-0.379317 0.38154,-0.763172 0.50473,-1.170807 0.0777,-0.236435 0.0101,-0.382802 -0.1974,-0.51212 -0.95765,-0.387186 -2.36452,0.860729 1.14056,-1.117298 0,0 -2.19502,1.267296 -2.19502,1.267296 l 0,0 c 0.80778,-0.474324 2.10491,-1.862778 3.31121,-1.452938 0.22832,0.127021 0.28693,0.26716 0.19392,0.514138 -0.13422,0.418065 -0.35466,0.808913 -0.55288,1.198602 -0.42659,0.689046 -0.95483,1.322001 -1.60848,1.807049 -1.4113,0.831008 -2.83372,1.902859 -4.47142,2.270381 -0.39461,0.07404 -1.19907,0.239393 -1.41467,-0.228465 0.30327,-0.800957 1.2203,-1.486754 1.80478,-2.074733 1.36424,-1.083789 0.50006,-0.436615 3.27777,-2.090676 0.63334,-0.377143 1.30847,-0.654855 2.04099,-0.763299 0,0 -2.24162,1.294198 -2.24162,1.294198 z" id="path11381"/>
      <path style="stroke-width:0.26458332" inkscape:connector-curvature="0" d="m 145.71963,81.268358 c -0.51711,0.647981 -0.92148,1.366602 -1.30661,2.097432 -0.76998,1.393714 -1.17395,2.930361 -1.46316,4.484121 -0.31277,1.926807 -0.38444,3.874894 -0.21592,5.817344 0.0764,0.397025 0.056,0.834397 0.2082,1.216638 -0.61638,0.363884 -5.37952,2.925652 0.009,-0.01643 -0.0488,-0.0077 0.0155,0.03826 0.002,0.04563 -3.87773,2.147248 -2.17068,1.148067 -0.002,-0.04219 -0.0466,-0.0079 0.0139,0.03381 0.002,0.04033 -3.67027,2.031485 -2.38077,1.265304 -0.004,-0.03308 2.7e-4,0.0109 5.3e-4,0.02183 8e-4,0.03273 0,0 -2.28191,1.317459 -2.28191,1.317459 l 0,0 c 0.003,-0.01296 0.007,-0.02593 0.01,-0.03889 5.33378,-3.244067 0.75934,-0.421468 -0.0134,0.04298 -0.0146,0.0088 0.066,-0.10038 0.0134,-0.04929 5.37244,-3.254182 0.72065,-0.390118 -0.0133,0.05087 -0.0163,0.0098 0.0702,-0.109919 0.0146,-0.0553 5.9862,-3.642235 0.0781,-0.0061 -0.0181,0.02175 -0.0519,-0.432977 -0.0311,-0.872511 -0.0517,-1.307002 -0.0131,-1.961618 0.0567,-3.923363 0.30869,-5.870908 0.26298,-1.516899 0.60803,-3.030622 1.32763,-4.405868 0.36681,-0.712955 0.76136,-1.407335 1.23493,-2.056051 0,0 2.23827,-1.29227 2.23827,-1.29227 z" id="path11383"/>
    </symbol>
    <symbol id="c">
      <path style="stroke-width:0.26458332" id="path11616" d="m 149.56367,50.262994 c -0.6146,-0.507193 -1.37709,-0.708562 -2.17184,-0.593728 -0.23856,0.03447 -0.46679,0.120417 -0.70018,0.180626 -0.22783,0.09301 -0.88882,0.414671 -0.68349,0.279045 0.44314,-0.292692 0.88548,-0.636426 1.40327,-0.754462 0.28047,-0.06394 -0.44147,0.370946 -0.63886,0.580208 -0.61363,0.650541 -0.98594,1.314947 -1.34268,2.121384 -0.0467,0.222205 -0.13088,0.439737 -0.1402,0.66661 -0.0492,1.198411 1.01015,1.634109 1.96249,1.941745 1.3472,0.174061 2.59999,-0.347221 3.80568,-0.880621 0.2651,-0.126211 0.31917,-0.148542 0.55806,-0.273058 0.0527,-0.02747 0.20822,-0.114651 0.15681,-0.08483 -5.041,2.924328 -2.73645,1.678516 -2.08775,1.197917 0.0352,-0.02381 -0.003,-0.01241 -0.004,-0.01423 -0.008,-0.0065 -0.0959,0.08407 0.0234,-0.02868 0,0 2.27985,-1.316276 2.27985,-1.316276 l 0,0 c -0.0938,0.103772 -0.0153,0.0118 -0.0132,0.02281 -0.002,0.0063 10e-4,0.01617 -0.005,0.01894 -0.9612,0.676307 -2.01735,1.226886 -3.07994,1.730812 -1.19608,0.516392 -2.43244,1.002458 -3.76212,0.855472 -0.98769,-0.324001 -2.04427,-0.67877 -1.94538,-1.951622 0.0181,-0.233191 0.11087,-0.454457 0.1663,-0.681684 0.11047,-0.241834 0.20192,-0.493289 0.33139,-0.725503 1.08721,-1.950024 3.06807,-3.12997 5.11352,-3.915812 0.24019,-0.06413 0.47496,-0.153906 0.72056,-0.192397 0.83511,-0.130879 1.60514,0.06002 2.29695,0.521504 0,0 -2.24447,1.295842 -2.24447,1.295842 z" inkscape:connector-curvature="0"/>
    </symbol>
    <symbol id="n">
      <path style="stroke-width:0.26458332" id="path11127" d="m 239.80757,48.971308 c 0.78505,-0.518294 1.47904,-1.159197 2.22525,-1.730613 0.24979,-0.182649 0.49436,-0.374054 0.75536,-0.540877 0.73786,-0.353655 1.43498,-0.809371 2.21357,-1.060966 0.12917,-0.04174 -0.0837,0.258281 -0.12734,0.386824 -0.0918,0.270396 -0.18884,0.539006 -0.27894,0.809971 -0.3428,1.030944 -0.67983,2.064145 -1.00829,3.099756 -0.36722,1.129461 -0.72772,2.261192 -1.07223,3.39781 -0.31973,1.087253 -0.0554,0.273262 -2.34329,1.536092 0.21713,-0.921713 2.28928,-2.147779 2.27218,-1.101196 0.0214,0.965904 -1.58438,1.330304 -2.5247,1.405816 4.74909,-2.619994 2.10576,-1.976673 2.24881,-1.06362 -0.29744,0.502455 -2.53924,2.075492 -2.2294,0.951468 0.23268,-0.761624 0.67074,-1.451369 1.07063,-2.134602 0.72782,-1.356567 1.61204,-2.616301 2.57185,-3.81679 0.63132,-0.587962 1.12145,-1.427411 1.8821,-1.876306 0.8167,-0.481978 1.64678,-0.940927 2.47018,-1.41139 1.17297,-0.477824 0.58298,1.506871 0.48635,1.954622 -0.43071,1.758358 -1.04528,3.462708 -1.59145,5.186601 -0.12797,0.481949 -0.32047,0.949695 -0.42262,1.438762 -0.0116,0.07551 -0.0164,0.152331 -2.7e-4,0.227237 0.0209,0.02684 0.0754,0.01445 0.10575,0.01558 0.36133,-0.08612 0.70275,-0.238834 1.04933,-0.370803 0.14362,-0.05463 0.28728,-0.109193 0.43103,-0.163486 0.0859,-0.01212 0.18058,-2.64e-4 0.26814,0.0024 0.0395,2.65e-4 0.0789,5.3e-4 0.11833,0.0011 0,0 -2.26017,1.304912 -2.26017,1.304912 l 0,0 c -0.0399,-4.5e-5 -0.0799,-8.8e-5 -0.11981,-1.33e-4 -0.0968,0.0019 -0.19694,-0.0019 -0.29257,0.01167 -0.13003,0.0444 -0.25914,0.09145 -0.38815,0.138729 -0.35806,0.132665 -0.70824,0.288986 -1.07764,0.387147 -0.0232,0.0011 -0.10728,0.02529 -0.12245,-0.0059 -0.005,-0.08052 0.006,-0.160798 0.022,-0.239702 0.13081,-0.525976 0.44271,-1.003213 0.57853,-1.528776 0.62681,-1.708846 1.24733,-3.427867 1.63269,-5.210415 0.0661,-0.4786 0.46331,-2.298296 -0.63134,-1.870914 3.36513,-1.968352 2.34829,-1.477195 1.67443,-0.931945 -0.6353,0.514054 -1.18116,1.129734 -1.72518,1.736154 -0.94801,1.193728 -1.84114,2.433188 -2.53483,3.795416 -0.3542,0.66008 -0.76732,1.320202 -0.93683,2.057352 -0.24614,0.98443 -0.0676,1.474632 -2.3173,1.673569 -0.0586,-0.936355 3.28027,-2.051105 2.32356,-1.576239 1.13546,-0.0013 -2.19219,2.104554 -2.03898,1.229027 0.0915,-0.923145 2.65093,-2.452942 2.28016,-1.527099 -2.8157,1.69577 -2.60631,2.147406 -2.15714,1.062234 0.47485,-1.159704 0.90198,-2.338727 1.29731,-3.527759 0.32815,-1.012356 0.66725,-2.024409 0.93221,-3.055829 0.0635,-0.247152 0.11149,-0.498036 0.16918,-0.746604 0.0283,-0.121816 -0.009,-0.286406 0.0887,-0.364527 0.71928,-0.575397 1.52906,-1.027496 2.2936,-1.541245 -0.29418,0.18461 -0.57209,0.394065 -0.85328,0.597402 -0.73195,0.552194 -1.41094,1.172581 -2.16389,1.695191 0,0 -2.24302,1.295009 -2.24302,1.295009 z" inkscape:connector-curvature="0"/>
    </symbol>
    <symbol id="cQ">
      <path inkscape:connector-curvature="0" d="m 135.23385,93.622593 c 0.24316,-0.344567 0.5546,-0.631661 0.91938,-0.844378 2.50834,-1.462731 1.61651,-1.122431 2.88227,-1.569807 1.23526,-0.282356 2.35353,0.121586 3.49028,0.568978 0.87352,0.364387 1.76518,0.743231 2.70858,0.888349 0.81172,0.124862 1.19732,0.06287 2.00684,0.01942 0,0 -2.0326,1.173527 -2.0326,1.173527 l 0,0 c -0.77746,0.03805 -1.22423,0.09785 -2.00489,-0.02053 -0.94914,-0.143939 -1.86515,-0.51004 -2.74951,-0.864722 -1.17705,-0.413229 -2.3484,-0.803796 -3.60465,-0.502949 -1.04233,0.376279 -0.65796,0.263734 1.50413,-0.962684 0.099,-0.05615 -0.19196,0.122674 -0.28324,0.190651 -0.23404,0.174294 -0.43793,0.38146 -0.59357,0.629152 0,0 -2.24302,1.295009 -2.24302,1.295009 z" id="path10313"/>
      <path inkscape:connector-curvature="0" d="m 141.80152,90.805482 c 0.0931,-0.04093 0.18707,-0.08015 0.27944,-0.122791 0.23406,-0.108053 0.91661,-0.472382 0.68828,-0.35269 -0.57278,0.300266 -1.11148,0.675217 -1.71564,0.905966 -0.2132,0.08143 0.35693,-0.286131 0.51748,-0.448345 0.21017,-0.212346 0.39479,-0.44854 0.59218,-0.672811 1.06359,-1.321933 1.86062,-2.855296 2.37713,-4.471091 0.1278,-0.399822 0.25623,-0.802963 0.32069,-1.217737 0.0637,-0.40957 0.041,-0.827958 0.0616,-1.241938 -0.0512,-0.376203 -0.0472,-0.764106 -0.15344,-1.128612 -0.31225,-1.071663 -1.47198,-2.751992 -2.74573,-2.763142 -0.29898,-0.0026 -0.57737,0.155705 -0.86605,0.233559 0.40474,-0.209328 0.77124,-0.73478 1.21421,-0.627984 0.34058,0.08211 -0.52156,0.471451 -0.7453,0.741035 -0.24286,0.292621 -0.45831,0.609264 -0.6486,0.938498 -0.65061,1.125643 -0.92214,2.346002 -1.19615,3.60004 -0.11389,1.393187 -0.39257,3.548335 0.43188,4.808336 0.0947,0.144788 0.24358,0.245817 0.36536,0.368724 0.14294,0.03946 0.28055,0.116641 0.42883,0.118395 0.2806,0.0033 0.7617,-0.206854 0.9959,-0.322585 0.16754,-0.08279 0.65119,-0.367109 0.48792,-0.276175 -1.82007,1.013685 -2.27765,1.360967 -1.41253,0.739082 0.29383,-0.242289 0.41946,-0.491233 0.54834,-0.839451 0,0 2.19347,-1.266399 2.19347,-1.266399 l 0,0 c -0.11752,0.363569 -0.2537,0.597386 -0.5577,0.844859 -1.14491,0.811951 -0.3049,0.230783 -2.91589,1.759929 -0.42527,0.24906 -0.99794,0.623898 -1.51647,0.617609 -0.14292,-0.0019 -0.27239,-0.08672 -0.40859,-0.13008 -0.10928,-0.13013 -0.24633,-0.241284 -0.32783,-0.390392 -0.70925,-1.297676 -0.36058,-3.51146 -0.26356,-4.905518 0.35054,-1.604637 0.70904,-3.19486 1.77769,-4.499819 0.98154,-1.198584 2.18431,-1.608778 3.60354,-2.464284 0.29298,-0.08033 0.57518,-0.245695 0.87894,-0.240996 1.20316,0.01863 2.39091,1.80199 2.66981,2.806975 0.10258,0.369649 0.0847,0.762545 0.1271,1.143818 -0.0225,0.415157 5.3e-4,0.835326 -0.0677,1.24547 -0.0699,0.420325 -0.21248,0.825825 -0.34391,1.231141 -0.50884,1.569172 -1.24881,3.08288 -2.24891,4.397065 -0.18005,0.214254 -0.34652,0.440687 -0.54014,0.642766 -1.11937,1.168307 -2.6846,1.823632 -4.12138,2.530382 0,0 2.23575,-1.290809 2.23575,-1.290809 z" id="path10325"/>
    </symbol>
    <symbol id="F">
      <path style="stroke-width:0.26458332" inkscape:connector-curvature="0" d="m 116.0965,86.233132 c -0.60694,1.792454 -0.911,3.686141 -0.94118,5.57761 -0.008,0.502682 0.0199,1.005292 0.0299,1.50794 0.16613,1.699297 0.31435,3.469664 1.02821,5.045892 0.0351,0.05975 0.0702,0.1195 0.10524,0.17925 0,0 -2.23583,1.290857 -2.23583,1.290857 l 0,0 c -0.0228,-0.06682 -0.0457,-0.133643 -0.0685,-0.200464 -0.44443,-1.706308 -0.60689,-3.468322 -0.72079,-5.22338 -0.0165,-0.498888 -0.0522,-0.997514 -0.0494,-1.496666 0.0102,-1.820767 0.25886,-3.640055 0.65698,-5.413531 0,0 2.19539,-1.267508 2.19539,-1.267508 z" id="path9170"/>
      <path style="stroke-width:0.26458332" inkscape:connector-curvature="0" d="m 113.19291,84.445216 c 1.10136,1.125027 2.79065,1.269944 4.27444,1.380857 1.23738,0.03604 2.47763,-0.01185 3.707,-0.157583 1.10904,-0.14292 1.52792,-0.700468 -1.95644,1.235999 -0.0125,-2.65e-4 -0.025,-5.29e-4 -0.0374,-0.0011 -0.004,2.65e-4 -0.008,5.3e-4 -0.0116,0.0011 0,0 2.2891,-1.321613 2.2891,-1.321613 l 0,0 c 0.002,7.94e-4 0.004,0.0019 0.005,0.0027 0.009,0.0024 0.0179,0.0047 0.0268,0.0071 -1.66313,0.998444 -1.45403,1.287899 -2.53953,1.359749 -1.16318,0.06916 -2.33021,0.07853 -3.49455,0.03493 -1.54458,-0.09896 -3.23939,-0.25028 -4.49487,-1.253588 0,0 2.23184,-1.288555 2.23184,-1.288555 z" id="path9174"/>
      <path style="stroke-width:0.26458332" inkscape:connector-curvature="0" d="m 114.87119,91.729364 c 1.07519,0.150958 2.17164,0.07932 3.25273,0.02647 0.34099,-0.0227 0.6833,-0.03478 1.02317,-0.07258 0.0687,-0.0094 0.14008,-0.0013 0.20902,0.0021 0.23493,0.0056 0.46987,0.0038 0.70478,-0.0016 0.0504,-0.0011 0.1008,-0.0028 0.15116,-0.0053 5.2e-4,-6.6e-5 10e-4,-1.32e-4 0.002,-1.99e-4 0,0 -2.29095,1.322682 -2.29095,1.322682 l 0,0 c -5.3e-4,-6.7e-5 -8e-4,-1.35e-4 -0.001,-2.01e-4 -0.0441,-0.0024 -0.0882,-0.0046 -0.13243,-0.0055 -0.2326,-0.0061 -0.46524,-0.0073 -0.69788,-0.0024 -0.0752,0.0032 -0.15047,0.0061 -0.2257,0.0075 -0.30443,0.0013 -0.60884,0.0061 -0.91325,0.0091 -1.10088,0.01413 -2.20621,0.07234 -3.30483,0.0036 0,0 2.2235,-1.283737 2.2235,-1.283737 z" id="path9176"/>
    </symbol>
    <symbol id="zeta">
      <path style="stroke-width:0.26458332" inkscape:connector-curvature="0" d="m 140.07701,76.374609 c 0.32176,1.340427 1.0073,2.53101 1.82464,3.624993 0.41321,0.432538 0.7534,1.000617 1.27054,1.325814 0.1324,0.07024 0.27149,0.06881 0.41626,0.05788 0.0543,-0.0042 0.10808,-0.01214 0.16166,-0.02143 0.41034,0.686641 -1.64863,1.306301 -2.55643,1.313381 -0.22667,-0.01365 -0.43018,-0.01077 -0.64128,0.07347 -0.0341,0.015 -0.13461,0.06373 -0.1024,0.04497 4.80344,-2.798757 0.59542,-0.205962 -0.57632,0.319429 0.0535,-0.06629 -0.2815,0.126367 -0.21453,0.08784 0.72434,-0.416705 2.88925,-1.680437 2.17498,-1.24669 -0.77685,0.471757 -1.60905,0.852892 -2.3628,1.360749 -0.65847,0.443664 2.65101,-1.707602 2.0863,-1.149453 -0.36648,0.284573 -0.64594,0.666306 -0.93609,1.024409 -0.4924,0.725027 -0.89707,1.499716 -1.24352,2.303557 -0.25892,0.750591 -0.40352,1.539822 -0.54222,2.320986 -0.12228,0.540999 -0.0811,1.06951 0.0311,1.604931 0.047,0.260432 0.16146,0.538676 0.32962,0.74653 0.14561,0.09394 0.18887,0.28126 0.32017,0.384619 0.13023,0.06976 0.28422,0.07265 0.429,0.07557 0.18157,0.0042 0.36328,0.0046 0.54491,0.0034 0.22989,0.0011 0.45973,-0.0027 0.68963,-5.3e-4 0.14081,-1.82e-4 0.28163,-0.0024 0.42237,-0.007 0.13637,0.0048 0.27281,0.0049 0.40924,0.0028 0.14578,0.0013 0.29155,7.94e-4 0.43733,7.94e-4 0.12909,-0.0019 0.2581,5.29e-4 0.38721,-0.0016 0.0508,-7.93e-4 0.10144,-0.0045 0.15217,-0.0013 0.0926,-2.64e-4 0.18514,0.0013 0.27773,0.0019 0.11315,0.08571 0.23052,0.158936 0.36173,0.216406 0.14863,0.02766 0.24778,0.03828 0.33644,0.168613 0.12297,0.07024 0.19767,0.174919 0.26867,0.295064 0.0545,0.210629 0.0335,0.430638 0.0336,0.645803 -0.002,0.834771 -0.44779,1.581229 -0.77916,2.322144 0,0 -2.06877,1.194404 -2.06877,1.194404 l 0,0 c 0.28842,-0.705877 0.6455,-1.433947 0.59766,-2.217351 -0.003,-0.209802 -8e-4,-0.427525 -0.0605,-0.630288 -0.0638,-0.127355 -0.14101,-0.22705 -0.26849,-0.295169 -0.0833,-0.133697 -0.18655,-0.146463 -0.33556,-0.169125 -0.1263,-0.06418 -0.24746,-0.134091 -0.36094,-0.21686 -0.0948,5.29e-4 -0.18944,0.0021 -0.28422,0.0019 -0.0493,0.0026 -0.0984,2.65e-4 -0.14782,-0.0013 -0.12721,-0.0021 -0.25432,2.65e-4 -0.38151,-0.0016 -0.14671,1.5e-5 -0.2934,-5.3e-4 -0.44011,7.93e-4 -0.13964,-0.0024 -0.27927,-0.0016 -0.41886,0.0028 -0.13268,-0.0046 -0.26543,-0.0072 -0.39819,-0.0069 -0.23062,0.0024 -0.46122,-0.0011 -0.69183,0.0019 -0.18696,5.29e-4 -0.37385,0.0052 -0.5608,0.0058 -0.14229,-0.0097 -0.2961,-0.01339 -0.42488,-0.07795 -0.13129,-0.09905 -0.15881,-0.300765 -0.30827,-0.39149 -0.16587,-0.211119 -0.26763,-0.495427 -0.31076,-0.757415 -0.0829,-0.549537 -0.10974,-1.086763 0.0206,-1.634805 0.13461,-0.785019 0.29923,-1.574205 0.55516,-2.32846 0.35207,-0.793973 0.74613,-1.564484 1.22284,-2.291615 0.26776,-0.345985 0.52746,-0.715563 0.87349,-0.988271 0.76275,-0.744765 -0.65909,0.630748 2.43696,-1.462046 0.69003,-0.466431 -2.87428,1.684277 -2.16242,1.25189 0.66656,-0.404879 1.65801,-1.12545 2.56561,-1.454275 0.0726,-0.03203 0.28457,-0.140282 0.21604,-0.100211 -4.65664,2.723058 -0.75397,0.361675 0.46103,-0.263228 0.21292,-0.08635 0.41939,-0.08615 0.64832,-0.07754 1.09439,0.0093 -0.78659,0.422965 -2.00058,1.317606 -0.0491,0.0057 -0.0983,0.01053 -0.14772,0.01339 -0.14338,0.0083 -0.2737,0.01558 -0.40004,-0.06725 -0.48063,-0.350565 -0.72102,-0.988415 -1.12807,-1.408068 -0.78434,-1.113009 -1.43569,-2.293741 -1.92292,-3.56825 0,0 2.21493,-1.278792 2.21493,-1.278792 z" id="path11672"/>
    </symbol>
    <symbol id="Delta">
      <path style="stroke-width:0.26458332" id="path12171" d="m 108.09552,54.344999 c 2.238,-2.566615 4.08271,-5.43274 5.8246,-8.349012 0.64194,-1.135745 1.31511,-2.25941 1.86894,-3.442356 0.20167,-0.822299 2.7364,-2.211832 2.27651,-1.378651 -2.70449,1.523709 -3.24976,1.807821 0.0114,-0.01992 -0.0538,0.07482 -5.88,3.301373 -0.006,0.009 -0.0239,0.108122 0.0476,0.321882 0.0727,0.450533 0.062,0.748096 0.14458,1.490871 0.26712,2.231742 0.0827,0.775089 0.17188,1.548669 0.26862,2.322808 0.0916,0.802225 0.12156,1.606627 0.221,2.407955 0.10088,0.648758 0.16759,1.299951 0.19486,1.955726 0.0154,0.58752 -0.0184,1.180605 0.0577,1.764604 0.0643,0.30272 0.13464,0.603938 0.22178,0.900943 0.0504,0.117999 0.0283,0.244618 0.0296,0.370176 0.001,0.08679 0.004,0.173556 0.009,0.260239 -0.008,0.07834 -0.005,0.157263 -0.002,0.235794 2.7e-4,0.01482 0.002,0.02955 0.003,0.0443 -1.93343,1.355092 -1.61543,1.280369 -2.8023,1.306502 -0.27325,0.0046 -0.54652,-5.29e-4 -0.81979,0.0013 -0.31913,2.43e-4 -0.63822,0.0032 -0.95734,7.93e-4 -0.3285,0.0013 -0.65698,-0.0019 -0.98547,0.0011 -0.25653,0.0028 -0.51317,0.005 -0.76966,-5.29e-4 -0.27712,-0.0021 -0.55425,0.0044 -0.83135,0.0033 -0.25217,-0.0021 -0.50436,5.29e-4 -0.75653,-7.94e-4 -0.241,0.0013 -0.48199,-0.0016 -0.72299,0.0019 -0.23058,1.09e-4 -0.46116,-0.0024 -0.69174,-0.0013 -0.22374,-2.46e-4 -0.44754,-7.93e-4 -0.67127,0.0024 -0.13443,0.0011 -0.26883,2.64e-4 -0.40326,0.0035 -0.15735,-0.116145 -0.33098,-0.180126 -0.52057,-0.222078 -0.16076,-0.03389 -0.32442,-0.04373 -0.48823,-0.04489 -0.0817,0.0028 -0.16333,1.46e-4 -0.24508,0.0011 -0.0569,5.3e-4 -0.11352,0.0048 -0.17028,0.0016 -0.12294,-0.0019 -0.2458,-0.0032 -0.36876,-0.0013 -0.0462,7.94e-4 -0.0923,0.0021 -0.13844,0.0039 -0.0393,-0.0024 -0.0789,-0.0029 -0.1183,-0.0029 -0.0463,6.9e-5 -0.0926,0.0013 -0.13889,0.0027 -0.004,-6e-6 -0.008,5.29e-4 -0.0115,5.29e-4 0,0 2.29133,-1.322901 2.29133,-1.322901 l 0,0 c 0.003,2.04e-4 0.006,7.94e-4 0.009,5.29e-4 0.0431,0.0016 0.0863,0.0027 0.12949,0.0027 0.0428,-5.3e-5 0.0857,-2.64e-4 0.12836,-0.0029 0.0416,0.0019 0.0832,0.0033 0.12481,0.0039 0.12454,0.0021 0.24899,5.29e-4 0.37352,-0.0013 0.0559,-0.0028 0.1117,-5.29e-4 0.1677,-3.9e-5 0.0809,-1.09e-4 0.16176,-0.0053 0.24261,5.29e-4 0.15902,0.0076 0.31899,0.01238 0.47383,0.05321 0.19261,0.04426 0.37126,0.106572 0.53944,0.211185 0.13036,0.0034 0.26069,0.0024 0.39105,0.0035 0.22098,0.0033 0.44202,0.0026 0.66302,0.0024 0.232,0.0011 0.46401,-0.0013 0.69602,-0.0013 0.23885,0.0035 0.47769,2.64e-4 0.71654,0.0019 0.25301,-0.0011 0.50604,0.0013 0.75904,-7.94e-4 0.27334,-0.0011 0.54669,0.0055 0.82005,0.0033 0.25724,-0.0052 0.51461,-0.0037 0.77188,-5.29e-4 0.3272,0.003 0.65438,-1.45e-4 0.98159,0.0011 0.31913,-0.0024 0.63823,5.3e-4 0.95737,-7.93e-4 0.27972,7.9e-5 0.55937,-0.0067 0.83902,-0.01238 1.08919,-0.0122 1.18473,-0.11938 -1.75529,1.324817 0.001,-0.01593 0.003,-0.03185 0.003,-0.04783 0.003,-0.07807 0.007,-0.156538 -5.3e-4,-0.234455 0.007,-0.09043 0.0105,-0.181055 0.0111,-0.271741 -5.3e-4,-0.124002 -0.007,-0.246779 -0.0327,-0.368387 -0.0541,-0.309412 -0.11997,-0.616384 -0.18109,-0.924433 -0.0835,-0.585293 0.0285,-1.185699 -0.0401,-1.774767 -0.0268,-0.659506 -0.0787,-1.317627 -0.16664,-1.972016 -0.10554,-0.801002 -0.12917,-1.606145 -0.21946,-2.408844 -0.10268,-0.772059 -0.19974,-1.542864 -0.27733,-2.317784 -0.0992,-0.735756 -0.19373,-1.47302 -0.31368,-2.204855 -0.0329,-0.11703 -0.16374,-0.344249 -0.10644,-0.431025 0.77422,-0.459552 1.54762,-0.920469 2.32265,-1.378659 0.0152,-0.009 -0.0179,0.03235 -0.0331,0.04144 -3.40794,2.042465 -2.85348,2.063417 -2.28334,1.328132 0.77427,-0.459629 1.54779,-0.920538 2.32282,-1.378884 0.0157,-0.0093 -0.0186,0.03318 -0.0342,0.04255 -1.14875,0.690155 -2.89396,2.086999 -2.30957,1.361757 0.59058,-0.792866 2.93501,-2.244555 2.24301,-1.230693 -0.73722,1.231051 -1.49853,2.44752 -2.25626,3.665977 -1.75674,2.79468 -3.50903,5.599684 -5.55656,8.194259 0,0 -2.11932,1.22359 -2.11932,1.22359 z" inkscape:connector-curvature="0"/>
    </symbol>
  </defs>
  <sodipodi:namedview id="base" pagecolor="#ffffff" bordercolor="#666666" borderopacity="1.0" inkscape:pageopacity="0.0" inkscape:pageshadow="2" inkscape:zoom="1" inkscape:cx="73.07239" inkscape:cy="207.19095" inkscape:document-units="mm" inkscape:current-layer="layer1" showgrid="false" inkscape:window-width="1440" inkscape:window-height="851" inkscape:window-x="0" inkscape:window-y="34" inkscape:window-maximized="0">
    <inkscape:grid type="xygrid" id="grid8876"/>
  </sodipodi:namedview>
  <metadata id="metadata7">
    <rdf:RDF>
      <cc:Work rdf:about="">
        <dc:format>image/svg+xml</dc:format>
        <dc:type rdf:resource="http://purl.org/dc/dcmitype/StillImage"/>
        <dc:title/>
      </cc:Work>
    </rdf:RDF>
  </metadata>
  <g inkscape:label="dia-1" inkscape:groupmode="layer" id="layer1" sodipodi:insensitive="true">
    <use id="use10087" transform="matrix(3.3568472,0,0,3.3568472,-340.38694,-89.040536)" xlink:href="#i" x="0" y="0" width="100%" height="100%" style="fill:#cccccc"/>
    <use id="use10114" transform="matrix(3.3568472,0,0,3.3568472,-165.50634,-77.939201)" xlink:href="#j" x="0" y="0" width="100%" height="100%" style="fill:#cccccc"/>
    <use id="use10140" transform="matrix(3.3568472,0,0,3.3568472,-237.25171,-247.92917)" xlink:href="#k" x="0" y="0" width="100%" height="100%" style="fill:#cccccc"/>
    <path style="opacity:1;fill:#666666;fill-opacity:1;stroke:none;stroke-width:0.99999994;stroke-linecap:butt;stroke-linejoin:miter;stroke-miterlimit:4;stroke-dasharray:none;stroke-dashoffset:0;stroke-opacity:1" id="path10172" d="m 269.98622,82.93868 c 6.46996,17.56539 14.44617,34.54091 23.10728,51.12285 5.51909,10.12743 11.81559,19.8494 18.93612,28.92591 0.99771,0.9988 1.72393,2.39679 2.91356,3.20449 0.006,-0.006 0.0119,-0.0117 0.0183,-0.0166 0,0 -4.89458,8.71459 -4.89458,8.71459 l 0,0 c -0.003,0.001 -0.006,1.9e-4 -0.009,5.7e-4 -0.90378,-1.25809 -1.66733,-2.61337 -2.52003,-3.90513 -6.32175,-10.14903 -12.37869,-20.46559 -17.65569,-31.20569 -2.15427,-4.31309 -8.29758,-16.59685 -10.34968,-20.77172 -3.98378,-8.10475 -7.83857,-16.29874 -12.26408,-24.17905 -0.64489,-1.14837 -1.3798,-2.24385 -2.0697,-3.36578 0,0 4.78758,-8.52409 4.78758,-8.52409 z" inkscape:connector-curvature="0"/>
    <path style="opacity:1;fill:#666666;fill-opacity:1;stroke:none;stroke-width:0.99999994;stroke-linecap:butt;stroke-linejoin:miter;stroke-miterlimit:4;stroke-dasharray:none;stroke-dashoffset:0;stroke-opacity:1" id="path10194" d="m 254.671,103.95326 c 2.24471,-5.82092 3.96393,-11.81621 5.54801,-17.84423 0.12806,-1.53973 1.10185,-3.11986 1.06323,-4.66984 11.96604,-4.14566 11.83886,-3.56219 8.59693,-1.13839 -0.24131,0.16732 -0.39514,0.2287 -0.32741,0.55111 0.40646,2.05338 3.11103,2.95551 4.73896,3.74077 3.1115,1.21267 6.36875,2.00719 9.64785,2.61068 0.46429,0.0778 0.93144,0.16643 1.40178,0.1778 -9.67615,2.10684 -12.23306,3.88188 -9.15766,1.82602 0,0 9.60649,-2.26328 9.60649,-2.26328 l 0,0 c -3.05612,2.24037 -0.19429,0.2048 -10.17624,2.72903 -0.3939,-0.0449 -0.78158,-0.14845 -1.16918,-0.2326 -3.13138,-0.74732 -6.2345,-1.62484 -9.27011,-2.69966 -1.76459,-0.78282 -4.60225,-1.55004 -5.29322,-3.61018 -0.10712,-0.34391 0.0616,-0.37845 0.3255,-0.55066 3.60805,-2.53622 0.50918,-2.25242 10.80031,-3.43158 -0.85682,1.47627 -1.0776,3.30367 -1.79855,4.84307 -1.97509,5.84078 -3.85975,11.71884 -5.16074,17.75299 0,0 -9.37595,2.20897 -9.37595,2.20897 z" inkscape:connector-curvature="0"/>
    <g id="g10200" transform="matrix(-1,0,0,1,449.63248,-60)" style="fill:#666666">
      <path style="opacity:1;fill:#666666;fill-opacity:1;stroke:none;stroke-width:0.99999994;stroke-linecap:butt;stroke-linejoin:miter;stroke-miterlimit:4;stroke-dasharray:none;stroke-dashoffset:0;stroke-opacity:1" id="path10196" d="m 257.98622,142.93868 c 6.46996,17.56539 14.44617,34.54091 23.10728,51.12285 5.51909,10.12743 11.81559,19.8494 18.93612,28.92591 0.99771,0.9988 1.72393,2.39679 2.91356,3.20449 0.006,-0.006 0.0119,-0.0117 0.0183,-0.0166 0,0 -4.89458,8.71459 -4.89458,8.71459 l 0,0 c -0.003,0.001 -0.006,1.9e-4 -0.009,5.7e-4 -0.90378,-1.25809 -1.66733,-2.61337 -2.52003,-3.90513 -6.32175,-10.14903 -12.37869,-20.46559 -17.65569,-31.20569 -2.15427,-4.31309 -8.29758,-16.59685 -10.34968,-20.77172 -3.98378,-8.10475 -7.83857,-16.29874 -12.26408,-24.17905 -0.64489,-1.14837 -1.3798,-2.24385 -2.0697,-3.36578 0,0 4.78758,-8.52409 4.78758,-8.52409 z" inkscape:connector-curvature="0"/>
      <path style="opacity:1;fill:#666666;fill-opacity:1;stroke:none;stroke-width:0.99999994;stroke-linecap:butt;stroke-linejoin:miter;stroke-miterlimit:4;stroke-dasharray:none;stroke-dashoffset:0;stroke-opacity:1" id="path10198" d="m 242.671,163.95326 c 2.24471,-5.82092 3.96393,-11.81621 5.54801,-17.84423 0.12806,-1.53973 1.10185,-3.11986 1.06323,-4.66984 11.96604,-4.14566 11.83886,-3.56219 8.59693,-1.13839 -0.24131,0.16732 -0.39514,0.2287 -0.32741,0.55111 0.40646,2.05338 3.11103,2.95551 4.73896,3.74077 3.1115,1.21267 6.36875,2.00719 9.64785,2.61068 0.46429,0.0778 0.93144,0.16643 1.40178,0.1778 -9.67615,2.10684 -12.23306,3.88188 -9.15766,1.82602 0,0 9.60649,-2.26328 9.60649,-2.26328 l 0,0 c -3.05612,2.24037 -0.19429,0.2048 -10.17624,2.72903 -0.3939,-0.0449 -0.78158,-0.14845 -1.16918,-0.2326 -3.13138,-0.74732 -6.2345,-1.62484 -9.27011,-2.69966 -1.76459,-0.78282 -4.60225,-1.55004 -5.29322,-3.61018 -0.10712,-0.34391 0.0616,-0.37845 0.3255,-0.55066 3.60805,-2.53622 0.50918,-2.25242 10.80031,-3.43158 -0.85682,1.47627 -1.0776,3.30367 -1.79855,4.84307 -1.97509,5.84078 -3.85975,11.71884 -5.16074,17.75299 0,0 -9.37595,2.20897 -9.37595,2.20897 z" inkscape:connector-curvature="0"/>
    </g>
    <path style="opacity:1;fill:#666666;fill-opacity:1;stroke:none;stroke-width:0.99999994;stroke-linecap:butt;stroke-linejoin:miter;stroke-miterlimit:4;stroke-dasharray:none;stroke-dashoffset:0;stroke-opacity:1" id="path10206" d="m 164.59623,235.15164 c 2.56274,6.00683 5.87311,11.75111 9.93627,16.87556 1.45371,1.83341 3.06394,3.53706 4.59591,5.30559 2.19604,1.8219 4.26889,3.80345 6.58811,5.4657 8.37838,6.00501 16.6764,9.89757 26.92801,11.52607 3.68449,0.58529 7.42772,0.99373 11.15686,0.88673 3.90843,-0.11215 7.75234,-1.02702 11.62851,-1.54053 9.73947,-2.08345 18.93862,-5.84801 27.83526,-10.23644 1.97454,-0.97398 3.85407,-2.13551 5.84186,-3.08217 1.09323,-0.52063 -1.97568,1.52358 -3.15408,1.80215 -1.00142,0.23673 1.73081,-1.11352 2.59622,-1.67027 0.90571,-0.98146 3.15869,-1.66928 3.58155,-3.10322 -0.12932,-0.0672 -0.24788,-5e-5 -0.37047,0.0578 23.04932,-13.28412 -0.84515,0.65399 0.0339,-0.0276 -0.37933,0.009 -1.49775,0.004 -2.00738,0.001 -2.85431,0.22556 -5.70287,0.53867 -8.55259,0.82368 -0.84961,0.0865 -1.6995,0.17047 -2.54871,0.2609 -0.1875,0.0137 -0.31766,-0.20766 -0.47099,-0.31438 -0.91278,-0.45143 -1.79291,-0.93787 -2.76315,-1.26824 -0.55272,-0.16685 -1.11134,-0.32404 -1.68225,-0.41567 -3.76773,-0.41455 6.11728,-5.08098 9.45078,-4.94941 3.4745,0.48808 6.90376,1.21286 10.41236,1.40422 1.52359,-0.17852 2.06653,-0.17287 3.50793,-0.59513 3.50036,-1.02546 11.1836,-5.97304 -4.3511,2.9493 0.31797,-0.24843 0.73681,-0.4471 0.9526,-0.80421 0.0122,-0.0462 -0.0392,-0.0133 -0.051,-0.0174 0.0485,-0.0364 -0.70361,0.36186 -0.53225,0.26291 2.68931,-1.55289 10.76512,-6.19789 8.07896,-4.63955 -3.02166,1.75299 -6.1653,3.30619 -9.08548,5.22347 -2.47796,1.62694 5.13128,-2.9731 7.75609,-4.35064 0.31851,-0.16715 -0.54311,0.4718 -0.81466,0.7077 -2.5322,2.07672 -3.09336,5.06921 -3.59418,8.13677 -0.70438,4.90796 -0.0788,9.82423 0.91101,14.64012 0.30219,1.01874 0.41026,2.13561 0.88047,3.10314 -0.0144,0.0506 0.0296,0.0326 0.0444,0.0489 0,0 -8.6563,4.99772 -8.6563,4.99772 l 0,0 c -0.006,-0.0225 -0.0303,-0.0313 -0.0184,-0.0639 -0.21431,-1.10292 -0.31379,-2.22592 -0.47621,-3.33654 -0.5906,-4.89351 -1.19642,-9.82838 -0.70269,-14.76039 0.26333,-3.02703 0.7505,-5.89592 3.23161,-7.92744 3.70964,-3.28808 -2.51902,2.14585 9.92199,-6.09316 2.54258,-1.68381 -10.55153,6.1208 -7.91348,4.59089 3.24688,-1.883 6.31193,-3.88096 9.6269,-5.53855 0.012,0.006 0.0675,-0.0308 0.0426,0.0222 -0.29602,0.38693 -0.74747,0.62814 -1.13497,0.90951 -5.38587,3.12349 -9.62598,6.67896 -15.76364,7.23377 -3.60715,-0.25981 -7.15428,-0.99409 -10.76699,-1.19947 -4.25847,0.0979 4.37235,-5.53117 7.67848,-4.94018 0.52087,0.14931 1.03674,0.31542 1.54875,0.49276 0.97853,0.34797 1.89717,0.79885 2.83671,1.22576 0.17098,0.0903 0.34461,0.24979 0.53059,0.27997 0.76057,-0.01 1.51998,-0.0603 2.27909,-0.10524 2.87361,-0.19704 5.73537,-0.50608 8.59509,-0.84821 0.4878,-0.0156 2.01174,-0.10856 2.21983,-0.12414 -2.26943,1.6358 -21.40189,12.30091 -0.006,0.0116 0.11893,-0.0553 0.23956,-0.12435 0.35794,-0.0506 -0.26347,1.12691 -3.78555,2.9105 -4.43349,3.59509 -14.4242,9.16196 -29.62015,17.12484 -46.42095,20.86646 -3.92739,0.54308 -7.81976,1.49264 -11.78216,1.62924 -5.86638,0.20225 -16.45011,-1.32834 -22.05489,-3.16521 -3.01522,-0.98819 -5.81602,-2.5531 -8.62029,-4.03773 -7.39041,-3.91262 -8.55991,-5.15699 -15.11321,-10.03157 -2.86906,-3.11891 -6.29798,-6.68349 -8.87529,-10.08972 -2.67185,-3.53116 -4.7506,-7.52781 -7.34386,-11.11746 0,0 8.47475,-4.8929 8.47475,-4.8929 z" inkscape:connector-curvature="0"/>
    <use id="use10449" transform="matrix(3.7795276,0,0,3.7795276,-326.59481,-14.87953)" xlink:href="#q" x="0" y="0" width="100%" height="100%" style="fill:#2d2d2d"/>
    <g id="g10507" style="fill:#2d2d2d" transform="translate(-384,51)">
      <use height="100%" width="100%" y="0" x="0" xlink:href="#zero" transform="matrix(2.4587954,0,0,2.4587954,324.20013,-135.43247)" id="use10392" style="fill:#2d2d2d"/>
      <use height="100%" width="100%" y="0" x="0" xlink:href="#c" transform="matrix(3.7795276,0,0,3.7795276,-52.123066,-135.94914)" id="use10473" style="fill:#2d2d2d"/>
    </g>
    <g id="g10511" style="fill:#2d2d2d" transform="translate(-290,51)">
      <use height="100%" width="100%" y="0" x="0" xlink:href="#three" transform="matrix(2.4587954,0,0,2.4587954,369.46952,-131.4052)" id="use10426" style="fill:#2d2d2d"/>
      <use height="100%" width="100%" y="0" x="0" xlink:href="#n" transform="matrix(3.7795276,0,0,3.7795276,-306.35933,-129.5294)" id="use10495" style="fill:#2d2d2d"/>
    </g>
    <g transform="translate(-371,354)" style="fill:#2d2d2d" id="g10515">
      <use style="fill:#2d2d2d" id="use10517" transform="matrix(2.4587954,0,0,2.4587954,324.20013,-135.43247)" xlink:href="#zero" x="0" y="0" width="100%" height="100%"/>
      <use style="fill:#2d2d2d" id="use10519" transform="matrix(3.7795276,0,0,3.7795276,-52.123066,-135.94914)" xlink:href="#c" x="0" y="0" width="100%" height="100%"/>
    </g>
    <use style="fill:#2d2d2d" height="100%" width="100%" y="0" x="0" xlink:href="#q" transform="matrix(3.7795276,0,0,3.7795276,-212.59481,92.12047)" id="use10521"/>
    <g transform="translate(-361,355)" style="fill:#2d2d2d" id="g10523">
      <use style="fill:#2d2d2d" id="use10525" transform="matrix(2.4587954,0,0,2.4587954,369.46952,-131.4052)" xlink:href="#three" x="0" y="0" width="100%" height="100%"/>
      <use style="fill:#2d2d2d" id="use10527" transform="matrix(3.7795276,0,0,3.7795276,-306.35933,-129.5294)" xlink:href="#n" x="0" y="0" width="100%" height="100%"/>
    </g>
    <path style="opacity:1;fill:#666666;fill-opacity:1;stroke:none;stroke-width:0.99999994;stroke-linecap:butt;stroke-linejoin:miter;stroke-miterlimit:4;stroke-dasharray:none;stroke-dashoffset:0;stroke-opacity:1" id="path10533" d="m 192.0561,404.56429 c 8.32132,0.45456 16.66315,0.36661 24.99276,0.23181 3.05329,-0.0759 6.10894,-0.11494 9.15984,-0.26769 3.53003,-0.21289 4.02554,-2.00904 -8.46803,4.70888 0,0 8.57895,-4.95305 8.57895,-4.95305 l 0,0 c -12.25239,7.58154 -5.07088,5.4751 -8.67277,5.18735 -2.74077,-0.16602 -5.48873,-0.18674 -8.23252,-0.26769 -8.59797,-0.1474 -17.20452,-0.18871 -25.79579,0.23181 0,0 8.43756,-4.87142 8.43756,-4.87142 z" inkscape:connector-curvature="0"/>
    <path inkscape:connector-curvature="0" d="m 192.0561,414.56429 c 8.32132,0.45456 16.66315,0.36661 24.99276,0.23181 3.05329,-0.0759 6.10894,-0.11494 9.15984,-0.26769 3.53003,-0.21289 4.02554,-2.00904 -8.46803,4.70888 0,0 8.57895,-4.95305 8.57895,-4.95305 l 0,0 c -12.25239,7.58154 -5.07088,5.4751 -8.67277,5.18735 -2.74077,-0.16602 -5.48873,-0.18674 -8.23252,-0.26769 -8.59797,-0.1474 -17.20452,-0.18871 -25.79579,0.23181 0,0 8.43756,-4.87142 8.43756,-4.87142 z" id="path10535" style="opacity:1;fill:#666666;fill-opacity:1;stroke:none;stroke-width:0.99999994;stroke-linecap:butt;stroke-linejoin:miter;stroke-miterlimit:4;stroke-dasharray:none;stroke-dashoffset:0;stroke-opacity:1"/>
    <use id="use10561" transform="matrix(3.0485942,0,0,3.0485942,-11.385404,64.686817)" xlink:href="#cQ" x="0" y="0" width="100%" height="100%" style="fill:#79d1ed;fill-opacity:1;stroke:none;stroke-width:0.60827708;stroke-miterlimit:4;stroke-dasharray:none;stroke-opacity:1"/>
    <rect style="opacity:1;fill:none;fill-opacity:1;fill-rule:evenodd;stroke:#79d1ed;stroke-width:0.99999994;stroke-linecap:butt;stroke-linejoin:miter;stroke-miterlimit:4;stroke-dasharray:none;stroke-dashoffset:0;stroke-opacity:1" id="rect10575" width="387" height="350" x="58" y="8" ry="10"/>
  </g>
  
  
</svg>
