<?xml version="1.0" encoding="UTF-8" standalone="no"?>
<svg
   xmlns:dc="http://purl.org/dc/elements/1.1/"
   xmlns:cc="http://creativecommons.org/ns#"
   xmlns:rdf="http://www.w3.org/1999/02/22-rdf-syntax-ns#"
   xmlns:svg="http://www.w3.org/2000/svg"
   xmlns="http://www.w3.org/2000/svg"
   xmlns:sodipodi="http://sodipodi.sourceforge.net/DTD/sodipodi-0.dtd"
   xmlns:inkscape="http://www.inkscape.org/namespaces/inkscape"
   width="64"
   height="64"
   viewBox="0 0 64 64"
   version="1.1"
   id="svg2"
   inkscape:version="0.91 r13725"
   sodipodi:docname="copyleft.svg">
  <metadata
     id="metadata9">
    <rdf:RDF>
      <cc:Work
         rdf:about="">
        <dc:format>image/svg+xml</dc:format>
        <dc:type
           rdf:resource="http://purl.org/dc/dcmitype/StillImage" />
        <dc:title />
      </cc:Work>
    </rdf:RDF>
  </metadata>
  <defs
     id="defs7" />
  <sodipodi:namedview
     pagecolor="#ffffff"
     bordercolor="#666666"
     borderopacity="1"
     objecttolerance="10"
     gridtolerance="10"
     guidetolerance="10"
     inkscape:pageopacity="0"
     inkscape:pageshadow="2"
     inkscape:window-width="1920"
     inkscape:window-height="1056"
     id="namedview5"
     showgrid="false"
     inkscape:zoom="4"
     inkscape:cx="18.004237"
     inkscape:cy="72"
     inkscape:window-x="0"
     inkscape:window-y="24"
     inkscape:window-maximized="1"
     inkscape:current-layer="svg2" />
  <g
     id="layer1" />
  <circle
     style="opacity:1;fill:none;fill-opacity:1;stroke:#5b5b5b;stroke-width:5;stroke-miterlimit:4;stroke-dasharray:none;stroke-opacity:1"
     id="path8708"
     cx="32"
     cy="32"
     r="29" />
  <path
     id="path10012"
     x="0"
     y="0"
     style="fill:#5b5b5b;fill-opacity:1;stroke:#5b5b5b;stroke-width:2;stroke-miterlimit:4;stroke-dasharray:none;stroke-opacity:1"
     d="m 45.090104,18.829242 c -3.46872,0.250801 -6.838591,1.025045 -10.132111,1.934189 -3.738226,1.139018 -7.566555,1.733094 -11.537672,1.628923 -0.656941,-0.147486 -1.331198,-0.249017 -1.970819,-0.442466 -0.594841,-0.1799 -2.269651,-0.932388 -1.718278,-0.673268 1.627613,0.764911 3.22396,1.596436 4.949973,2.192027 0.431166,0.14878 -0.702245,-0.519521 -0.99072,-0.825807 -0.555933,-0.590251 -0.67256,-1.008274 -0.965134,-1.681464 -0.02409,-0.220172 -0.131121,-0.444949 -0.07227,-0.6605 0.354189,-1.297503 2.659788,-1.714147 3.922949,-1.967955 2.904697,-0.47307 5.755164,0.285869 8.402454,1.230812 4.794094,2.155189 -1.839558,-0.960673 -2.837647,-1.304529 -0.612189,-0.210911 1.059539,0.665022 1.563558,1.023856 1.344533,0.957248 2.523178,2.031209 3.654881,3.158537 2.221968,2.425875 3.780324,5.201248 5.005369,8.06442 0.807569,1.991848 1.083052,4.073431 1.186569,6.161935 0.0943,1.658965 0.01901,3.351148 -0.603367,4.939214 -0.335393,0.97556 -1.097891,1.704554 -1.96396,2.378339 -1.050199,0.724106 -2.257018,1.127399 -3.564756,1.393616 -0.898891,0.15923 -1.816514,0.220661 -2.733769,0.226105 -0.806794,-0.02215 -1.648052,-0.29247 -2.350093,-0.617464 -0.198227,-0.09064 -0.790414,-0.366252 -0.594677,-0.271917 1.964834,0.946942 3.928386,1.89584 5.902092,2.82981 0.214816,0.101648 -0.410476,-0.229849 -0.624619,-0.332477 -2.424455,-1.161939 -4.846636,-2.327542 -7.290421,-3.460862 -0.409404,-0.189867 -0.858247,-0.314938 -1.271492,-0.498903 -1.011964,-0.499315 -2.14919,-0.711761 -3.298089,-0.850974 -1.216675,-0.09759 -2.441359,-0.05588 -3.661625,-0.05732 -1.461512,-0.06175 -2.837387,0.381002 -4.152642,0.862123 -1.350794,0.533977 -2.529015,1.306359 -3.76235,1.998515 0,0 6.555934,3.162378 6.555934,3.162378 l 0,0 c 1.2242,-0.704545 2.384612,-1.503303 3.762708,-1.998337 1.338957,-0.450184 2.706198,-0.896256 4.177205,-0.850281 1.242706,-0.0032 2.489388,-0.0026 3.728058,0.08936 1.136328,0.122017 2.255109,0.340306 3.254223,0.829818 0.242552,0.107635 2.363383,1.057963 1.232906,0.480291 -12.747323,-6.51392 -1.34146,-0.317238 2.663122,1.262213 0.726195,0.337432 1.590949,0.622027 2.426301,0.654232 0.888002,-0.03405 1.770833,-0.103603 2.639469,-0.271596 1.296841,-0.291914 2.530976,-0.671099 3.59789,-1.377638 0.883036,-0.659852 1.590448,-1.434344 1.905255,-2.406657 0.531804,-1.624119 0.579847,-3.317734 0.494938,-4.991515 -0.10651,-2.127662 -0.423131,-4.22185 -1.330892,-6.231553 -1.262856,-2.835967 -2.797113,-5.614776 -4.972838,-8.048724 -4.100775,-3.977285 -9.261341,-6.759499 -15.013359,-8.971419 -2.710741,-0.981391 -5.652969,-1.785167 -8.640321,-1.345552 -1.194905,0.243633 -3.682571,0.672282 -3.969748,1.945377 -0.05153,0.228666 0.08802,0.459542 0.13201,0.689313 1.752391,3.604629 5.525807,4.406673 9.790478,6.482139 0.532139,0.258971 1.094956,0.47818 1.67452,0.652161 0.639544,0.191984 1.312676,0.29439 1.96902,0.441588 1.702938,0.04065 2.440054,0.107831 4.150658,-0.0549 2.534252,-0.241038 4.97954,-0.930389 7.397104,-1.569184 3.411244,-0.860215 6.858421,-1.789375 10.462036,-1.775043 0,0 -6.577999,-3.17302 -6.577999,-3.17302 z"
     inkscape:connector-curvature="0" />
</svg>
