<?xml version="1.0" encoding="UTF-8" standalone="no"?>
<svg
   xmlns:dc="http://purl.org/dc/elements/1.1/"
   xmlns:cc="http://creativecommons.org/ns#"
   xmlns:rdf="http://www.w3.org/1999/02/22-rdf-syntax-ns#"
   xmlns:svg="http://www.w3.org/2000/svg"
   xmlns="http://www.w3.org/2000/svg"
   xmlns:sodipodi="http://sodipodi.sourceforge.net/DTD/sodipodi-0.dtd"
   xmlns:inkscape="http://www.inkscape.org/namespaces/inkscape"
   width="500"
   height="500"
   viewBox="0 0 500 500"
   id="svg9708"
   version="1.1"
   inkscape:version="0.91 r13725"
   sodipodi:docname="light.transparent.svg"
   inkscape:export-filename="/Users/andrea/Desktop/cocone-logo.1.png"
   inkscape:export-xdpi="96"
   inkscape:export-ydpi="96">
  <sodipodi:namedview
     pagecolor="#ffffff"
     bordercolor="#000000"
     borderopacity="1"
     inkscape:pageopacity="1"
     inkscape:pageshadow="2"
     inkscape:zoom="1"
     inkscape:document-units="px"
     inkscape:current-layer="g4201"
     showgrid="false"
     inkscape:window-maximized="1"
     inkscape:showpageshadow="false"
     borderlayer="true"
     id="namedview9710"
     inkscape:cx="-2.5435595"
     inkscape:cy="117.86842"
     inkscape:window-width="1920"
     inkscape:window-height="1056"
     inkscape:window-x="0"
     inkscape:window-y="24"
     showguides="false">
    <inkscape:grid
       type="xygrid"
       color="#b5357b"
       opacity="0.1254902"
       empcolor="#5d6e79"
       empopacity="0.25098039"
       enabled="true"
       empspacing="15"
       id="grid9712" />
  </sodipodi:namedview>
  <defs
     id="defs9714" />
  <metadata
     id="metadata9716">
    <rdf:RDF>
      <cc:Work>
        <dc:format>image/svg+xml</dc:format>
        <dc:type
           rdf:resource="http://purl.org/dc/dcmitype/StillImage" />
        <dc:title></dc:title>
      </cc:Work>
    </rdf:RDF>
  </metadata>
  <g
     id="layer1"
     inkscape:groupmode="layer"
     inkscape:label="Layer 1"
     transform="translate(0,-268)">
    <g
       id="g4201"
       transform="translate(580,0)">
      <circle
         style="opacity:1;fill:#f5f3f2;fill-opacity:1;stroke:none;stroke-width:1;stroke-miterlimit:4;stroke-dasharray:none;stroke-dashoffset:0;stroke-opacity:1"
         id="circle4199"
         cx="-335.20422"
         cy="571.55634"
         r="157.5" />
      <circle
         r="157.5"
         cy="571.55634"
         cx="-335.20422"
         id="circle4157"
         style="opacity:0.2;fill:none;fill-opacity:1;stroke:#bdcdd4;stroke-width:1;stroke-miterlimit:4;stroke-dasharray:none;stroke-dashoffset:0;stroke-opacity:1" />
      <ellipse
         ry="32.959282"
         rx="19.959284"
         cy="557"
         cx="-261"
         id="ellipse4159"
         style="opacity:0.2;fill:#19aeff;fill-opacity:1;stroke:#bdcdd4;stroke-width:1.08143413;stroke-miterlimit:4;stroke-dasharray:none;stroke-dashoffset:0;stroke-opacity:1" />
      <ellipse
         style="opacity:0.2;fill:#19aeff;fill-opacity:1;stroke:#bdcdd4;stroke-width:1.08143413;stroke-miterlimit:4;stroke-dasharray:none;stroke-dashoffset:0;stroke-opacity:1"
         id="ellipse4161"
         cx="-407"
         cy="560"
         rx="19.959284"
         ry="32.959282" />
      <path
         style="opacity:1;fill:#999999;fill-opacity:1;stroke:none;stroke-width:0.99999994;stroke-linecap:butt;stroke-linejoin:miter;stroke-miterlimit:4;stroke-dasharray:none;stroke-dashoffset:0;stroke-opacity:1"
         id="path4163"
         d="m -387.15638,620.47564 c 0.67962,5.33437 2.02528,10.52563 3.39416,15.71782 2.74597,8.84696 7.83604,16.77472 14.6423,23.06782 1.55664,1.43927 3.275,2.69312 4.9125,4.03967 1.97212,1.32708 3.85258,2.80173 5.91636,3.98122 7.01813,4.01102 15.29279,6.85031 23.32519,7.79291 7.71819,0.90572 10.62758,0.15079 18.27961,-0.68522 8.12265,-1.88347 8.97349,-1.6617 16.57245,-5.07433 2.55671,-1.14819 9.90941,-5.23978 7.46732,-3.86455 -15.65189,8.81415 -9.36587,5.33343 -3.24712,-0.14204 1.72673,-1.5452 3.30538,-3.2483 4.95807,-4.87246 3.95881,-4.61174 8.13972,-9.42514 10.29607,-15.20867 0.009,-0.14649 0.45093,-1.15833 0.0127,-1.18549 7.11397,-4.08009 14.22185,-8.17084 21.34192,-12.24029 0.0642,-0.0367 -0.0707,0.0707 -0.0543,0.0909 5.1512,6.36104 -14.20371,8.13913 -21.30619,12.20761 9e-5,-0.003 1.8e-4,-0.007 2.7e-4,-0.0102 7.1125,-4.08367 14.22028,-8.17558 21.3375,-12.25102 7.11858,-4.07621 -14.21834,8.18526 -21.33696,12.26143 9e-4,-0.004 0.002,-0.008 0.003,-0.0125 7.11191,-4.08338 14.2191,-8.17498 21.33572,-12.25013 7.11964,-4.07686 -14.22025,8.18686 -21.33982,12.26383 9e-4,-0.004 0.002,-0.008 0.003,-0.0125 7.11273,-4.08403 14.22078,-8.17623 21.33819,-12.25209 7.12041,-4.07759 -14.22197,8.18804 -21.34233,12.26573 1.59562,-1.47287 2.80791,-3.33528 4.05469,-5.10664 0.59435,-0.88015 1.20552,-1.75202 1.74294,-2.66898 3.73039,-7.35659 14.29603,-8.23204 21.46418,-12.31282 -40.87635,23.33757 -16.12605,9.12718 0.0578,-0.12353 -1.45174,8.07937 -14.24862,8.15557 -21.38798,12.2069 47.44563,-27.11833 9.62606,-5.39647 -4.7e-4,0.0754 -0.0301,0.0171 0.0181,-0.0669 0.0272,-0.10036 7.12734,-4.07165 14.25468,-8.14331 21.38202,-12.21497 -0.12396,-0.002 -0.0143,0.0687 -0.0191,0.0917 0,0 -21.62257,12.48379 -21.62257,12.48379 l 0,0 c 5.93207,-6.10856 8.66527,-6.53299 21.87842,-12.84212 -0.53671,0.56223 -57.35536,33.40001 0.003,0.008 -5.84694,5.97464 -27.94163,18.94774 -21.73424,12.68972 7.23602,-4.21875 14.47114,-8.43903 21.70806,-12.65623 0.0859,-0.05 -0.11881,0.16673 -0.20458,0.21698 -7.22628,4.23396 -14.47101,8.43638 -21.70651,12.65457 0.0134,-0.0104 0.0267,-0.0207 0.0401,-0.0311 5.90028,-6.01094 27.68774,-19.0123 21.63243,-12.56902 -0.88375,1.01203 -1.71603,2.06801 -2.53973,3.12901 -1.12831,1.49993 -2.20385,3.05238 -3.21521,4.62196 -0.19606,0.15651 -57.86828,33.5759 7.2e-4,-7.7e-4 -0.20428,0.16306 -57.86258,33.57304 7.9e-4,-8.2e-4 -0.20982,0.16749 -57.85634,33.57086 0.006,-0.004 -0.0462,0.037 -0.0874,0.0812 -0.13859,0.11102 -57.25484,33.30848 -0.52435,0.19343 0.20977,-0.1996 0.0875,0.40824 -0.60728,1.23911 -0.80874,1.64511 -4.19266,6.341 -9.1995,12.1117 -14.44025,17.60132 -2.74891,2.59357 -8.49142,8.23462 -11.63125,10.26676 -7.41085,4.79639 -15.08441,9.17694 -22.72616,13.59618 -7.30249,4.22305 -15.11177,7.40528 -23.49898,8.62666 -6.83707,0.68246 -11.49137,1.48332 -18.43037,0.77225 -2.94386,-0.30167 -5.81998,-1.08474 -8.70447,-1.74584 -2.96218,-0.67892 -5.95773,-1.27753 -8.82914,-2.27275 -3.89993,-1.35171 -9.83263,-4.79379 -13.42864,-6.76208 -4.69733,-3.97312 -9.89641,-8.43632 -13.74886,-13.25929 -1.12065,-1.40297 -2.01381,-2.97395 -2.97991,-4.48749 -3.1456,-4.92804 -2.28586,-3.4579 -4.45533,-8.42004 -1.9171,-4.79223 -3.20888,-9.85423 -5.67463,-14.40119 0,0 21.20877,-12.24489 21.20877,-12.24489 z"
         inkscape:connector-curvature="0" />
      <path
         style="opacity:1;fill:#999999;fill-opacity:1;stroke:none;stroke-width:0.99999994;stroke-linecap:butt;stroke-linejoin:miter;stroke-miterlimit:4;stroke-dasharray:none;stroke-dashoffset:0;stroke-opacity:1"
         id="path4165"
         d="m -281.70653,638.77446 c 2.65846,-0.1873 5.2581,-0.80634 7.82235,-1.50199 2.4403,-0.75772 4.79247,-1.70308 7.11033,-2.77119 1.95171,-0.6391 3.70946,-1.66876 5.55318,-2.54142 -35.30226,20.67214 -24.64084,14.93433 -17.50661,9.78183 1.43772,-0.70526 2.52217,-1.87717 3.79051,-2.81765 0.94734,-0.92816 2.04911,-1.66629 2.94219,-2.65074 0.86153,-0.87771 1.78598,-1.68924 2.67629,-2.53707 0.17303,-0.16508 0.34495,-0.33135 0.5126,-0.50188 -0.27725,0.0237 -0.57204,0.0254 -0.85641,0.12819 34.31164,-21.23148 25.42872,-16.51398 18.94914,-10.2007 -1.11279,1.21114 -1.83332,2.62008 -2.29091,4.18671 -0.51165,1.92467 -0.55967,3.92684 -0.58435,5.90693 -0.0926,1.89626 0.2796,3.7624 0.73241,5.59335 0.54922,1.2361 1.14969,2.45439 1.88572,3.58958 0.95129,1.41936 2.12139,2.6795 3.51492,3.66996 0.39661,0.25832 0.80127,0.51625 1.25112,0.67002 0.015,0.0134 0.0333,0.003 0.0492,0.004 0,0 -21.64324,12.49573 -21.64324,12.49573 l 0,0 c -0.007,-0.007 -0.0148,-0.0125 -0.0208,-0.0203 -0.29112,-0.29529 -0.57931,-0.59347 -0.86778,-0.89134 -1.16737,-1.21047 -2.30886,-2.44286 -3.34855,-3.76601 -0.93317,-1.02689 -1.56556,-2.22231 -1.91902,-3.57036 -0.27002,-1.91424 -0.73881,-3.78079 -0.4901,-5.73324 0.0131,-1.9079 -0.15142,-3.84579 0.25743,-5.71819 0.60479,-1.4694 1.20234,-2.94701 2.25488,-4.1659 6.44433,-6.68309 15.92464,-9.91673 23.69444,-14.41958 0.32564,-0.12321 0.81932,-0.15255 1.06183,-0.2468 -0.26698,0.21422 -0.52645,0.43762 -0.78657,0.66006 -0.99193,0.85862 -1.97242,1.73332 -2.89696,2.66447 -0.86119,0.97295 -1.92803,1.70785 -2.86359,2.60537 -1.30265,0.93542 -2.41546,2.11331 -3.85507,2.85492 -7.68523,5.67438 -16.81472,9.05843 -24.6486,14.55649 -1.78496,0.84136 -3.48227,1.84653 -5.37934,2.44105 -2.2511,1.02664 -4.51829,1.9591 -6.89997,2.64974 -2.76264,0.71007 -5.53089,1.37386 -8.35227,1.80794 0,0 21.15153,-12.21184 21.15153,-12.21184 z"
         inkscape:connector-curvature="0" />
      <g
         transform="translate(-580,0)"
         id="g4167"
         style="fill:#eae3e0">
        <path
           inkscape:connector-curvature="0"
           d="m 159.16559,517.19114 c -3.33214,-4.31152 -4.59917,-10.22661 -5.99104,-15.39842 -1.05847,-5.07267 -1.86564,-10.14142 -2.44864,-15.28817 -0.21724,-1.91781 -0.52325,-3.82814 -0.64134,-5.75459 -0.14117,-2.30288 -0.17553,-11.75391 -0.19156,-14.06247 0.70296,-6.64468 0.73913,-8.35676 1.98879,-14.85799 0.43107,-2.24258 0.80761,-4.50802 1.49436,-6.68595 0.96397,-3.05716 4.89119,-12.07228 6.41116,-14.84805 1.61923,-2.95705 3.54291,-5.7369 5.31436,-8.60535 7.70532,-10.76707 6.00591,-8.88324 15.23741,-19.56297 2.87261,-3.32326 5.75122,-6.6459 8.78378,-9.82387 9.43154,-9.88379 19.75092,-18.81146 30.07884,-27.72542 12.60972,-10.57643 25.33128,-21.01863 37.79017,-31.77352 1.52641,-1.54177 3.40883,-2.74782 4.88446,-4.34633 -1.85304,-2.47383 16.49375,-10.67209 12.54884,-7.1534 -33.14961,19.02305 -0.78093,0.42857 0.032,-0.0365 0.0417,-0.0239 -0.0725,0.063 -0.10882,0.0945 10e-4,-4.1e-4 0.003,-8.3e-4 0.004,-10e-4 -4.24565,2.43749 -8.48851,4.87987 -12.73697,7.31247 -0.0298,0.017 0.0466,-0.052 0.0763,-0.0691 4.24322,-2.436 8.48643,-4.872 12.72965,-7.30801 -0.0237,0.0204 -0.0473,0.0408 -0.071,0.0612 -0.006,0.006 -0.0121,0.0118 -0.0182,0.0177 -4.41125,2.51505 -8.80524,5.06061 -13.23374,7.54514 -0.30821,0.17291 -1.29936,0.5465 -0.99414,0.36837 2.06548,-1.20538 32.10038,-18.49532 -1.46414,0.83137 24.34802,-14.60995 4.80934,-1.96755 -3.82996,2.03467 -2.02731,0.93916 -4.10749,1.70564 -6.21773,2.43206 -5.46271,1.64941 -11.05668,2.84826 -16.67262,3.8415 -2.9095,0.46371 -5.82485,0.89369 -8.74861,1.25776 -5.72274,0.64657 -1.47502,0.48067 12.40901,-7.43424 5.2191,-1.52606 -8.41628,6.15377 -13.27573,7.53691 10.12181,-7.04369 8.92273,-7.48635 15.42011,-7.53006 0.25551,-0.002 0.51101,-0.005 0.7665,-0.008 0.0826,0.006 0.16403,0.0142 0.2477,0.018 0,0 -12.92645,7.46308 -12.92645,7.46308 l 0,0 c -0.0899,0.003 -0.21307,0.0171 -0.30034,0.0124 -0.21302,-0.0312 -0.42744,-0.0514 -0.64257,-0.0631 -5.91727,-0.32459 -9.00882,3.20987 10.42456,-7.39137 4.36791,-0.1366 -7.7364,7.40538 -12.59967,7.40227 21.24509,-12.42656 7.54869,-7.44877 13.2527,-7.38156 2.63073,-0.0504 5.25002,-0.37201 7.85224,-0.74024 5.64268,-0.94098 11.25112,-2.15715 16.71477,-3.86583 2.20678,-0.79344 4.40018,-1.60754 6.52388,-2.60882 0.58962,-0.278 2.30234,-1.22177 1.74239,-0.888 -4.40334,2.62467 -28.69906,16.6281 2.47162,-1.36841 -40.00032,23.16433 31.76023,-18.33533 -9.84078,5.98933 1.50435,-1.11212 33.52073,-19.34774 -0.0305,0.021 1.12643,-0.8305 34.03445,-19.68162 0.0575,-0.0469 3.9638,-3.03844 17.50816,-11.03822 13.36633,-7.80873 -2.22221,1.7658 -4.41046,3.57411 -6.62401,5.35065 -13.89116,11.26866 -27.77864,22.54279 -41.55754,33.94862 -6.88109,5.95196 -13.60702,11.62326 -20.19406,17.90691 -12.11427,11.55627 -23.3439,24.16269 -32.35762,38.31141 -1.54375,2.73698 -3.19732,5.41486 -4.63123,8.21094 -5.76003,11.23188 -8.9422,23.52801 -9.44382,36.13191 0.0302,2.33393 -0.0275,4.67067 0.0907,7.0018 0.46924,9.25218 2.05656,18.44751 4.4222,27.3925 1.53619,5.16112 3.10232,10.97326 7.3681,14.60338 0,0 -12.71188,7.33921 -12.71188,7.33921 z"
           id="path4169"
           style="opacity:1;fill:#eae3e0;fill-opacity:1;stroke:none;stroke-width:0.99999994;stroke-linecap:butt;stroke-linejoin:miter;stroke-miterlimit:4;stroke-dasharray:none;stroke-dashoffset:0;stroke-opacity:1" />
        <path
           inkscape:connector-curvature="0"
           d="m 273.58523,321.95909 c -2.87655,2.27606 -5.49112,4.86782 -7.70094,7.79276 -2.4014,3.52909 -3.60079,7.59128 -4.31096,11.75098 -0.39569,3.10069 0.45261,5.89167 2.27372,8.37225 0.458,0.54559 0.93457,1.10981 1.57634,1.43916 5.02449,0.54838 -10.18987,11.06591 -12.95317,7.12564 0,0 12.98302,-7.49576 12.98302,-7.49576 l 0,0 c -1.04143,4.89899 -8.42584,9.94591 -12.98509,7.84983 -0.50008,-0.46918 -0.84817,-1.07439 -1.2083,-1.65165 -1.49325,-2.69201 -2.3464,-5.47906 -1.88042,-8.59931 0.74766,-4.14958 2.06159,-8.23404 4.37935,-11.79048 2.04634,-2.82838 4.56052,-5.25956 7.22058,-7.51542 0,0 12.60587,-7.278 12.60587,-7.278 z"
           id="path4171"
           style="opacity:1;fill:#eae3e0;fill-opacity:1;stroke:none;stroke-width:0.99999994;stroke-linecap:butt;stroke-linejoin:miter;stroke-miterlimit:4;stroke-dasharray:none;stroke-dashoffset:0;stroke-opacity:1" />
        <path
           inkscape:connector-curvature="0"
           d="m 299.53144,351.32413 c -0.12454,5.45955 1.43134,10.75967 1.95333,16.15307 0.13893,1.43552 1.09794,18.80265 1.08813,19.72662 -0.0441,4.14964 -0.51144,8.28398 -0.76716,12.42597 -1.00903,8.79945 -1.60338,16.14295 -3.56603,24.79116 -1.83502,8.08577 -4.99462,17.58909 -7.88513,25.34755 -1.50165,4.03061 -3.02673,8.05904 -4.79956,11.97796 -1.9945,4.40893 -4.32854,8.65624 -6.49281,12.98437 -2.24557,4.13574 -4.33878,8.35792 -6.7367,12.40723 -2.46305,4.15927 -5.14143,8.189 -7.83639,12.20189 -4.0757,6.06886 -9.91776,14.19711 -14.6995,19.89703 -5.37311,6.40483 -7.9415,8.66126 -13.73048,14.32298 -6.06482,5.36237 -12.44702,10.37933 -19.31457,14.67676 -5.283,3.30589 -10.78891,6.2415 -16.1952,9.34167 -1.0239,0.25402 -2.16893,1.48857 -3.29715,1.40247 0.0372,-0.0951 0.12352,-0.14728 0.20212,-0.2055 0.006,-0.004 0.0125,-0.008 0.0188,-0.0115 0,0 12.98044,-7.49426 12.98044,-7.49426 l 0,0 c -0.007,0.005 -0.015,0.009 -0.0224,0.0136 -0.0808,0.0586 -0.17082,0.10891 -0.20604,0.20776 0.54396,0.38482 1.97345,-0.88636 2.43891,-0.90696 -3.34994,1.95206 -6.69383,3.91455 -10.04982,5.85619 -0.97554,0.56441 1.94969,-1.13178 2.90834,-1.72442 5.12061,-3.16558 10.04917,-6.62095 14.76305,-10.36776 2.26662,-1.80162 4.45873,-3.69503 6.6881,-5.54255 6.6799,-6.31433 8.46933,-7.71588 14.70471,-14.88546 11.9119,-13.69658 22.02398,-28.91406 30.26258,-45.07773 1.9857,-4.22502 4.07707,-8.40198 5.95711,-12.67508 8.65023,-19.66091 14.65197,-40.4142 15.93778,-61.93599 -0.0135,-3.98655 0.14396,-7.97734 -0.0406,-11.95964 -0.37537,-8.10168 -1.12022,-11.0922 -2.67836,-18.8085 -1.01816,-5.04216 -1.98102,-10.17673 -4.16992,-14.87332 0,0 12.58441,-7.26561 12.58441,-7.26561 z"
           id="path4173"
           style="opacity:1;fill:#eae3e0;fill-opacity:1;stroke:none;stroke-width:0.99999994;stroke-linecap:butt;stroke-linejoin:miter;stroke-miterlimit:4;stroke-dasharray:none;stroke-dashoffset:0;stroke-opacity:1" />
        <path
           inkscape:connector-curvature="0"
           d="m 274.27696,373.05142 c 2.41253,-2.32046 4.65934,-4.84761 6.64745,-7.54212 1.42551,-2.32338 2.71585,-4.73868 3.82787,-7.22821 0.39776,-1.2557 0.96645,-2.4389 1.4522,-3.66123 0.30602,-0.83888 0.36617,-1.73232 0.42248,-2.61539 0.0824,-1.22104 -0.008,-2.44345 -0.0103,-3.66457 -0.0315,-0.6041 -0.0556,-1.20427 -0.058,-1.8081 0.007,-0.49432 0.0128,-0.98724 -0.0193,-1.4814 0.006,-0.34907 0.0135,-0.69869 -0.007,-1.04889 -0.0285,-0.24339 0.0107,-0.484 0.009,-0.72919 0.0406,-0.44141 0.0229,-0.88598 -0.011,-1.32723 -0.002,-0.0695 -0.0152,-0.13805 -0.0245,-0.20654 17.84819,-10.33622 11.8159,-11.32597 13.12357,-4.97088 0.17523,1.9325 0.80145,3.77058 1.20787,5.65644 0.36026,1.75951 0.87125,3.51615 1.46368,5.21636 0.60354,1.91216 1.90716,3.42236 2.90027,5.12522 1.41116,2.12448 3.06724,4.04306 4.88144,5.82999 1.47954,1.32136 2.88395,2.71256 4.34568,4.05309 0.9126,0.53496 1.37819,1.49811 2.16518,2.15451 0.25953,0.19558 0.54022,0.36056 0.84965,0.45988 0.0183,0.0118 0.0405,0.003 0.0593,0.004 0,0 -12.98721,7.49817 -12.98721,7.49817 l 0,0 c -0.0132,-0.004 -0.0317,-0.001 -0.0425,-0.0136 -0.26091,-0.14754 -0.49551,-0.33576 -0.71847,-0.53562 -0.72876,-0.69854 -1.14393,-1.652 -1.98416,-2.25902 -1.44243,-1.3296 -2.69709,-2.83879 -4.13254,-4.17615 -1.81196,-1.78681 -3.50385,-3.69485 -4.97098,-5.77829 -1.10518,-1.63939 -2.32771,-3.18618 -2.96117,-5.09006 -0.56346,-1.71412 -1.22167,-3.41613 -1.46744,-5.21419 -0.39288,-1.87948 -0.9484,-3.7171 -1.29801,-5.6044 -1.66049,-6.42454 1.60898,-3.7847 12.5541,-9.85413 -0.009,0.0781 -0.0216,0.15606 -0.0245,0.23487 -0.0314,0.4455 -0.0534,0.89445 -0.011,1.3399 -10e-4,0.24203 0.0376,0.47813 0.009,0.71849 -0.0196,0.35308 -0.0143,0.70547 -0.007,1.05733 -0.0304,0.50147 -0.028,1.00168 -0.0184,1.50321 -7.7e-4,0.62344 -0.0208,1.24431 -0.0461,1.86825 0.007,1.22681 -0.0676,2.45427 -0.0189,3.68139 0.0122,0.89597 -0.0184,1.7468 -0.3741,2.58746 -0.60175,1.25509 -1.16376,2.5204 -1.69802,3.80316 -1.23162,2.51774 -2.61114,4.97085 -4.06589,7.36563 -1.88381,2.6263 -4.16706,4.94752 -6.31981,7.35296 0,0 -12.64226,7.29901 -12.64226,7.29901 z"
           id="path4175"
           style="opacity:1;fill:#eae3e0;fill-opacity:1;stroke:none;stroke-width:0.99999994;stroke-linecap:butt;stroke-linejoin:miter;stroke-miterlimit:4;stroke-dasharray:none;stroke-dashoffset:0;stroke-opacity:1" />
        <path
           inkscape:connector-curvature="0"
           d="m 334.94974,333.69172 c 7.62508,4.66454 13.42155,11.48597 19.4029,18.00693 2.11495,2.65356 4.57574,5.06505 6.34484,7.96067 2.22175,3.63649 3.85678,7.60608 5.55399,11.51502 1.81261,4.17473 3.65387,8.3605 4.96765,12.71802 2.3713,7.86513 4.57115,21.29175 5.46291,29.45495 0.50553,4.62771 0.64908,9.28783 0.97362,13.93174 0.20881,17.46204 -3.13168,34.68853 -8.84993,51.14805 -2.37928,6.84857 -4.40797,10.88045 -7.3678,17.29489 -3.0086,5.57402 -5.5632,11.58073 -9.54962,16.57154 -3.54505,3.42136 -13.35682,12.57409 -13.5052,7.38853 9.58093,-5.50075 25.7799,-14.074 0.17171,0.0357 -0.0645,0.0355 -0.14545,-0.0234 -0.21817,-0.0351 34.97873,-19.58798 0.35601,0.0522 0.0408,-0.002 34.80218,-19.63831 0.38622,0.0575 -0.0341,-0.0108 -0.019,-9.4e-4 -0.038,-0.002 -0.0571,-0.003 4.39305,-2.45891 8.77059,-4.94574 13.17916,-7.37672 0.3477,-0.19173 0.0274,0.22339 0.006,0.26619 -0.0339,0.41601 -0.046,0.47433 -0.33394,0.76748 -3.44208,4.22403 -8.95302,6.60463 -14.14084,8.3324 -6.79047,0.76479 17.60301,-9.97287 11.80399,-6.5155 -0.29639,0.38714 -0.58076,0.72397 -1.00555,0.98462 -4.5646,2.36429 -8.69002,5.5628 -13.37802,7.67185 0.006,-0.004 0.0124,-0.007 0.0186,-0.0109 0,0 12.98189,-7.4951 12.98189,-7.4951 l 0,0 c -0.006,0.003 -0.0113,0.007 -0.017,0.01 4.5426,-1.64137 -7.9787,5.65643 -12.52627,7.28399 0.42477,-0.25887 0.73653,-0.57384 1.00902,-0.98661 4.64213,-2.75674 5.79482,-8.60474 13.99045,-8.37693 5.32168,-1.53721 -16.23633,11.34175 -11.63122,6.54711 0.23051,-0.2646 0.27643,-0.37769 0.30309,-0.74967 1.63068,-3.58897 5.97515,-11.13525 12.73416,-7.81852 0.0308,0.0199 0.12391,0.0406 0.0925,0.0596 -14.48703,8.77136 -19.38197,11.3233 -0.0606,-0.0476 0.0328,0.0202 0.13119,0.0408 0.0983,0.0607 -9.82449,5.95238 -24.03931,14.14733 -0.10422,-0.0787 0.0428,0.029 0.17264,0.0601 0.12843,0.0869 -9.7606,5.90814 -24.11192,14.19262 -0.0782,-0.0897 -1.57268,4.83962 -17.318,11.32832 -12.06096,7.37211 5.23823,-5.3738 8.91519,-12.08984 12.78728,-18.44081 3.85231,-7.33069 5.50146,-10.01049 8.61629,-18.0157 6.42386,-16.50953 9.83768,-33.93087 9.75074,-51.66813 -0.53276,-12.02827 -0.28556,-16.91409 -2.74522,-28.88896 -2.78176,-13.54298 -7.78135,-26.48529 -15.7972,-37.81611 -1.97016,-2.78492 -4.42011,-5.19728 -6.63017,-7.79593 -2.35166,-2.18102 -4.56693,-4.51901 -7.05497,-6.54308 -4.86063,-3.95421 -10.42,-6.61003 -15.97594,-9.36922 0,0 12.70331,-7.33426 12.70331,-7.33426 z"
           id="path4177"
           style="opacity:1;fill:#eae3e0;fill-opacity:1;stroke:none;stroke-width:0.99999994;stroke-linecap:butt;stroke-linejoin:miter;stroke-miterlimit:4;stroke-dasharray:none;stroke-dashoffset:0;stroke-opacity:1" />
        <path
           inkscape:connector-curvature="0"
           d="m 329.83441,329.80886 c 1.50085,2.91095 3.3795,5.62379 4.77362,8.59309 1.00089,2.13177 1.43408,3.60154 2.18947,5.81898 1.69649,5.29107 1.83698,10.88782 1.48591,16.38662 -0.18179,2.13287 -0.3619,4.27095 -0.70755,6.38503 -0.93339,5.04354 -7.06633,4.17958 -12.99553,7.41571 0,0 12.82472,-7.40435 12.82472,-7.40435 l 0,0 c -26.55881,16.1729 -14.62316,12.10104 -12.6635,7.39853 0.80291,-2.21334 1.21373,-4.5509 1.55256,-6.8729 0.51614,-5.55678 0.42682,-11.15573 -1.22026,-16.53999 -1.68665,-5.11067 -4.02219,-10.04704 -7.95132,-13.84151 0,0 12.71188,-7.33921 12.71188,-7.33921 z"
           id="path4179"
           style="opacity:1;fill:#eae3e0;fill-opacity:1;stroke:none;stroke-width:0.99999994;stroke-linecap:butt;stroke-linejoin:miter;stroke-miterlimit:4;stroke-dasharray:none;stroke-dashoffset:0;stroke-opacity:1" />
        <path
           inkscape:connector-curvature="0"
           d="m 328.96776,331.44208 c 4.3994,1.16427 8.92699,1.55439 13.45296,1.84149 4.84952,0.18111 9.76136,0.58617 14.59587,-0.0833 2.92227,-0.40467 3.77569,-0.76293 6.58319,-1.58051 0,0 -11.62578,6.71215 -11.62578,6.71215 l 0,0 c -2.43387,0.69476 -4.05923,1.25026 -6.59875,1.58949 -4.79589,0.64065 -9.67731,-0.0188 -14.48513,0.0194 -4.90406,-0.21933 -9.80287,-0.4344 -14.66171,-1.14361 0,0 12.73935,-7.35507 12.73935,-7.35507 z"
           id="path4181"
           style="opacity:1;fill:#eae3e0;fill-opacity:1;stroke:none;stroke-width:0.99999994;stroke-linecap:butt;stroke-linejoin:miter;stroke-miterlimit:4;stroke-dasharray:none;stroke-dashoffset:0;stroke-opacity:1" />
        <path
           inkscape:connector-curvature="0"
           d="m 305.84155,318.52989 c -2.99099,-0.57497 -6.04648,-0.71467 -9.08377,-0.8332 -1.55486,0.15585 -1.73873,0.10047 -3.27676,0.56743 -5.21013,1.58185 -15.05224,7.97599 6.88288,-4.62896 -0.69824,0.5343 -1.68681,0.95044 -1.94373,1.8579 1.29744,2.18274 5.86511,2.12962 8.01166,2.21457 4.83991,-0.0145 9.57259,-0.99992 14.1609,-2.46679 0.50761,-0.21827 1.02262,-0.4201 1.52284,-0.6548 0.39599,-0.18579 0.77599,-0.4039 1.16398,-0.60584 -3.92293,2.25795 -7.83645,4.53233 -11.76879,6.77385 -1.26709,0.72227 0.71805,-0.52676 0.95463,-0.7606 0.36282,-0.40683 0.0854,-0.85495 -0.2107,-1.20814 -3.00097,-1.84346 -6.83372,-1.8419 -10.23621,-1.64712 -4.84364,0.26761 -9.15618,2.3599 -13.32702,4.65589 3.44242,-1.98194 6.87595,-3.9794 10.32726,-5.9458 0.42669,-0.2431 -0.87588,0.46046 -1.25261,0.77547 -1.39172,1.16371 -0.68115,2.13686 0.43821,3.04724 4.01984,2.08504 8.5565,0.99719 12.78427,0.24943 4.72327,-0.82891 9.33235,-2.14796 13.94684,-3.42565 1.69523,-0.58104 3.33086,-1.31913 4.98472,-2.00704 4.6855,-1.94574 4.83876,-2.02083 -12.55542,7.01589 -0.0321,0.0167 -0.12205,-0.48785 -0.44079,-0.74027 -0.14935,-0.11827 -1.2386,-0.66013 -1.34697,-0.71525 -2.79583,-1.25467 -5.92076,-1.3545 -8.92995,-1.23311 -4.4225,0.47581 -8.73012,1.569 -12.8517,3.22338 24.10246,-13.34306 10.4174,-8.08447 8.75207,-3.57092 -0.64005,2.44755 2.6896,2.90312 4.38948,3.29003 4.05951,0.84816 8.06017,0.11082 11.95207,-1.09727 6.18054,-1.75243 19.81621,-10.08516 -3.49647,3.27414 0.61611,-0.53434 0.7228,-1.05386 0.14798,-1.63919 -0.63077,-0.6094 -1.31377,-1.03563 -2.14496,-1.31381 -1.2163,-0.6411 -2.51198,-0.96473 -3.86361,-1.15338 -2.31339,-0.23338 -4.59637,-0.34166 -6.89131,0.0444 -4.56095,1.05185 -8.76642,3.17955 -12.95003,5.21663 -5.23151,2.57445 -13.56359,7.38085 9.81199,-5.55736 0.0193,0.2113 0.0386,0.42261 0.0579,0.63391 0,0 -12.73968,7.35526 -12.73968,7.35526 l 0,0 c -0.0622,-0.18653 -0.12441,-0.37305 -0.18661,-0.55957 5.20817,-3.13161 9.98284,-6.4525 15.3863,-8.99088 4.16072,-1.9741 8.3401,-4.00438 12.82282,-5.14318 2.41936,-0.50074 4.88098,-0.57974 7.34345,-0.30542 1.39722,0.16385 2.71692,0.47524 3.99451,1.0778 0.83771,0.2504 1.56262,0.6917 2.21589,1.27286 0.71449,0.71082 0.3365,1.20411 -0.39797,1.78352 -7.05942,4.10255 -13.44835,8.52892 -21.17427,10.96953 -3.93991,1.24956 -8.05006,2.01714 -12.17305,1.22484 -1.39366,-0.26954 -4.05379,-0.40101 -4.9287,-1.82624 -0.15722,-0.2561 0.0337,-0.96505 0.0786,-1.19783 2.43397,-6.26304 16.07586,-4.64844 16.3688,-10.93261 4.01796,-1.53776 8.21653,-2.44845 12.48001,-3.00879 3.18026,-0.2658 6.54422,-0.31977 9.56708,0.86526 0.4982,0.21887 1.04636,0.33583 1.50957,0.62137 3.6463,2.24779 -10.54712,7.9889 -12.64363,8.52755 -1.4733,0.56417 -2.91522,1.21217 -4.42264,1.68253 -4.4679,1.13901 -8.91775,2.36702 -13.46786,3.14911 -4.4384,0.84075 -9.17079,2.00521 -13.51099,0.17014 -0.32426,-0.21312 -0.69982,-0.36358 -0.97277,-0.63937 -1.40206,-1.41662 1.23917,-2.86283 2.15234,-3.39417 4.59975,-2.67645 9.21275,-5.33008 13.81912,-7.99512 4.18345,-2.29764 8.53502,-4.45315 13.39502,-4.69515 3.67887,-0.19839 7.49768,-0.092 10.98944,1.21225 0.36034,0.34038 0.73843,0.76541 0.27374,1.17174 -4.8829,4.29336 -11.01681,7.09438 -16.94838,9.72486 -4.50566,1.35844 -9.1206,2.26646 -13.84875,2.28657 -1.84562,0.004 -7.74434,0.043 -9.00139,-1.64315 0.33168,-1.02301 1.54618,-1.45244 2.32678,-2.07905 6.44335,-3.73484 13.46559,-9.3046 21.30663,-10.32186 3.10735,0.18622 6.20474,0.49034 9.31006,0.70255 0,0 -12.64226,7.29902 -12.64226,7.29902 z"
           id="path4183"
           style="opacity:1;fill:#eae3e0;fill-opacity:1;stroke:none;stroke-width:0.99999994;stroke-linecap:butt;stroke-linejoin:miter;stroke-miterlimit:4;stroke-dasharray:none;stroke-dashoffset:0;stroke-opacity:1" />
      </g>
      <g
         id="g4185"
         transform="translate(-582,-22)">
        <path
           inkscape:connector-curvature="0"
           d="m 321.63311,444.52536 c 2.25486,-3.32303 4.21795,-6.86166 6.52693,-10.14857 1.73996,-2.47688 3.7379,-4.88303 5.63422,-7.23959 1.24833,-1.25082 2.42729,-2.57496 3.745,-3.75247 8.75424,-7.82281 21.19453,-13.76268 30.7377,-18.9957 3.74246,-2.05218 3.10978,-1.61411 6.848,-1.25978 0.7388,0.64515 1.82425,1.03642 2.21642,1.93545 0.779,1.78584 1.11561,9.94604 1.16294,11.29049 0.0816,2.31748 0.20018,4.63983 0.0905,6.95615 -0.0243,0.51418 -1.64092,16.84247 -1.68376,17.27696 -2.24184,14.1936 -4.83222,28.33465 -6.58492,42.60068 -0.0596,2.28815 -0.73671,4.60478 -0.59911,6.9072 6.22116,8.60098 -23.32808,19.91138 -21.48475,11.77497 0.83207,-5.5126 1.92024,-10.98806 3.12396,-16.44128 2.66224,-11.88468 7.3173,-23.16371 11.51933,-34.55708 3.12439,-7.27331 6.08943,-14.7401 10.34137,-21.46005 1.96967,-3.11294 4.76332,-6.60824 7.01955,-9.53669 1.61183,-1.74869 4.70491,-5.28237 6.70908,-6.83333 0.95726,-0.74079 2.05437,-1.28274 3.11329,-1.86909 4.11669,-2.27951 16.02823,-12.72064 25.19034,-12.41305 0.85076,0.0286 1.68014,0.27499 2.5202,0.41248 0.7156,0.26582 1.51295,0.37202 2.14678,0.79746 4.89012,3.28233 5.26275,12.70465 5.63564,17.78161 0.73471,16.48531 -0.05,-3.12696 0.37765,15.78144 0.0651,2.88043 0.30829,5.75609 0.33094,8.63717 0.11756,14.95521 -0.56829,5.70912 -0.23774,21.41692 0.0715,3.39949 0.33672,6.79215 0.50509,10.18823 0.85888,9.31618 1.83723,18.74094 4.49428,27.74963 3.29435,9.44882 10.57937,-3.8602 -20.75807,13.84806 -3.14781,-7.75525 21.47563,-12.31255 21.5031,-12.32795 0.01,0.002 0.0194,0.003 0.0291,0.005 -7.24288,4.01858 -14.48576,8.03716 -21.72864,12.05574 0,0 21.3619,-12.3333 21.3619,-12.3333 l 0,0 c -7.08959,4.25627 -14.17917,8.51255 -21.26876,12.76882 0.0102,-0.0132 0.0205,-0.0263 0.0307,-0.0395 3.09946,-7.85123 23.76901,-21.04112 21.54352,-12.52502 -26.17025,15.43045 -22.33549,20.60388 -21.20328,10.37834 0.98484,-10.34616 1.26698,-20.74918 1.37201,-31.13655 -0.0154,-3.48441 0.0688,-6.97068 -0.0461,-10.45323 -0.21888,-6.63206 -0.94996,-13.83798 -1.39185,-20.47608 -0.18965,-2.84902 -0.21404,-5.70951 -0.47729,-8.55267 -0.50871,-5.49393 -1.29156,-9.38054 -2.22978,-14.71212 -1.49537,-5.58908 -2.63833,-12.99131 -7.97238,-16.43248 -0.61089,-0.39411 -1.32845,-0.59096 -1.99267,-0.88644 -0.76988,-0.17802 -1.5233,-0.45609 -2.30964,-0.53406 -7.52061,-0.74563 -13.73369,7.10124 13.56082,-9.95993 1.18707,-0.74201 -2.48415,1.3155 -3.60564,2.15335 -2.58118,1.92836 -5.29312,4.9859 -7.47596,7.27608 -1.20982,1.53088 -2.4816,3.01476 -3.62947,4.59262 -5.94654,8.17403 -10.37575,17.39004 -14.22934,26.69158 -4.31061,10.90232 -8.18443,22.04947 -9.99193,33.67524 -0.59155,4.82537 -1.65363,10.06071 -0.36337,14.84746 0.0419,0.0994 0.0913,0.36233 -0.0539,0.44884 -21.84421,13.01216 -27.02301,19.01343 -21.48254,12.61445 1.57605,-2.61319 2.19768,-5.7312 3.37626,-8.51059 4.69641,-14.39854 8.21254,-29.19821 9.55524,-44.31559 0.60458,-8.49086 0.8519,-8.24166 0.4372,-16.55726 -0.27404,-5.4952 -0.5945,-12.0083 -3.89351,-16.7224 -0.56492,-0.80725 -1.50096,-1.27682 -2.25144,-1.91523 -0.86226,-0.20487 -1.70564,-0.70976 -2.58678,-0.61459 -1.12212,0.12119 -4.1015,1.84598 -3.15287,1.23447 4.68332,-3.01899 9.51714,-5.80538 14.40204,-8.48597 1.51514,-0.83142 -2.89281,1.89587 -4.27745,2.93012 -4.22263,3.15409 -3.92484,3.14399 -7.43765,6.84411 -3.84334,4.82305 -7.63841,9.93725 -9.54833,15.87965 0,0 -21.21224,12.24689 -21.21224,12.24689 z"
           id="path4187"
           style="opacity:1;fill:#89be5e;fill-opacity:1;stroke:none;stroke-width:0.99999994;stroke-linecap:butt;stroke-linejoin:miter;stroke-miterlimit:4;stroke-dasharray:none;stroke-dashoffset:0;stroke-opacity:1" />
        <path
           inkscape:connector-curvature="0"
           d="m 457.26997,462.54879 c 2.44444,-0.80178 4.72825,-1.99892 7.15222,-2.84866 2.68342,-0.56086 5.45275,-0.67409 8.18409,-0.90411 2.19855,-0.0556 4.406,-0.64092 6.60864,-0.59675 0.78803,0.0158 2.01945,0.28308 2.79864,0.43204 2.50328,1.25533 4.63629,3.0843 5.92677,5.57876 1.70723,3.09703 0.59264,6.36039 -0.36955,9.50712 -1.40205,3.03181 -3.29097,5.63345 -6.22518,7.32659 -7.34959,4.24097 -14.73539,8.41887 -22.10308,12.62831 -3.13065,1.38964 -6.54619,1.8867 -9.91976,2.29079 -1.46846,0.1537 -2.94389,0.18089 -4.41754,0.24711 -9.51479,0.7363 13.27502,-11.81945 21.73072,-12.43478 2.44668,-0.38405 4.91373,-0.52968 7.38636,-0.61183 2.75163,-0.11092 5.49225,-0.28615 8.18523,0.37708 2.32894,0.89976 4.09089,2.80938 5.77171,4.59477 1.63393,1.59655 2.97963,3.37179 4.04803,5.38669 1.07334,1.96662 1.99207,4.00287 2.85017,6.06956 0.59947,1.18565 0.65956,2.51311 0.77046,3.80939 0.11726,1.37605 -0.11505,2.59721 -0.65574,3.85882 -0.87979,1.85921 -2.13376,3.48884 -3.56971,4.94773 -7.71025,5.76718 -15.95865,11.71492 -25.30846,14.39475 -2.27124,0.46214 -4.60014,0.36138 -6.90498,0.38082 -2.88457,0.0369 -5.77605,-0.10407 -8.65461,0.10606 -2.92949,0.34517 -5.86302,0.5493 -8.77009,1.05554 -1.96192,0.46948 -3.96441,0.68592 -5.9638,0.9165 -0.54359,0.0626 -1.08719,0.12517 -1.63084,0.18731 -0.1306,-10e-4 -0.25856,-0.0302 -0.39438,-0.0332 -0.34906,0.0201 -0.69554,-0.005 -1.04404,-0.0294 -0.82862,0.0222 -1.67698,-0.15012 -2.47593,0.10359 -0.72843,0.47793 -1.52556,0.62998 -2.37046,0.74899 -0.71603,0.12604 -1.44235,0.12922 -2.16603,0.17169 -0.51856,0.0173 -1.0895,-0.10144 -1.57085,0.10259 51.97152,-30.58574 3.53777,-1.02327 -1.47087,0.78322 -0.65804,0.0614 -1.32228,0.0735 -1.9832,0.11456 -0.65212,0.006 -1.30223,-0.0421 -1.95415,-0.0452 -0.88231,-0.10064 -1.58019,0.0973 -2.37036,0.45784 -0.45676,0.22748 -0.86677,0.48125 -1.37341,0.54971 -0.48417,0.0315 -0.97177,0.0267 -1.45782,0.0507 -0.1291,0.006 -0.25791,0.0155 -0.38671,0.0253 0.21709,-0.1953 0.47442,-0.34081 0.71755,-0.50255 0,0 21.30846,-12.30245 21.30846,-12.30245 l 0,0 c -0.23459,0.17059 -0.25553,0.15782 -0.3828,0.30929 0.0924,0.0168 0.18539,0.0327 0.2798,0.0364 0.47357,0.0326 0.94716,0.0291 1.41905,-0.0283 0.45661,-0.068 0.83935,-0.27073 1.24986,-0.47838 0.78295,-0.3535 1.46897,-0.56853 2.34566,-0.44358 0.69893,-5.1e-4 1.39667,-0.0404 2.0955,-0.0364 0.66783,0.035 1.34448,0.031 1.99886,-0.1236 0.33751,-0.10792 1.3742,-0.66206 0.68945,-0.26521 -56.05172,32.48515 0.27695,-0.3126 0.72084,-0.48304 0.51761,-0.2245 1.0612,-0.0837 1.61436,-0.12771 0.66249,0.0316 1.3239,-0.008 1.98398,-0.0666 0.86541,-0.11596 1.68537,-0.322 2.43599,-0.78682 0.81252,-0.23916 1.69516,-0.0588 2.53469,-0.13752 0.3847,-0.0228 0.76889,-0.0528 1.15398,-0.0341 0.14929,-0.002 0.33573,-0.0299 0.46602,-0.008 0.40064,0.0674 0.81085,0.0488 1.21544,0.0525 1.83368,-0.053 3.64678,-0.31507 5.45376,-0.62202 2.89863,-0.46409 5.81851,-0.69469 8.73367,-1.03451 2.89328,-0.25032 5.79835,-0.04 8.69945,-0.13196 2.42578,-0.0357 4.87579,-0.0802 7.25796,-0.5846 0.59122,-0.16439 2.27968,-0.88025 1.7508,-0.56905 -40.15187,23.62573 -24.83037,15.56697 -18.575,10.49959 1.44739,-1.45038 2.89741,-2.93325 3.54484,-4.93336 0.43727,-1.23144 0.63335,-2.45397 0.48887,-3.76249 0.006,-1.34211 -0.15828,-2.66764 -0.49388,-3.96907 -0.60706,-2.17089 -1.64642,-4.171 -2.72505,-6.14179 -1.07615,-1.9804 -2.45309,-3.77449 -3.9953,-5.41714 -1.66906,-1.84515 -3.41214,-3.71495 -5.82301,-4.56515 -2.5991,-0.69978 -5.24287,-0.70536 -7.91896,-0.5308 -2.65998,0.14828 -5.33009,0.33125 -7.93446,0.92827 -9.55378,2.2483 12.51543,-13.74307 20.82819,-12.13662 1.27833,0.13146 2.56747,0.11855 3.85034,0.0804 3.21771,-0.15388 6.43835,-0.66879 9.40056,-1.99103 -6.20111,3.62452 -12.38413,7.28017 -18.60333,10.87355 -0.54987,0.31771 1.08707,-0.66119 1.59292,-1.04515 2.14943,-1.63146 3.55585,-3.84536 4.63943,-6.28558 0.98948,-3.15811 1.58664,-6.22492 0.0488,-9.32191 -1.40383,-2.42018 -3.36776,-4.43623 -5.97836,-5.54897 -3.02014,-0.77388 -6.07037,-0.33855 -9.13588,0.008 -2.87077,0.39634 -5.78887,0.45116 -8.60824,1.14899 -2.50444,0.84267 -4.88145,2.02584 -7.35079,2.96331 0,0 21.10453,-12.18471 21.10453,-12.18471 z"
           id="path4189"
           style="opacity:1;fill:#89be5e;fill-opacity:1;stroke:none;stroke-width:0.99999994;stroke-linecap:butt;stroke-linejoin:miter;stroke-miterlimit:4;stroke-dasharray:none;stroke-dashoffset:0;stroke-opacity:1" />
        <path
           style="opacity:1;fill:#79d1ed;fill-opacity:1;stroke:none;stroke-width:0.99999994;stroke-linecap:butt;stroke-linejoin:miter;stroke-miterlimit:4;stroke-dasharray:none;stroke-dashoffset:0;stroke-opacity:1"
           id="path4191"
           d="m 124.98989,457.24588 c -6.48592,4.89734 -10.26611,12.44352 -13.7528,19.56912 -3.1755,8.34016 -6.35691,18.33797 -5.76224,27.40206 0.0772,1.17603 0.3967,2.32349 0.59505,3.48523 1.09827,4.09549 3.0122,6.80773 7.08625,8.0722 0.48364,0.0101 0.96935,0.076 1.45091,0.0302 6.52483,-0.62105 29.23008,-15.21885 -15.74151,9.93014 -0.67762,0.37894 1.29599,-0.86262 1.88353,-1.37012 0.77962,-0.67339 1.47145,-1.44217 2.20718,-2.16326 5.16634,-5.55163 8.78082,-12.14734 11.87441,-19.00886 2.0723,-5.03813 3.62929,-10.27435 4.4927,-15.65893 0.44784,-2.79292 0.63489,-5.84055 0.85914,-8.65697 -0.0259,-3.90978 0.0832,-9.20948 -3.346,-11.99099 -2.03426,-1.65007 -3.1694,-1.32442 -5.60935,-1.4611 0,0 19.60535,-11.31915 19.60535,-11.31915 l 0,0 c 2.44482,0.11467 3.6359,-0.22276 5.68492,1.41747 3.63238,2.90771 2.53461,8.60124 2.36996,12.5545 -0.74913,8.25825 -1.51901,16.65171 -5.19059,24.22281 -3.03367,6.55634 -6.09872,13.12977 -11.03025,18.52147 -1.31995,1.42214 -1.83536,2.21023 -3.47106,3.17563 -2.20983,1.30428 -17.60966,13.58663 -26.77179,13.7471 -0.94392,-0.32713 -1.66825,-0.48808 -2.46826,-1.14033 -2.29054,-1.86749 -2.92715,-5.08823 -3.0321,-7.84749 0.0138,-1.28422 -0.0579,-2.57221 0.0414,-3.85267 0.42245,-5.44869 1.70847,-10.87367 3.02824,-16.157 0.50762,-2.03212 0.9732,-4.07756 1.59105,-6.07893 0.59384,-1.92356 1.36031,-3.78953 2.04046,-5.6843 2.4645,-6.24422 1.30904,-3.9823 4.38405,-9.40693 1.61676,-2.85213 3.23978,-5.97143 5.80542,-8.10491 0,0 21.17595,-12.22594 21.17595,-12.22594 z"
           inkscape:connector-curvature="0" />
        <path
           style="opacity:1;fill:#79d1ed;fill-opacity:1;stroke:none;stroke-width:1.11546767;stroke-linecap:butt;stroke-linejoin:miter;stroke-miterlimit:4;stroke-dasharray:none;stroke-dashoffset:0;stroke-opacity:1"
           id="path4193"
           d="m 106.7346,420.11681 c -3.73513,-0.068 -7.36207,-0.48448 -11.01061,-1.32635 -5.10804,-1.5326 -9.93815,-3.84711 -14.78243,-6.09512 -4.91434,-2.23935 -10.069017,-3.35293 -15.380076,-3.87665 -3.159222,-0.21869 -6.444426,-0.37774 -9.547417,0.46221 -1.809432,0.48979 -2.770609,1.12158 -4.434048,2.00283 34.697271,-21.23344 21.4413,-13.77808 14.709389,-7.46797 -2.789801,2.61501 -5.181633,5.49086 -7.606899,8.46604 -4.625605,6.2176 -8.804214,12.8258 -12.312944,19.79837 -1.913042,3.80159 -2.984276,6.61447 -4.583265,10.51545 -3.723381,8.70096 -6.253393,17.82238 -7.369121,27.26708 -0.224881,2.84084 -0.671682,5.75787 -0.2999,8.61453 0.315824,2.4267 1.273307,4.68411 2.244167,6.88178 1.099126,2.13578 2.436129,4.12594 4.216577,5.6982 0.728535,0.39852 1.445016,0.82446 2.191531,1.19759 0.472823,0.28934 1.008479,0.30501 1.535872,0.37138 0.779412,0.0232 1.558037,0.0444 2.33782,0.065 1.680794,-0.17977 3.148194,-0.86877 4.612938,-1.69081 -0.662839,0.4032 1.982717,-1.15333 1.490724,-0.8582 -58.921317,35.34529 -0.01989,-0.0117 1.265065,-0.80526 7.172635,-4.42973 -28.732505,17.63245 -21.692191,12.97809 8.905386,-1.623 17.467429,-12.04808 27.027633,-15.73364 1.394261,-0.58803 2.808763,-1.08566 4.25743,-1.51262 11.742555,-4.52161 -28.534105,19.96893 -20.983,12.88489 5.940858,-3.0345 16.062654,-14.28446 25.828952,-14.44567 0.421903,0.0216 0.8509,-0.0741 1.270082,-0.013 0.51783,0.0222 1.033343,0.0363 1.551785,0.0159 0.404756,-0.0256 0.807129,0.006 1.213185,-0.0102 0.364841,-0.0166 0.726973,0.0121 1.093366,-9e-4 0.16312,-0.006 0.325846,-0.0182 0.488355,-0.0334 0.0849,0.17863 0.27248,0.40033 0.42646,0.56443 0.36744,0.29733 0.51968,0.4262 0.57127,0.90108 -0.0787,0.62437 0.0727,1.2464 0.02,1.86775 -0.0361,0.43131 0.0771,0.85596 0.0188,1.28194 0.13162,0.68819 0.49369,1.3637 0.71333,2.05775 0.13305,0.41269 0.27334,0.8228 0.42286,1.22931 0.0661,0.12946 -0.0191,0.26958 -0.0373,0.40934 -0.0159,0.24253 0.007,0.48436 0.0436,0.72338 -5.5e-4,0.0268 0.0147,0.0531 0.0213,0.0767 -34.043233,21.13477 -22.56332,22.04665 -23.501688,10.64216 0.08197,-1.06577 -0.592127,-1.78075 -1.373714,-2.34991 -1.723451,-1.40832 -3.865276,-1.81602 -5.98639,-2.06329 -2.792883,-0.24858 -5.615658,-0.37746 -8.412235,-0.13934 -2.835496,0.46151 -5.671495,0.9706 -8.465712,1.66064 -2.329317,0.64583 -4.65683,1.28618 -7.051002,1.60693 -1.358817,0.12282 -2.66137,0.36691 -3.967017,-0.11418 -0.766548,-0.18788 -1.371845,-0.5146 -1.994214,-0.99224 0,0 23.368713,-14.05413 23.368713,-14.05413 l 0,0 c 0.57616,0.44959 1.221491,0.78803 1.895643,1.05153 1.243327,0.39441 2.476524,0.38864 3.773896,0.23032 2.213347,-0.23957 4.385511,-0.70761 6.537566,-1.29815 2.849114,-0.69908 5.721519,-1.36189 8.624558,-1.75617 2.796129,-0.29384 5.610051,0.005 8.410803,0.1402 2.28219,0.27639 4.506815,0.48528 6.525493,1.73907 0.9135,0.58523 1.53857,1.05907 1.45524,2.30089 -0.92603,12.38145 9.2235,-0.32664 -23.502015,17.62622 0.0055,-0.0326 0.01432,-0.0653 0.0153,-0.0987 0.02546,-0.25606 0.04481,-0.51332 0.03563,-0.77102 -0.01246,-0.13059 -0.05246,-0.24298 -0.02711,-0.37064 -0.0055,-0.46509 -0.06219,-0.92723 -0.175098,-1.37832 -0.210892,-0.71453 -0.670775,-1.29203 -0.868617,-1.96435 -0.06809,-0.43289 0.0765,-0.87255 0.03082,-1.31178 -0.05454,-0.6112 0.105139,-1.23624 -0.0658,-1.84016 -0.07596,-0.37947 -0.284675,-0.64364 -0.543415,-0.91784 -0.176858,-0.18334 -0.346208,-0.37969 -0.588969,-0.46669 -0.125468,-0.0149 -0.250991,-0.0304 -0.377509,-0.0334 -0.365115,-0.0147 -0.72717,0.0173 -1.090754,-6.8e-4 -0.394515,-0.017 -0.786298,0.0181 -1.179282,-0.0103 -0.52818,-0.0252 -1.053847,-0.002 -1.581896,0.002 -0.381858,0.028 -0.757422,-0.0718 -1.141772,-0.0642 -9.389554,-0.0388 -21.995786,12.98133 21.085179,-13.76886 -7.663546,6.44608 -16.331985,12.33591 -25.745409,15.21794 -1.451432,0.3618 -2.820446,0.92013 -4.20603,1.48171 -8.938633,3.54106 -20.140221,12.91432 19.245145,-12.09517 -8.770978,5.77231 9.372187,-6.15454 -24.555482,14.83561 -7.44215,4.60427 29.875327,-18.2247 22.486719,-13.52779 -8.223398,5.22759 -16.620725,10.27118 -25.093574,15.10168 -1.559436,0.87634 -3.127287,1.59529 -4.900281,1.86361 -0.841392,0.0247 -1.683144,0.0685 -2.524361,0.0473 -0.503381,9.8e-4 -1.098208,-0.0836 -1.513347,-0.38492 -0.664872,-0.48306 -1.419344,-0.77142 -2.064718,-1.27387 -1.169195,-2.04404 -2.336891,-4.11803 -3.108729,-6.36445 -2.067014,-5.81363 -2.471442,-9.87966 -1.084328,-16.0135 2.160984,-9.61167 5.026973,-18.99095 8.733381,-28.08755 4.701236,-10.25493 9.588402,-20.45399 15.938027,-29.73757 10.146037,-13.51861 19.71505,-17.46885 35.789934,-26.79391 1.586451,-0.84243 2.928001,-1.66519 4.669371,-2.14435 2.94331,-0.80989 6.2172,-0.57762 9.19352,-0.24936 5.28846,0.72877 10.61013,1.38882 15.48804,3.81171 4.88444,2.15356 9.54427,4.95415 14.80699,6.08035 4.03243,0.77236 8.0846,1.09335 12.17604,0.62545 0,0 -23.12878,13.90983 -23.12878,13.90983 z"
           inkscape:connector-curvature="0" />
        <path
           inkscape:connector-curvature="0"
           d="m 290.98989,457.24588 c -6.48592,4.89734 -10.26611,12.44352 -13.7528,19.56912 -3.1755,8.34016 -6.35691,18.33797 -5.76224,27.40206 0.0772,1.17603 0.3967,2.32349 0.59505,3.48523 1.09827,4.09549 3.0122,6.80773 7.08625,8.0722 0.48364,0.0101 0.96935,0.076 1.45091,0.0302 6.52483,-0.62105 29.23008,-15.21885 -15.74151,9.93014 -0.67762,0.37894 1.29599,-0.86262 1.88353,-1.37012 0.77962,-0.67339 1.47145,-1.44217 2.20718,-2.16326 5.16634,-5.55163 8.78082,-12.14734 11.87441,-19.00886 2.0723,-5.03813 3.62929,-10.27435 4.4927,-15.65893 0.44784,-2.79292 0.63489,-5.84055 0.85914,-8.65697 -0.0259,-3.90978 0.0832,-9.20948 -3.346,-11.99099 -2.03426,-1.65007 -3.1694,-1.32442 -5.60935,-1.4611 0,0 19.60535,-11.31915 19.60535,-11.31915 l 0,0 c 2.44482,0.11467 3.6359,-0.22276 5.68492,1.41747 3.63238,2.90771 2.53461,8.60124 2.36996,12.5545 -0.74913,8.25825 -1.51901,16.65171 -5.19059,24.22281 -3.03367,6.55634 -6.09872,13.12977 -11.03025,18.52147 -1.31995,1.42214 -1.83536,2.21023 -3.47106,3.17563 -2.20983,1.30428 -17.60966,13.58663 -26.77179,13.7471 -0.94392,-0.32713 -1.66825,-0.48808 -2.46826,-1.14033 -2.29054,-1.86749 -2.92715,-5.08823 -3.0321,-7.84749 0.0138,-1.28422 -0.0579,-2.57221 0.0414,-3.85267 0.42245,-5.44869 1.70847,-10.87367 3.02824,-16.157 0.50762,-2.03212 0.9732,-4.07756 1.59105,-6.07893 0.59384,-1.92356 1.36031,-3.78953 2.04046,-5.6843 2.4645,-6.24422 1.30904,-3.9823 4.38405,-9.40693 1.61676,-2.85213 3.23978,-5.97143 5.80542,-8.10491 0,0 21.17595,-12.22594 21.17595,-12.22594 z"
           id="path4195"
           style="opacity:1;fill:#f37962;fill-opacity:1;stroke:none;stroke-width:0.99999994;stroke-linecap:butt;stroke-linejoin:miter;stroke-miterlimit:4;stroke-dasharray:none;stroke-dashoffset:0;stroke-opacity:1" />
        <path
           inkscape:connector-curvature="0"
           d="m 272.7346,420.11681 c -3.73513,-0.068 -7.36207,-0.48448 -11.01061,-1.32635 -5.10804,-1.5326 -9.93815,-3.84711 -14.78243,-6.09512 -4.91434,-2.23935 -10.06902,-3.35293 -15.38008,-3.87665 -3.15922,-0.21869 -6.44442,-0.37774 -9.54741,0.46221 -1.80944,0.48979 -2.77061,1.12158 -4.43405,2.00283 34.69727,-21.23344 21.4413,-13.77808 14.70939,-7.46797 -2.7898,2.61501 -5.18164,5.49086 -7.6069,8.46604 -4.62561,6.2176 -8.80421,12.8258 -12.31294,19.79837 -1.91305,3.80159 -2.98428,6.61447 -4.58327,10.51545 -3.72338,8.70096 -6.25339,17.82238 -7.36912,27.26708 -0.22488,2.84084 -0.67168,5.75787 -0.2999,8.61453 0.31582,2.4267 1.27331,4.68411 2.24417,6.88178 1.09912,2.13578 2.43613,4.12594 4.21657,5.6982 0.72854,0.39852 1.44502,0.82446 2.19153,1.19759 0.47283,0.28934 1.00848,0.30501 1.53588,0.37138 0.77941,0.0232 1.55803,0.0444 2.33782,0.065 1.68079,-0.17977 3.14819,-0.86877 4.61293,-1.69081 -0.66283,0.4032 1.98272,-1.15333 1.49073,-0.8582 -58.92132,35.34529 -0.0199,-0.0117 1.26506,-0.80526 7.17264,-4.42973 -28.7325,17.63245 -21.69219,12.97809 8.90539,-1.623 17.46743,-12.04808 27.02763,-15.73364 1.39427,-0.58803 2.80877,-1.08566 4.25743,-1.51262 11.74256,-4.52161 -28.5341,19.96893 -20.98299,12.88489 5.94085,-3.0345 16.06265,-14.28446 25.82895,-14.44567 0.4219,0.0216 0.8509,-0.0741 1.27008,-0.013 0.51783,0.0222 1.03334,0.0363 1.55178,0.0159 0.40476,-0.0256 0.80713,0.006 1.21319,-0.0102 0.36484,-0.0166 0.72697,0.0121 1.09336,-9e-4 0.16312,-0.006 0.32585,-0.0182 0.48836,-0.0334 0.0849,0.17863 0.27248,0.40033 0.42646,0.56443 0.36744,0.29733 0.51968,0.4262 0.57127,0.90108 -0.0787,0.62437 0.0727,1.2464 0.02,1.86775 -0.0361,0.43131 0.0771,0.85596 0.0188,1.28194 0.13162,0.68819 0.49369,1.3637 0.71333,2.05775 0.13305,0.41269 0.27334,0.8228 0.42286,1.22931 0.0661,0.12946 -0.0191,0.26958 -0.0373,0.40934 -0.0159,0.24253 0.007,0.48436 0.0436,0.72338 -5.5e-4,0.0268 0.0147,0.0531 0.0213,0.0767 -34.04323,21.13477 -22.56332,22.04665 -23.50169,10.64216 0.082,-1.06577 -0.59212,-1.78075 -1.37371,-2.34991 -1.72345,-1.40832 -3.86528,-1.81602 -5.98639,-2.06329 -2.79289,-0.24858 -5.61566,-0.37746 -8.41224,-0.13934 -2.83549,0.46151 -5.67149,0.9706 -8.46571,1.66064 -2.32932,0.64583 -4.65683,1.28618 -7.051,1.60693 -1.35882,0.12282 -2.66137,0.36691 -3.96702,-0.11418 -0.76655,-0.18788 -1.37184,-0.5146 -1.99421,-0.99224 0,0 23.36871,-14.05413 23.36871,-14.05413 l 0,0 c 0.57616,0.44959 1.22149,0.78803 1.89564,1.05153 1.24333,0.39441 2.47653,0.38864 3.7739,0.23032 2.21335,-0.23957 4.38551,-0.70761 6.53757,-1.29815 2.84911,-0.69908 5.72151,-1.36189 8.62455,-1.75617 2.79613,-0.29384 5.61005,0.005 8.41081,0.1402 2.28219,0.27639 4.50681,0.48528 6.52549,1.73907 0.9135,0.58523 1.53857,1.05907 1.45524,2.30089 -0.92603,12.38145 9.2235,-0.32664 -23.50201,17.62622 0.006,-0.0326 0.0143,-0.0653 0.0153,-0.0987 0.0255,-0.25606 0.0448,-0.51332 0.0356,-0.77102 -0.0125,-0.13059 -0.0525,-0.24298 -0.0271,-0.37064 -0.005,-0.46509 -0.0622,-0.92723 -0.1751,-1.37832 -0.21089,-0.71453 -0.67078,-1.29203 -0.86862,-1.96435 -0.0681,-0.43289 0.0765,-0.87255 0.0308,-1.31178 -0.0545,-0.6112 0.10514,-1.23624 -0.0658,-1.84016 -0.076,-0.37947 -0.28467,-0.64364 -0.54341,-0.91784 -0.17686,-0.18334 -0.34621,-0.37969 -0.58897,-0.46669 -0.12547,-0.0149 -0.25099,-0.0304 -0.37751,-0.0334 -0.36512,-0.0147 -0.72717,0.0173 -1.09076,-6.8e-4 -0.39451,-0.017 -0.78629,0.0181 -1.17928,-0.0103 -0.52818,-0.0252 -1.05385,-0.002 -1.58189,0.002 -0.38186,0.028 -0.75743,-0.0718 -1.14178,-0.0642 -9.38955,-0.0388 -21.99578,12.98133 21.08518,-13.76886 -7.66354,6.44608 -16.33198,12.33591 -25.74541,15.21794 -1.45143,0.3618 -2.82044,0.92013 -4.20603,1.48171 -8.93863,3.54106 -20.14022,12.91432 19.24515,-12.09517 -8.77098,5.77231 9.37218,-6.15454 -24.55548,14.83561 -7.44215,4.60427 29.87532,-18.2247 22.48672,-13.52779 -8.2234,5.22759 -16.62073,10.27118 -25.09358,15.10168 -1.55943,0.87634 -3.12729,1.59529 -4.90028,1.86361 -0.84139,0.0247 -1.68314,0.0685 -2.52436,0.0473 -0.50338,9.8e-4 -1.09821,-0.0836 -1.51335,-0.38492 -0.66487,-0.48306 -1.41934,-0.77142 -2.06472,-1.27387 -1.16919,-2.04404 -2.33689,-4.11803 -3.10872,-6.36445 -2.06702,-5.81363 -2.47145,-9.87966 -1.08433,-16.0135 2.16098,-9.61167 5.02697,-18.99095 8.73338,-28.08755 4.70123,-10.25493 9.5884,-20.45399 15.93803,-29.73757 10.14603,-13.51861 19.71504,-17.46885 35.78993,-26.79391 1.58645,-0.84243 2.928,-1.66519 4.66937,-2.14435 2.94331,-0.80989 6.2172,-0.57762 9.19352,-0.24936 5.28846,0.72877 10.61013,1.38882 15.48804,3.81171 4.88444,2.15356 9.54427,4.95415 14.80699,6.08035 4.03243,0.77236 8.0846,1.09335 12.17604,0.62545 0,0 -23.12878,13.90983 -23.12878,13.90983 z"
           id="path4197"
           style="opacity:1;fill:#f37962;fill-opacity:1;stroke:none;stroke-width:1.11546767;stroke-linecap:butt;stroke-linejoin:miter;stroke-miterlimit:4;stroke-dasharray:none;stroke-dashoffset:0;stroke-opacity:1" />
      </g>
    </g>
  </g>
</svg>
